<ttFont>
    <TTGlyph name=".notdef" xMin="0" yMin="0" xMax="500" yMax="700">
      <contour>
        <pt x="0" y="700" on="1"/>
        <pt x="500" y="700" on="1"/>
        <pt x="500" y="0" on="1"/>
        <pt x="0" y="0" on="1"/>
      </contour>
      <contour>
        <pt x="50" y="650" on="1"/>
        <pt x="50" y="50" on="1"/>
        <pt x="450" y="50" on="1"/>
        <pt x="450" y="650" on="1"/>
      </contour>
      <contour>
        <pt x="229" y="278" on="1"/>
        <pt x="229" y="307" on="0"/>
        <pt x="256" y="345" on="0"/>
        <pt x="283" y="367" on="1"/>
        <pt x="311" y="390" on="0"/>
        <pt x="339" y="431" on="0"/>
        <pt x="339" y="465" on="1"/>
        <pt x="339" y="496" on="0"/>
        <pt x="301" y="552" on="0"/>
        <pt x="250" y="552" on="1"/>
        <pt x="192" y="552" on="0"/>
        <pt x="152" y="485" on="0"/>
        <pt x="152" y="452" on="1"/>
        <pt x="152" y="424" on="1"/>
        <pt x="103" y="424" on="1"/>
        <pt x="99" y="438" on="0"/>
        <pt x="99" y="455" on="1"/>
        <pt x="99" y="478" on="0"/>
        <pt x="120" y="544" on="0"/>
        <pt x="187" y="602" on="0"/>
        <pt x="250" y="602" on="1"/>
        <pt x="313" y="602" on="0"/>
        <pt x="376" y="546" on="0"/>
        <pt x="393" y="486" on="0"/>
        <pt x="393" y="467" on="1"/>
        <pt x="393" y="422" on="0"/>
        <pt x="356" y="364" on="0"/>
        <pt x="326" y="338" on="1"/>
        <pt x="304" y="320" on="0"/>
        <pt x="282" y="290" on="0"/>
        <pt x="282" y="268" on="1"/>
        <pt x="282" y="215" on="1"/>
        <pt x="229" y="215" on="1"/>
      </contour>
      <contour>
        <pt x="225" y="169" on="1"/>
        <pt x="285" y="169" on="1"/>
        <pt x="285" y="99" on="1"/>
        <pt x="225" y="99" on="1"/>
      </contour>
    </TTGlyph>
    <TTGlyph name="A" xMin="27" yMin="0" xMax="467" yMax="688">
      <contour>
        <pt x="366" y="219" on="1"/>
        <pt x="126" y="219" on="1"/>
        <pt x="63" y="0" on="1"/>
        <pt x="27" y="0" on="1"/>
        <pt x="227" y="688" on="1"/>
        <pt x="266" y="688" on="1"/>
        <pt x="467" y="0" on="1"/>
        <pt x="429" y="0" on="1"/>
      </contour>
      <contour>
        <pt x="244" y="624" on="1"/>
        <pt x="136" y="253" on="1"/>
        <pt x="356" y="253" on="1"/>
        <pt x="249" y="624" on="1"/>
      </contour>
    </TTGlyph>
    <TTGlyph name="A.ss01" xMin="75" yMin="0" xMax="446" yMax="696">
      <contour>
        <pt x="410" y="274" on="1"/>
        <pt x="111" y="274" on="1"/>
        <pt x="111" y="0" on="1"/>
        <pt x="75" y="0" on="1"/>
        <pt x="75" y="394" on="1"/>
        <pt x="75" y="526" on="0"/>
        <pt x="98" y="646" on="0"/>
        <pt x="174" y="696" on="0"/>
        <pt x="261" y="696" on="1"/>
        <pt x="347" y="696" on="0"/>
        <pt x="423" y="646" on="0"/>
        <pt x="446" y="525" on="0"/>
        <pt x="446" y="394" on="1"/>
        <pt x="446" y="0" on="1"/>
        <pt x="410" y="0" on="1"/>
      </contour>
      <contour>
        <pt x="410" y="530" on="0"/>
        <pt x="393" y="623" on="0"/>
        <pt x="332" y="662" on="0"/>
        <pt x="261" y="662" on="1"/>
        <pt x="190" y="662" on="0"/>
        <pt x="128" y="623" on="0"/>
        <pt x="111" y="530" on="0"/>
        <pt x="111" y="424" on="1"/>
        <pt x="111" y="308" on="1"/>
        <pt x="410" y="308" on="1"/>
        <pt x="410" y="424" on="1"/>
      </contour>
    </TTGlyph>
    <TTGlyph name="AE" xMin="0" yMin="0" xMax="638" yMax="688">
      <contour>
        <pt x="358" y="219" on="1"/>
        <pt x="119" y="219" on="1"/>
        <pt x="37" y="0" on="1"/>
        <pt x="0" y="0" on="1"/>
        <pt x="261" y="688" on="1"/>
        <pt x="638" y="688" on="1"/>
        <pt x="638" y="654" on="1"/>
        <pt x="307" y="654" on="1"/>
        <pt x="366" y="365" on="1"/>
        <pt x="604" y="365" on="1"/>
        <pt x="604" y="331" on="1"/>
        <pt x="372" y="331" on="1"/>
        <pt x="433" y="34" on="1"/>
        <pt x="638" y="34" on="1"/>
        <pt x="638" y="0" on="1"/>
        <pt x="403" y="0" on="1"/>
      </contour>
      <contour>
        <pt x="272" y="624" on="1"/>
        <pt x="131" y="253" on="1"/>
        <pt x="351" y="253" on="1"/>
        <pt x="277" y="624" on="1"/>
      </contour>
    </TTGlyph>
    <TTGlyph name="AEacute" xMin="0" yMin="0" xMax="638" yMax="888">
      <component glyphName="AE" x="0" y="0" flags="0x0"/>
      <component glyphName="acutecomb.case" x="426" y="0" flags="0x0"/>
    </TTGlyph>
    <TTGlyph name="Aacute" xMin="27" yMin="0" xMax="467" yMax="888">
      <component glyphName="A" x="0" y="0" flags="0x0"/>
      <component glyphName="acute" x="222" y="145" flags="0x4"/>
    </TTGlyph>
    <TTGlyph name="Aacute.ss01" xMin="75" yMin="0" xMax="446" yMax="888">
      <component glyphName="A.ss01" x="0" y="0" flags="0x0"/>
      <component glyphName="acute" x="230" y="145" flags="0x4"/>
    </TTGlyph>
    <TTGlyph name="Abreve" xMin="27" yMin="0" xMax="467" yMax="888">
      <component glyphName="A" x="0" y="0" flags="0x0"/>
      <component glyphName="uni0306.case" x="356" y="0" flags="0x0"/>
    </TTGlyph>
    <TTGlyph name="Abreve.ss01" xMin="75" yMin="0" xMax="446" yMax="888">
      <component glyphName="A.ss01" x="0" y="0" flags="0x0"/>
      <component glyphName="uni0306.case" x="370" y="0" flags="0x0"/>
    </TTGlyph>
    <TTGlyph name="Acircumflex" xMin="27" yMin="0" xMax="467" yMax="888">
      <component glyphName="A" x="0" y="0" flags="0x0"/>
      <component glyphName="circumflex" x="137" y="145" flags="0x4"/>
    </TTGlyph>
    <TTGlyph name="Acircumflex.ss01" xMin="75" yMin="0" xMax="446" yMax="888">
      <component glyphName="A.ss01" x="0" y="0" flags="0x0"/>
      <component glyphName="circumflex" x="153" y="145" flags="0x4"/>
    </TTGlyph>
    <TTGlyph name="Adieresis" xMin="27" yMin="0" xMax="467" yMax="831">
      <component glyphName="A" x="0" y="0" flags="0x0"/>
      <component glyphName="dieresis" x="115" y="101" flags="0x4"/>
    </TTGlyph>
    <TTGlyph name="Adieresis.ss01" xMin="75" yMin="0" xMax="446" yMax="830">
      <component glyphName="A.ss01" x="0" y="0" flags="0x0"/>
      <component glyphName="dieresis" x="131" y="100" flags="0x4"/>
    </TTGlyph>
    <TTGlyph name="Agrave" xMin="27" yMin="0" xMax="467" yMax="888">
      <component glyphName="A" x="0" y="0" flags="0x0"/>
      <component glyphName="grave" x="159" y="145" flags="0x4"/>
    </TTGlyph>
    <TTGlyph name="Agrave.ss01" xMin="75" yMin="0" xMax="446" yMax="888">
      <component glyphName="A.ss01" x="0" y="0" flags="0x0"/>
      <component glyphName="grave" x="178" y="145" flags="0x4"/>
    </TTGlyph>
    <TTGlyph name="Amacron" xMin="27" yMin="0" xMax="467" yMax="888">
      <component glyphName="A" x="0" y="0" flags="0x0"/>
      <component glyphName="uni0304.case" x="401" y="0" flags="0x0"/>
    </TTGlyph>
    <TTGlyph name="Amacron.ss01" xMin="75" yMin="0" xMax="446" yMax="888">
      <component glyphName="A.ss01" x="0" y="0" flags="0x0"/>
      <component glyphName="uni0304.case" x="415" y="0" flags="0x0"/>
    </TTGlyph>
    <TTGlyph name="Aogonek" xMin="27" yMin="-196" xMax="467" yMax="688">
      <contour>
        <pt x="402" y="-164" on="0"/>
        <pt x="449" y="-164" on="1"/>
        <pt x="466" y="-163" on="1"/>
        <pt x="466" y="-195" on="1"/>
        <pt x="457" y="-196" on="0"/>
        <pt x="444" y="-196" on="1"/>
        <pt x="405" y="-196" on="0"/>
        <pt x="368" y="-157" on="0"/>
        <pt x="368" y="-124" on="1"/>
        <pt x="368" y="-94" on="0"/>
        <pt x="402" y="-25" on="0"/>
        <pt x="428" y="2" on="1"/>
        <pt x="366" y="219" on="1"/>
        <pt x="126" y="219" on="1"/>
        <pt x="63" y="0" on="1"/>
        <pt x="27" y="0" on="1"/>
        <pt x="227" y="688" on="1"/>
        <pt x="266" y="688" on="1"/>
        <pt x="467" y="0" on="1"/>
        <pt x="461" y="0" on="1"/>
        <pt x="439" y="-21" on="0"/>
        <pt x="402" y="-91" on="0"/>
        <pt x="402" y="-118" on="1"/>
      </contour>
      <contour>
        <pt x="356" y="253" on="1"/>
        <pt x="249" y="624" on="1"/>
        <pt x="244" y="624" on="1"/>
        <pt x="136" y="253" on="1"/>
      </contour>
    </TTGlyph>
    <TTGlyph name="Aogonek.ss01" xMin="75" yMin="-196" xMax="448" yMax="696">
      <contour>
        <pt x="448" y="-163" on="1"/>
        <pt x="448" y="-195" on="1"/>
        <pt x="439" y="-196" on="0"/>
        <pt x="426" y="-196" on="1"/>
        <pt x="387" y="-196" on="0"/>
        <pt x="350" y="-157" on="0"/>
        <pt x="350" y="-124" on="1"/>
        <pt x="350" y="-94" on="0"/>
        <pt x="383" y="-25" on="0"/>
        <pt x="410" y="2" on="1"/>
        <pt x="410" y="274" on="1"/>
        <pt x="111" y="274" on="1"/>
        <pt x="111" y="0" on="1"/>
        <pt x="75" y="0" on="1"/>
        <pt x="75" y="394" on="1"/>
        <pt x="75" y="526" on="0"/>
        <pt x="98" y="646" on="0"/>
        <pt x="174" y="696" on="0"/>
        <pt x="261" y="696" on="1"/>
        <pt x="347" y="696" on="0"/>
        <pt x="423" y="646" on="0"/>
        <pt x="446" y="525" on="0"/>
        <pt x="446" y="394" on="1"/>
        <pt x="446" y="4" on="1"/>
        <pt x="447" y="4" on="1"/>
        <pt x="446" y="3" on="1"/>
        <pt x="446" y="0" on="1"/>
        <pt x="443" y="0" on="1"/>
        <pt x="421" y="-21" on="0"/>
        <pt x="384" y="-91" on="0"/>
        <pt x="384" y="-118" on="1"/>
        <pt x="384" y="-164" on="0"/>
        <pt x="431" y="-164" on="1"/>
      </contour>
      <contour>
        <pt x="410" y="308" on="1"/>
        <pt x="410" y="424" on="1"/>
        <pt x="410" y="530" on="0"/>
        <pt x="393" y="623" on="0"/>
        <pt x="332" y="662" on="0"/>
        <pt x="261" y="662" on="1"/>
        <pt x="190" y="662" on="0"/>
        <pt x="128" y="623" on="0"/>
        <pt x="111" y="530" on="0"/>
        <pt x="111" y="424" on="1"/>
        <pt x="111" y="308" on="1"/>
      </contour>
    </TTGlyph>
    <TTGlyph name="Aring" xMin="27" yMin="0" xMax="467" yMax="854">
      <contour>
        <pt x="467" y="0" on="1"/>
        <pt x="429" y="0" on="1"/>
        <pt x="366" y="219" on="1"/>
        <pt x="126" y="219" on="1"/>
        <pt x="63" y="0" on="1"/>
        <pt x="27" y="0" on="1"/>
        <pt x="223" y="678" on="1"/>
        <pt x="193" y="680" on="0"/>
        <pt x="164" y="699" on="0"/>
        <pt x="156" y="733" on="0"/>
        <pt x="156" y="766" on="1"/>
        <pt x="156" y="803" on="0"/>
        <pt x="167" y="838" on="0"/>
        <pt x="205" y="854" on="0"/>
        <pt x="246" y="854" on="1"/>
        <pt x="288" y="854" on="0"/>
        <pt x="326" y="838" on="0"/>
        <pt x="338" y="802" on="0"/>
        <pt x="338" y="766" on="1"/>
        <pt x="338" y="733" on="0"/>
        <pt x="329" y="699" on="0"/>
        <pt x="300" y="680" on="0"/>
        <pt x="270" y="679" on="1"/>
      </contour>
      <contour>
        <pt x="189" y="740" on="0"/>
        <pt x="195" y="716" on="0"/>
        <pt x="219" y="706" on="0"/>
        <pt x="246" y="706" on="1"/>
        <pt x="274" y="706" on="0"/>
        <pt x="298" y="716" on="0"/>
        <pt x="305" y="740" on="0"/>
        <pt x="305" y="766" on="1"/>
        <pt x="305" y="792" on="0"/>
        <pt x="298" y="816" on="0"/>
        <pt x="274" y="826" on="0"/>
        <pt x="246" y="826" on="1"/>
        <pt x="219" y="826" on="0"/>
        <pt x="195" y="816" on="0"/>
        <pt x="189" y="792" on="0"/>
        <pt x="189" y="766" on="1"/>
      </contour>
      <contour>
        <pt x="356" y="253" on="1"/>
        <pt x="249" y="624" on="1"/>
        <pt x="244" y="624" on="1"/>
        <pt x="136" y="253" on="1"/>
      </contour>
    </TTGlyph>
    <TTGlyph name="Aring.ss01" xMin="75" yMin="0" xMax="446" yMax="923">
      <component glyphName="A.ss01" x="0" y="0" flags="0x0"/>
      <component glyphName="ring" x="161" y="129" flags="0x4"/>
    </TTGlyph>
    <TTGlyph name="Aringacute" xMin="27" yMin="0" xMax="467" yMax="1054">
      <component glyphName="Aring" x="0" y="0" flags="0x0"/>
      <component glyphName="acutecomb.case" x="335" y="166" flags="0x4"/>
    </TTGlyph>
    <TTGlyph name="Aringacute.ss01" xMin="75" yMin="0" xMax="446" yMax="1079">
      <component glyphName="A.ss01" x="0" y="0" flags="0x0"/>
      <component glyphName="uni030A.case" x="362" y="0" flags="0x0"/>
      <component glyphName="acutecomb.case" x="352" y="191" flags="0x4"/>
    </TTGlyph>
    <TTGlyph name="Atilde" xMin="27" yMin="0" xMax="467" yMax="856">
      <component glyphName="A" x="0" y="0" flags="0x0"/>
      <component glyphName="tilde" x="108" y="113" flags="0x4"/>
    </TTGlyph>
    <TTGlyph name="Atilde.ss01" xMin="75" yMin="0" xMax="446" yMax="856">
      <component glyphName="A.ss01" x="0" y="0" flags="0x0"/>
      <component glyphName="tilde" x="122" y="113" flags="0x4"/>
    </TTGlyph>
    <TTGlyph name="B" xMin="81" yMin="0" xMax="438" yMax="688">
      <contour>
        <pt x="81" y="688" on="1"/>
        <pt x="280" y="688" on="1"/>
        <pt x="365" y="688" on="0"/>
        <pt x="432" y="599" on="0"/>
        <pt x="432" y="516" on="1"/>
        <pt x="432" y="448" on="0"/>
        <pt x="383" y="366" on="0"/>
        <pt x="329" y="354" on="1"/>
        <pt x="329" y="350" on="1"/>
        <pt x="394" y="338" on="0"/>
        <pt x="438" y="248" on="0"/>
        <pt x="438" y="180" on="1"/>
        <pt x="438" y="99" on="0"/>
        <pt x="371" y="0" on="0"/>
        <pt x="273" y="0" on="1"/>
        <pt x="81" y="0" on="1"/>
      </contour>
      <contour>
        <pt x="332" y="366" on="0"/>
        <pt x="396" y="440" on="0"/>
        <pt x="396" y="510" on="1"/>
        <pt x="396" y="587" on="0"/>
        <pt x="344" y="654" on="0"/>
        <pt x="274" y="654" on="1"/>
        <pt x="117" y="654" on="1"/>
        <pt x="117" y="366" on="1"/>
        <pt x="274" y="366" on="1"/>
      </contour>
      <contour>
        <pt x="346" y="34" on="0"/>
        <pt x="402" y="105" on="0"/>
        <pt x="402" y="183" on="1"/>
        <pt x="402" y="261" on="0"/>
        <pt x="343" y="332" on="0"/>
        <pt x="276" y="332" on="1"/>
        <pt x="117" y="332" on="1"/>
        <pt x="117" y="34" on="1"/>
        <pt x="276" y="34" on="1"/>
      </contour>
    </TTGlyph>
    <TTGlyph name="C" xMin="63" yMin="-8" xMax="365" yMax="696">
      <contour>
        <pt x="318" y="-8" on="0"/>
        <pt x="258" y="-8" on="1"/>
        <pt x="170" y="-8" on="0"/>
        <pt x="91" y="40" on="0"/>
        <pt x="63" y="182" on="0"/>
        <pt x="63" y="344" on="1"/>
        <pt x="63" y="504" on="0"/>
        <pt x="91" y="647" on="0"/>
        <pt x="170" y="696" on="0"/>
        <pt x="258" y="696" on="1"/>
        <pt x="284" y="696" on="0"/>
        <pt x="344" y="689" on="0"/>
        <pt x="363" y="684" on="1"/>
        <pt x="363" y="652" on="1"/>
        <pt x="316" y="662" on="0"/>
        <pt x="266" y="662" on="1"/>
        <pt x="186" y="662" on="0"/>
        <pt x="120" y="621" on="0"/>
        <pt x="99" y="496" on="0"/>
        <pt x="99" y="344" on="1"/>
        <pt x="99" y="192" on="0"/>
        <pt x="120" y="67" on="0"/>
        <pt x="186" y="26" on="0"/>
        <pt x="266" y="26" on="1"/>
        <pt x="290" y="26" on="0"/>
        <pt x="346" y="32" on="0"/>
        <pt x="365" y="36" on="1"/>
        <pt x="365" y="2" on="1"/>
      </contour>
    </TTGlyph>
    <TTGlyph name="Cacute" xMin="63" yMin="-8" xMax="365" yMax="888">
      <component glyphName="C" x="0" y="0" flags="0x0"/>
      <component glyphName="acutecomb.case" x="291" y="0" flags="0x0"/>
    </TTGlyph>
    <TTGlyph name="Cacute.loclPLK" xMin="63" yMin="-8" xMax="365" yMax="888">
      <component glyphName="C" x="0" y="0" flags="0x0"/>
      <component glyphName="acute.case.loclPLK" x="179" y="0" flags="0x0"/>
    </TTGlyph>
    <TTGlyph name="Ccaron" xMin="63" yMin="-8" xMax="365" yMax="888">
      <component glyphName="C" x="0" y="0" flags="0x0"/>
      <component glyphName="uni030C.case" x="311" y="0" flags="0x0"/>
    </TTGlyph>
    <TTGlyph name="Ccedilla" xMin="63" yMin="-190" xMax="365" yMax="696">
      <contour>
        <pt x="290" y="26" on="0"/>
        <pt x="346" y="32" on="0"/>
        <pt x="365" y="36" on="1"/>
        <pt x="365" y="2" on="1"/>
        <pt x="318" y="-8" on="0"/>
        <pt x="258" y="-8" on="1"/>
        <pt x="227" y="-8" on="0"/>
        <pt x="214" y="-7" on="1"/>
        <pt x="172" y="-190" on="1"/>
        <pt x="132" y="-190" on="1"/>
        <pt x="132" y="-185" on="1"/>
        <pt x="186" y="-4" on="1"/>
        <pt x="134" y="5" on="0"/>
        <pt x="82" y="69" on="0"/>
        <pt x="63" y="208" on="0"/>
        <pt x="63" y="344" on="1"/>
        <pt x="63" y="504" on="0"/>
        <pt x="91" y="647" on="0"/>
        <pt x="170" y="696" on="0"/>
        <pt x="258" y="696" on="1"/>
        <pt x="284" y="696" on="0"/>
        <pt x="344" y="689" on="0"/>
        <pt x="363" y="684" on="1"/>
        <pt x="363" y="652" on="1"/>
        <pt x="316" y="662" on="0"/>
        <pt x="266" y="662" on="1"/>
        <pt x="186" y="662" on="0"/>
        <pt x="120" y="621" on="0"/>
        <pt x="99" y="496" on="0"/>
        <pt x="99" y="344" on="1"/>
        <pt x="99" y="192" on="0"/>
        <pt x="120" y="67" on="0"/>
        <pt x="186" y="26" on="0"/>
        <pt x="266" y="26" on="1"/>
      </contour>
    </TTGlyph>
    <TTGlyph name="Ccircumflex" xMin="63" yMin="-8" xMax="365" yMax="888">
      <component glyphName="C" x="0" y="0" flags="0x0"/>
      <component glyphName="uni0302.case" x="311" y="0" flags="0x0"/>
    </TTGlyph>
    <TTGlyph name="Cdotaccent" xMin="63" yMin="-8" xMax="365" yMax="875">
      <component glyphName="C" x="0" y="0" flags="0x0"/>
      <component glyphName="uni0307.case" x="243" y="0" flags="0x0"/>
    </TTGlyph>
    <TTGlyph name="D" xMin="81" yMin="0" xMax="438" yMax="688">
      <contour>
        <pt x="81" y="688" on="1"/>
        <pt x="235" y="688" on="1"/>
        <pt x="331" y="688" on="0"/>
        <pt x="413" y="640" on="0"/>
        <pt x="438" y="505" on="0"/>
        <pt x="438" y="344" on="1"/>
        <pt x="438" y="183" on="0"/>
        <pt x="413" y="48" on="0"/>
        <pt x="331" y="0" on="0"/>
        <pt x="235" y="0" on="1"/>
        <pt x="81" y="0" on="1"/>
      </contour>
      <contour>
        <pt x="228" y="34" on="1"/>
        <pt x="314" y="34" on="0"/>
        <pt x="380" y="67" on="0"/>
        <pt x="402" y="188" on="0"/>
        <pt x="402" y="344" on="1"/>
        <pt x="402" y="500" on="0"/>
        <pt x="379" y="621" on="0"/>
        <pt x="314" y="654" on="0"/>
        <pt x="228" y="654" on="1"/>
        <pt x="117" y="654" on="1"/>
        <pt x="117" y="34" on="1"/>
      </contour>
    </TTGlyph>
    <TTGlyph name="Dcaron" xMin="81" yMin="0" xMax="438" yMax="888">
      <component glyphName="D" x="0" y="0" flags="0x0"/>
      <component glyphName="uni030C.case" x="360" y="0" flags="0x0"/>
    </TTGlyph>
    <TTGlyph name="Dcroat" xMin="22" yMin="0" xMax="438" yMax="688">
      <component glyphName="Eth" x="0" y="0" flags="0x0"/>
    </TTGlyph>
    <TTGlyph name="E" xMin="81" yMin="0" xMax="393" yMax="688">
      <contour>
        <pt x="81" y="688" on="1"/>
        <pt x="393" y="688" on="1"/>
        <pt x="393" y="654" on="1"/>
        <pt x="118" y="654" on="1"/>
        <pt x="118" y="365" on="1"/>
        <pt x="359" y="365" on="1"/>
        <pt x="359" y="331" on="1"/>
        <pt x="118" y="331" on="1"/>
        <pt x="118" y="34" on="1"/>
        <pt x="393" y="34" on="1"/>
        <pt x="393" y="0" on="1"/>
        <pt x="81" y="0" on="1"/>
      </contour>
    </TTGlyph>
    <TTGlyph name="Eacute" xMin="81" yMin="0" xMax="393" yMax="888">
      <component glyphName="E" x="0" y="0" flags="0x0"/>
      <component glyphName="acute" x="217" y="145" flags="0x4"/>
    </TTGlyph>
    <TTGlyph name="Ebreve" xMin="81" yMin="0" xMax="393" yMax="888">
      <component glyphName="E" x="0" y="0" flags="0x0"/>
      <component glyphName="uni0306.case" x="346" y="0" flags="0x0"/>
    </TTGlyph>
    <TTGlyph name="Ecaron" xMin="81" yMin="0" xMax="393" yMax="888">
      <component glyphName="E" x="0" y="0" flags="0x0"/>
      <component glyphName="uni030C.case" x="346" y="0" flags="0x0"/>
    </TTGlyph>
    <TTGlyph name="Ecircumflex" xMin="81" yMin="0" xMax="393" yMax="888">
      <component glyphName="E" x="0" y="0" flags="0x0"/>
      <component glyphName="circumflex" x="130" y="145" flags="0x4"/>
    </TTGlyph>
    <TTGlyph name="Edieresis" xMin="81" yMin="0" xMax="393" yMax="831">
      <component glyphName="E" x="0" y="0" flags="0x0"/>
      <component glyphName="dieresis" x="109" y="101" flags="0x4"/>
    </TTGlyph>
    <TTGlyph name="Edotaccent" xMin="81" yMin="0" xMax="393" yMax="875">
      <component glyphName="E" x="0" y="0" flags="0x0"/>
      <component glyphName="uni0307.case" x="278" y="0" flags="0x0"/>
    </TTGlyph>
    <TTGlyph name="Egrave" xMin="81" yMin="0" xMax="393" yMax="888">
      <component glyphName="E" x="0" y="0" flags="0x0"/>
      <component glyphName="grave" x="156" y="145" flags="0x4"/>
    </TTGlyph>
    <TTGlyph name="Emacron" xMin="81" yMin="0" xMax="393" yMax="888">
      <component glyphName="E" x="0" y="0" flags="0x0"/>
      <component glyphName="uni0304.case" x="391" y="0" flags="0x0"/>
    </TTGlyph>
    <TTGlyph name="Eng" xMin="81" yMin="-193" xMax="452" yMax="688">
      <contour>
        <pt x="452" y="688" on="1"/>
        <pt x="452" y="-96" on="1"/>
        <pt x="452" y="-141" on="0"/>
        <pt x="430" y="-182" on="0"/>
        <pt x="386" y="-193" on="0"/>
        <pt x="343" y="-193" on="1"/>
        <pt x="343" y="-163" on="1"/>
        <pt x="377" y="-163" on="0"/>
        <pt x="408" y="-153" on="0"/>
        <pt x="417" y="-131" on="0"/>
        <pt x="417" y="-106" on="1"/>
        <pt x="417" y="0" on="1"/>
        <pt x="120" y="604" on="1"/>
        <pt x="116" y="604" on="1"/>
        <pt x="116" y="0" on="1"/>
        <pt x="81" y="0" on="1"/>
        <pt x="81" y="688" on="1"/>
        <pt x="122" y="688" on="1"/>
        <pt x="413" y="90" on="1"/>
        <pt x="417" y="90" on="1"/>
        <pt x="417" y="688" on="1"/>
      </contour>
    </TTGlyph>
    <TTGlyph name="Eogonek" xMin="81" yMin="-196" xMax="393" yMax="688">
      <contour>
        <pt x="328" y="-196" on="0"/>
        <pt x="291" y="-157" on="0"/>
        <pt x="291" y="-127" on="1"/>
        <pt x="291" y="-95" on="0"/>
        <pt x="328" y="-27" on="0"/>
        <pt x="358" y="0" on="1"/>
        <pt x="81" y="0" on="1"/>
        <pt x="81" y="688" on="1"/>
        <pt x="393" y="688" on="1"/>
        <pt x="393" y="654" on="1"/>
        <pt x="118" y="654" on="1"/>
        <pt x="118" y="365" on="1"/>
        <pt x="359" y="365" on="1"/>
        <pt x="359" y="331" on="1"/>
        <pt x="118" y="331" on="1"/>
        <pt x="118" y="34" on="1"/>
        <pt x="393" y="34" on="1"/>
        <pt x="393" y="0" on="1"/>
        <pt x="369" y="-19" on="0"/>
        <pt x="325" y="-90" on="0"/>
        <pt x="325" y="-119" on="1"/>
        <pt x="325" y="-139" on="0"/>
        <pt x="347" y="-164" on="0"/>
        <pt x="372" y="-164" on="1"/>
        <pt x="389" y="-163" on="1"/>
        <pt x="389" y="-195" on="1"/>
        <pt x="380" y="-196" on="0"/>
        <pt x="367" y="-196" on="1"/>
      </contour>
    </TTGlyph>
    <TTGlyph name="Eth" xMin="22" yMin="0" xMax="438" yMax="688">
      <contour>
        <pt x="81" y="331" on="1"/>
        <pt x="22" y="331" on="1"/>
        <pt x="22" y="367" on="1"/>
        <pt x="81" y="367" on="1"/>
        <pt x="81" y="688" on="1"/>
        <pt x="235" y="688" on="1"/>
        <pt x="331" y="688" on="0"/>
        <pt x="413" y="640" on="0"/>
        <pt x="438" y="505" on="0"/>
        <pt x="438" y="344" on="1"/>
        <pt x="438" y="183" on="0"/>
        <pt x="413" y="48" on="0"/>
        <pt x="331" y="0" on="0"/>
        <pt x="235" y="0" on="1"/>
        <pt x="81" y="0" on="1"/>
      </contour>
      <contour>
        <pt x="314" y="34" on="0"/>
        <pt x="380" y="67" on="0"/>
        <pt x="402" y="188" on="0"/>
        <pt x="402" y="344" on="1"/>
        <pt x="402" y="500" on="0"/>
        <pt x="379" y="621" on="0"/>
        <pt x="314" y="654" on="0"/>
        <pt x="228" y="654" on="1"/>
        <pt x="117" y="654" on="1"/>
        <pt x="117" y="367" on="1"/>
        <pt x="237" y="367" on="1"/>
        <pt x="237" y="331" on="1"/>
        <pt x="117" y="331" on="1"/>
        <pt x="117" y="34" on="1"/>
        <pt x="228" y="34" on="1"/>
      </contour>
    </TTGlyph>
    <TTGlyph name="Euro" xMin="40" yMin="-8" xMax="402" yMax="696">
      <contour>
        <pt x="215" y="-8" on="0"/>
        <pt x="138" y="28" on="0"/>
        <pt x="104" y="136" on="0"/>
        <pt x="101" y="252" on="1"/>
        <pt x="40" y="252" on="1"/>
        <pt x="40" y="286" on="1"/>
        <pt x="100" y="286" on="1"/>
        <pt x="100" y="405" on="1"/>
        <pt x="40" y="405" on="1"/>
        <pt x="40" y="439" on="1"/>
        <pt x="101" y="439" on="1"/>
        <pt x="105" y="552" on="0"/>
        <pt x="139" y="659" on="0"/>
        <pt x="217" y="696" on="0"/>
        <pt x="295" y="696" on="1"/>
        <pt x="321" y="696" on="0"/>
        <pt x="381" y="689" on="0"/>
        <pt x="400" y="684" on="1"/>
        <pt x="400" y="652" on="1"/>
        <pt x="353" y="662" on="0"/>
        <pt x="303" y="662" on="1"/>
        <pt x="232" y="662" on="0"/>
        <pt x="166" y="632" on="0"/>
        <pt x="139" y="541" on="0"/>
        <pt x="136" y="439" on="1"/>
        <pt x="360" y="439" on="1"/>
        <pt x="360" y="405" on="1"/>
        <pt x="136" y="405" on="1"/>
        <pt x="136" y="286" on="1"/>
        <pt x="360" y="286" on="1"/>
        <pt x="360" y="252" on="1"/>
        <pt x="136" y="252" on="1"/>
        <pt x="139" y="148" on="0"/>
        <pt x="166" y="56" on="0"/>
        <pt x="231" y="26" on="0"/>
        <pt x="303" y="26" on="1"/>
        <pt x="327" y="26" on="0"/>
        <pt x="383" y="32" on="0"/>
        <pt x="402" y="36" on="1"/>
        <pt x="402" y="2" on="1"/>
        <pt x="355" y="-8" on="0"/>
        <pt x="295" y="-8" on="1"/>
      </contour>
    </TTGlyph>
    <TTGlyph name="F" xMin="81" yMin="0" xMax="379" yMax="688">
      <contour>
        <pt x="81" y="688" on="1"/>
        <pt x="379" y="688" on="1"/>
        <pt x="379" y="654" on="1"/>
        <pt x="118" y="654" on="1"/>
        <pt x="118" y="351" on="1"/>
        <pt x="352" y="351" on="1"/>
        <pt x="352" y="317" on="1"/>
        <pt x="118" y="317" on="1"/>
        <pt x="118" y="0" on="1"/>
        <pt x="81" y="0" on="1"/>
      </contour>
    </TTGlyph>
    <TTGlyph name="G" xMin="63" yMin="-8" xMax="423" yMax="696">
      <contour>
        <pt x="255" y="315" on="1"/>
        <pt x="255" y="349" on="1"/>
        <pt x="423" y="349" on="1"/>
        <pt x="423" y="9" on="1"/>
        <pt x="388" y="1" on="0"/>
        <pt x="302" y="-8" on="0"/>
        <pt x="269" y="-8" on="1"/>
        <pt x="180" y="-8" on="0"/>
        <pt x="96" y="42" on="0"/>
        <pt x="63" y="187" on="0"/>
        <pt x="63" y="344" on="1"/>
        <pt x="63" y="500" on="0"/>
        <pt x="95" y="645" on="0"/>
        <pt x="179" y="696" on="0"/>
        <pt x="269" y="696" on="1"/>
        <pt x="307" y="696" on="0"/>
        <pt x="392" y="686" on="0"/>
        <pt x="421" y="678" on="1"/>
        <pt x="421" y="646" on="1"/>
        <pt x="390" y="653" on="0"/>
        <pt x="316" y="662" on="0"/>
        <pt x="291" y="662" on="1"/>
        <pt x="202" y="662" on="0"/>
        <pt x="129" y="629" on="0"/>
        <pt x="99" y="500" on="0"/>
        <pt x="99" y="344" on="1"/>
        <pt x="99" y="200" on="0"/>
        <pt x="121" y="73" on="0"/>
        <pt x="190" y="26" on="0"/>
        <pt x="268" y="26" on="1"/>
        <pt x="296" y="26" on="0"/>
        <pt x="366" y="33" on="0"/>
        <pt x="387" y="38" on="1"/>
        <pt x="387" y="315" on="1"/>
      </contour>
    </TTGlyph>
    <TTGlyph name="G.ss01" xMin="63" yMin="-8" xMax="445" yMax="696">
      <contour>
        <pt x="177" y="-8" on="0"/>
        <pt x="94" y="42" on="0"/>
        <pt x="63" y="186" on="0"/>
        <pt x="63" y="344" on="1"/>
        <pt x="63" y="503" on="0"/>
        <pt x="96" y="648" on="0"/>
        <pt x="182" y="696" on="0"/>
        <pt x="275" y="696" on="1"/>
        <pt x="312" y="696" on="0"/>
        <pt x="399" y="686" on="0"/>
        <pt x="429" y="678" on="1"/>
        <pt x="429" y="646" on="1"/>
        <pt x="395" y="653" on="0"/>
        <pt x="319" y="662" on="0"/>
        <pt x="294" y="662" on="1"/>
        <pt x="203" y="662" on="0"/>
        <pt x="129" y="629" on="0"/>
        <pt x="99" y="500" on="0"/>
        <pt x="99" y="344" on="1"/>
        <pt x="99" y="197" on="0"/>
        <pt x="121" y="70" on="0"/>
        <pt x="189" y="26" on="0"/>
        <pt x="268" y="26" on="1"/>
        <pt x="339" y="26" on="0"/>
        <pt x="394" y="60" on="0"/>
        <pt x="410" y="165" on="0"/>
        <pt x="410" y="301" on="1"/>
        <pt x="410" y="324" on="1"/>
        <pt x="273" y="324" on="1"/>
        <pt x="273" y="358" on="1"/>
        <pt x="445" y="358" on="1"/>
        <pt x="445" y="299" on="1"/>
        <pt x="445" y="156" on="0"/>
        <pt x="426" y="38" on="0"/>
        <pt x="355" y="-8" on="0"/>
        <pt x="268" y="-8" on="1"/>
      </contour>
    </TTGlyph>
    <TTGlyph name="G_tilde.loclGUA" xMin="63" yMin="-8" xMax="423" yMax="888">
      <component glyphName="G" x="0" y="0" flags="0x0"/>
      <component glyphName="tildecomb.case" x="382" y="0" flags="0x0"/>
    </TTGlyph>
    <TTGlyph name="Gbreve" xMin="63" yMin="-8" xMax="423" yMax="888">
      <component glyphName="G" x="0" y="0" flags="0x0"/>
      <component glyphName="uni0306.case" x="353" y="0" flags="0x0"/>
    </TTGlyph>
    <TTGlyph name="Gbreve.ss01" xMin="63" yMin="-8" xMax="445" yMax="888">
      <component glyphName="G.ss01" x="0" y="0" flags="0x0"/>
      <component glyphName="uni0306.case" x="361" y="0" flags="0x0"/>
    </TTGlyph>
    <TTGlyph name="Gcaron" xMin="63" yMin="-8" xMax="423" yMax="888">
      <component glyphName="G" x="0" y="0" flags="0x0"/>
      <component glyphName="uni030C.case" x="353" y="0" flags="0x0"/>
    </TTGlyph>
    <TTGlyph name="Gcaron.ss01" xMin="63" yMin="-8" xMax="445" yMax="888">
      <component glyphName="G.ss01" x="0" y="0" flags="0x0"/>
      <component glyphName="uni030C.case" x="361" y="0" flags="0x0"/>
    </TTGlyph>
    <TTGlyph name="Gcircumflex" xMin="63" yMin="-8" xMax="423" yMax="888">
      <component glyphName="G" x="0" y="0" flags="0x0"/>
      <component glyphName="uni0302.case" x="353" y="0" flags="0x0"/>
    </TTGlyph>
    <TTGlyph name="Gcircumflex.ss01" xMin="63" yMin="-8" xMax="445" yMax="888">
      <component glyphName="G.ss01" x="0" y="0" flags="0x0"/>
      <component glyphName="uni0302.case" x="361" y="0" flags="0x0"/>
    </TTGlyph>
    <TTGlyph name="Gcommaaccent" xMin="63" yMin="-228" xMax="423" yMax="696">
      <component glyphName="G" x="0" y="0" flags="0x0"/>
      <component glyphName="uni0326" x="325" y="0" flags="0x0"/>
    </TTGlyph>
    <TTGlyph name="Gcommaaccent.ss01" xMin="63" yMin="-228" xMax="445" yMax="696">
      <component glyphName="G.ss01" x="0" y="0" flags="0x0"/>
      <component glyphName="uni0326" x="333" y="0" flags="0x0"/>
    </TTGlyph>
    <TTGlyph name="Gdotaccent" xMin="63" yMin="-8" xMax="423" yMax="875">
      <component glyphName="G" x="0" y="0" flags="0x0"/>
      <component glyphName="uni0307.case" x="285" y="0" flags="0x0"/>
    </TTGlyph>
    <TTGlyph name="Gdotaccent.ss01" xMin="63" yMin="-8" xMax="445" yMax="875">
      <component glyphName="G.ss01" x="0" y="0" flags="0x0"/>
      <component glyphName="uni0307.case" x="293" y="0" flags="0x0"/>
    </TTGlyph>
    <TTGlyph name="Gtilde.loclGUA.ss01" xMin="63" yMin="-8" xMax="445" yMax="888">
      <component glyphName="G.ss01" x="0" y="0" flags="0x0"/>
      <component glyphName="tildecomb.case" x="390" y="0" flags="0x0"/>
    </TTGlyph>
    <TTGlyph name="H" xMin="81" yMin="0" xMax="452" yMax="688">
      <contour>
        <pt x="416" y="331" on="1"/>
        <pt x="117" y="331" on="1"/>
        <pt x="117" y="0" on="1"/>
        <pt x="81" y="0" on="1"/>
        <pt x="81" y="688" on="1"/>
        <pt x="117" y="688" on="1"/>
        <pt x="117" y="365" on="1"/>
        <pt x="416" y="365" on="1"/>
        <pt x="416" y="688" on="1"/>
        <pt x="452" y="688" on="1"/>
        <pt x="452" y="0" on="1"/>
        <pt x="416" y="0" on="1"/>
      </contour>
    </TTGlyph>
    <TTGlyph name="Hbar" xMin="81" yMin="0" xMax="452" yMax="688">
      <contour>
        <pt x="452" y="688" on="1"/>
        <pt x="452" y="0" on="1"/>
        <pt x="416" y="0" on="1"/>
        <pt x="416" y="311" on="1"/>
        <pt x="117" y="311" on="1"/>
        <pt x="117" y="0" on="1"/>
        <pt x="81" y="0" on="1"/>
        <pt x="81" y="688" on="1"/>
        <pt x="117" y="688" on="1"/>
        <pt x="117" y="530" on="1"/>
        <pt x="416" y="530" on="1"/>
        <pt x="416" y="688" on="1"/>
      </contour>
      <contour>
        <pt x="416" y="345" on="1"/>
        <pt x="416" y="494" on="1"/>
        <pt x="117" y="494" on="1"/>
        <pt x="117" y="345" on="1"/>
      </contour>
    </TTGlyph>
    <TTGlyph name="Hcircumflex" xMin="81" yMin="0" xMax="452" yMax="888">
      <component glyphName="H" x="0" y="0" flags="0x0"/>
      <component glyphName="uni0302.case" x="376" y="0" flags="0x0"/>
    </TTGlyph>
    <TTGlyph name="I" xMin="85" yMin="0" xMax="121" yMax="688">
      <contour>
        <pt x="85" y="688" on="1"/>
        <pt x="121" y="688" on="1"/>
        <pt x="121" y="0" on="1"/>
        <pt x="85" y="0" on="1"/>
      </contour>
    </TTGlyph>
    <TTGlyph name="IJ" xMin="85" yMin="0" xMax="356" yMax="688">
      <component glyphName="I" x="0" y="0" flags="0x0"/>
      <component glyphName="J" x="206" y="0" flags="0x0"/>
    </TTGlyph>
    <TTGlyph name="Iacute" xMin="83" yMin="0" xMax="182" yMax="888">
      <component glyphName="I" x="0" y="0" flags="0x0"/>
      <component glyphName="acute" x="76" y="145" flags="0x4"/>
    </TTGlyph>
    <TTGlyph name="Iacute_J.loclNLD" xMin="85" yMin="0" xMax="421" yMax="888">
      <component glyphName="I" x="0" y="0" flags="0x0"/>
      <component glyphName="acutecomb.case" x="192" y="0" flags="0x0"/>
      <component glyphName="J" x="206" y="0" flags="0x0"/>
      <component glyphName="acutecomb.case" x="427" y="0" flags="0x0"/>
    </TTGlyph>
    <TTGlyph name="Ibreve" xMin="-1" yMin="0" xMax="206" yMax="888">
      <component glyphName="I" x="0" y="0" flags="0x0"/>
      <component glyphName="uni0306.case" x="212" y="0" flags="0x0"/>
    </TTGlyph>
    <TTGlyph name="Icircumflex" xMin="0" yMin="0" xMax="206" yMax="888">
      <component glyphName="I" x="0" y="0" flags="0x0"/>
      <component glyphName="circumflex" x="-7" y="145" flags="0x4"/>
    </TTGlyph>
    <TTGlyph name="Idieresis" xMin="-5" yMin="0" xMax="210" yMax="830">
      <component glyphName="I" x="0" y="0" flags="0x0"/>
      <component glyphName="dieresis" x="-29" y="100" flags="0x4"/>
    </TTGlyph>
    <TTGlyph name="Idotaccent" xMin="82" yMin="0" xMax="123" yMax="875">
      <component glyphName="I" x="0" y="0" flags="0x0"/>
      <component glyphName="uni0307.case" x="144" y="0" flags="0x0"/>
    </TTGlyph>
    <TTGlyph name="Igrave" xMin="25" yMin="0" xMax="124" yMax="888">
      <component glyphName="I" x="0" y="0" flags="0x0"/>
      <component glyphName="grave" x="18" y="145" flags="0x4"/>
    </TTGlyph>
    <TTGlyph name="Imacron" xMin="11" yMin="0" xMax="195" yMax="888">
      <component glyphName="I" x="0" y="0" flags="0x0"/>
      <component glyphName="uni0304.case" x="257" y="0" flags="0x0"/>
    </TTGlyph>
    <TTGlyph name="Iogonek" xMin="24" yMin="-196" xMax="122" yMax="688">
      <contour>
        <pt x="61" y="-196" on="0"/>
        <pt x="24" y="-157" on="0"/>
        <pt x="24" y="-124" on="1"/>
        <pt x="24" y="-95" on="0"/>
        <pt x="58" y="-27" on="0"/>
        <pt x="86" y="0" on="1"/>
        <pt x="85" y="0" on="1"/>
        <pt x="85" y="688" on="1"/>
        <pt x="121" y="688" on="1"/>
        <pt x="121" y="0" on="1"/>
        <pt x="99" y="-19" on="0"/>
        <pt x="58" y="-90" on="0"/>
        <pt x="58" y="-118" on="1"/>
        <pt x="58" y="-164" on="0"/>
        <pt x="105" y="-164" on="1"/>
        <pt x="122" y="-163" on="1"/>
        <pt x="122" y="-195" on="1"/>
        <pt x="113" y="-196" on="0"/>
        <pt x="100" y="-196" on="1"/>
      </contour>
    </TTGlyph>
    <TTGlyph name="Itilde" xMin="-30" yMin="0" xMax="235" yMax="888">
      <component glyphName="I" x="0" y="0" flags="0x0"/>
      <component glyphName="tildecomb.case" x="241" y="0" flags="0x0"/>
    </TTGlyph>
    <TTGlyph name="J" xMin="20" yMin="0" xMax="150" yMax="688">
      <contour>
        <pt x="71" y="36" on="0"/>
        <pt x="105" y="56" on="0"/>
        <pt x="114" y="127" on="0"/>
        <pt x="114" y="233" on="1"/>
        <pt x="114" y="688" on="1"/>
        <pt x="150" y="688" on="1"/>
        <pt x="150" y="237" on="1"/>
        <pt x="150" y="116" on="0"/>
        <pt x="136" y="28" on="0"/>
        <pt x="87" y="2" on="0"/>
        <pt x="20" y="0" on="1"/>
        <pt x="20" y="34" on="1"/>
      </contour>
    </TTGlyph>
    <TTGlyph name="Jcircumflex" xMin="20" yMin="0" xMax="235" yMax="888">
      <component glyphName="J" x="0" y="0" flags="0x0"/>
      <component glyphName="uni0302.case" x="241" y="0" flags="0x0"/>
    </TTGlyph>
    <TTGlyph name="K" xMin="81" yMin="0" xMax="454" yMax="688">
      <contour>
        <pt x="231" y="332" on="1"/>
        <pt x="117" y="332" on="1"/>
        <pt x="117" y="0" on="1"/>
        <pt x="81" y="0" on="1"/>
        <pt x="81" y="688" on="1"/>
        <pt x="117" y="688" on="1"/>
        <pt x="117" y="366" on="1"/>
        <pt x="231" y="366" on="1"/>
        <pt x="413" y="688" on="1"/>
        <pt x="452" y="688" on="1"/>
        <pt x="261" y="349" on="1"/>
        <pt x="454" y="0" on="1"/>
        <pt x="414" y="0" on="1"/>
      </contour>
    </TTGlyph>
    <TTGlyph name="Kcommaaccent" xMin="81" yMin="-228" xMax="454" yMax="688">
      <component glyphName="K" x="0" y="0" flags="0x0"/>
      <component glyphName="uni0326" x="320" y="0" flags="0x0"/>
    </TTGlyph>
    <TTGlyph name="L" xMin="81" yMin="0" xMax="364" yMax="688">
      <contour>
        <pt x="81" y="688" on="1"/>
        <pt x="118" y="688" on="1"/>
        <pt x="118" y="34" on="1"/>
        <pt x="364" y="34" on="1"/>
        <pt x="364" y="0" on="1"/>
        <pt x="81" y="0" on="1"/>
      </contour>
    </TTGlyph>
    <TTGlyph name="Lacute" xMin="81" yMin="0" xMax="364" yMax="888">
      <component glyphName="L" x="0" y="0" flags="0x0"/>
      <component glyphName="acutecomb.case" x="189" y="0" flags="0x0"/>
    </TTGlyph>
    <TTGlyph name="Lcaron" xMin="81" yMin="0" xMax="364" yMax="688">
      <component glyphName="L" x="0" y="0" flags="0x0"/>
      <component glyphName="caron.loclCSY" x="190" y="0" flags="0x0"/>
    </TTGlyph>
    <TTGlyph name="Lcommaaccent" xMin="81" yMin="-228" xMax="364" yMax="688">
      <component glyphName="L" x="0" y="0" flags="0x0"/>
      <component glyphName="uni0326" x="284" y="0" flags="0x0"/>
    </TTGlyph>
    <TTGlyph name="Ldot" xMin="81" yMin="0" xMax="364" yMax="688">
      <component glyphName="L" x="0" y="0" flags="0x0"/>
      <component glyphName="periodcentered" x="221" y="60" flags="0x4"/>
    </TTGlyph>
    <TTGlyph name="Lslash" xMin="29" yMin="0" xMax="364" yMax="688">
      <contour>
        <pt x="364" y="34" on="1"/>
        <pt x="364" y="0" on="1"/>
        <pt x="81" y="0" on="1"/>
        <pt x="81" y="297" on="1"/>
        <pt x="29" y="278" on="1"/>
        <pt x="29" y="312" on="1"/>
        <pt x="81" y="331" on="1"/>
        <pt x="81" y="688" on="1"/>
        <pt x="118" y="688" on="1"/>
        <pt x="118" y="344" on="1"/>
        <pt x="276" y="402" on="1"/>
        <pt x="276" y="368" on="1"/>
        <pt x="118" y="310" on="1"/>
        <pt x="118" y="34" on="1"/>
      </contour>
    </TTGlyph>
    <TTGlyph name="M" xMin="81" yMin="0" xMax="582" yMax="688">
      <contour>
        <pt x="546" y="603" on="1"/>
        <pt x="542" y="603" on="1"/>
        <pt x="350" y="0" on="1"/>
        <pt x="311" y="0" on="1"/>
        <pt x="120" y="603" on="1"/>
        <pt x="116" y="603" on="1"/>
        <pt x="116" y="0" on="1"/>
        <pt x="81" y="0" on="1"/>
        <pt x="81" y="688" on="1"/>
        <pt x="131" y="688" on="1"/>
        <pt x="329" y="66" on="1"/>
        <pt x="334" y="66" on="1"/>
        <pt x="533" y="688" on="1"/>
        <pt x="582" y="688" on="1"/>
        <pt x="582" y="0" on="1"/>
        <pt x="546" y="0" on="1"/>
      </contour>
    </TTGlyph>
    <TTGlyph name="N" xMin="81" yMin="0" xMax="452" yMax="688">
      <contour>
        <pt x="120" y="604" on="1"/>
        <pt x="116" y="604" on="1"/>
        <pt x="116" y="0" on="1"/>
        <pt x="81" y="0" on="1"/>
        <pt x="81" y="688" on="1"/>
        <pt x="122" y="688" on="1"/>
        <pt x="413" y="84" on="1"/>
        <pt x="417" y="84" on="1"/>
        <pt x="417" y="688" on="1"/>
        <pt x="452" y="688" on="1"/>
        <pt x="452" y="0" on="1"/>
        <pt x="412" y="0" on="1"/>
      </contour>
    </TTGlyph>
    <TTGlyph name="Nacute" xMin="81" yMin="0" xMax="452" yMax="888">
      <component glyphName="N" x="0" y="0" flags="0x0"/>
      <component glyphName="acutecomb.case" x="356" y="0" flags="0x0"/>
    </TTGlyph>
    <TTGlyph name="Nacute.loclPLK" xMin="81" yMin="0" xMax="452" yMax="888">
      <component glyphName="N" x="0" y="0" flags="0x0"/>
      <component glyphName="acute.case.loclPLK" x="244" y="0" flags="0x0"/>
    </TTGlyph>
    <TTGlyph name="Ncaron" xMin="81" yMin="0" xMax="452" yMax="888">
      <component glyphName="N" x="0" y="0" flags="0x0"/>
      <component glyphName="uni030C.case" x="376" y="0" flags="0x0"/>
    </TTGlyph>
    <TTGlyph name="Ncommaaccent" xMin="81" yMin="-228" xMax="452" yMax="688">
      <component glyphName="N" x="0" y="0" flags="0x0"/>
      <component glyphName="uni0326" x="348" y="0" flags="0x0"/>
    </TTGlyph>
    <TTGlyph name="Ntilde" xMin="81" yMin="0" xMax="452" yMax="856">
      <component glyphName="N" x="0" y="0" flags="0x0"/>
      <component glyphName="tilde" x="130" y="113" flags="0x4"/>
    </TTGlyph>
    <TTGlyph name="O" xMin="63" yMin="-8" xMax="463" yMax="696">
      <contour>
        <pt x="168" y="-8" on="0"/>
        <pt x="88" y="41" on="0"/>
        <pt x="63" y="179" on="0"/>
        <pt x="63" y="344" on="1"/>
        <pt x="63" y="509" on="0"/>
        <pt x="88" y="647" on="0"/>
        <pt x="168" y="696" on="0"/>
        <pt x="263" y="696" on="1"/>
        <pt x="358" y="696" on="0"/>
        <pt x="438" y="647" on="0"/>
        <pt x="463" y="508" on="0"/>
        <pt x="463" y="344" on="1"/>
        <pt x="463" y="180" on="0"/>
        <pt x="438" y="41" on="0"/>
        <pt x="358" y="-8" on="0"/>
        <pt x="263" y="-8" on="1"/>
      </contour>
      <contour>
        <pt x="343" y="26" on="0"/>
        <pt x="405" y="60" on="0"/>
        <pt x="427" y="185" on="0"/>
        <pt x="427" y="344" on="1"/>
        <pt x="427" y="503" on="0"/>
        <pt x="405" y="628" on="0"/>
        <pt x="343" y="662" on="0"/>
        <pt x="263" y="662" on="1"/>
        <pt x="183" y="662" on="0"/>
        <pt x="121" y="629" on="0"/>
        <pt x="99" y="503" on="0"/>
        <pt x="99" y="344" on="1"/>
        <pt x="99" y="185" on="0"/>
        <pt x="121" y="59" on="0"/>
        <pt x="183" y="26" on="0"/>
        <pt x="263" y="26" on="1"/>
      </contour>
    </TTGlyph>
    <TTGlyph name="OE" xMin="63" yMin="0" xMax="722" yMax="688">
      <contour>
        <pt x="168" y="0" on="0"/>
        <pt x="88" y="48" on="0"/>
        <pt x="63" y="183" on="0"/>
        <pt x="63" y="344" on="1"/>
        <pt x="63" y="505" on="0"/>
        <pt x="88" y="640" on="0"/>
        <pt x="168" y="688" on="0"/>
        <pt x="263" y="688" on="1"/>
        <pt x="722" y="688" on="1"/>
        <pt x="722" y="654" on="1"/>
        <pt x="463" y="654" on="1"/>
        <pt x="429" y="654" on="0"/>
        <pt x="403" y="658" on="1"/>
        <pt x="438" y="632" on="0"/>
        <pt x="462" y="501" on="0"/>
        <pt x="463" y="365" on="1"/>
        <pt x="688" y="365" on="1"/>
        <pt x="688" y="331" on="1"/>
        <pt x="463" y="331" on="1"/>
        <pt x="462" y="190" on="0"/>
        <pt x="439" y="56" on="0"/>
        <pt x="403" y="30" on="1"/>
        <pt x="427" y="34" on="0"/>
        <pt x="463" y="34" on="1"/>
        <pt x="722" y="34" on="1"/>
        <pt x="722" y="0" on="1"/>
        <pt x="263" y="0" on="1"/>
      </contour>
      <contour>
        <pt x="343" y="34" on="0"/>
        <pt x="405" y="67" on="0"/>
        <pt x="427" y="189" on="0"/>
        <pt x="427" y="344" on="1"/>
        <pt x="427" y="499" on="0"/>
        <pt x="405" y="621" on="0"/>
        <pt x="343" y="654" on="0"/>
        <pt x="263" y="654" on="1"/>
        <pt x="183" y="654" on="0"/>
        <pt x="121" y="621" on="0"/>
        <pt x="99" y="499" on="0"/>
        <pt x="99" y="344" on="1"/>
        <pt x="99" y="189" on="0"/>
        <pt x="121" y="67" on="0"/>
        <pt x="183" y="34" on="0"/>
        <pt x="263" y="34" on="1"/>
      </contour>
    </TTGlyph>
    <TTGlyph name="Oacute" xMin="63" yMin="-8" xMax="463" yMax="888">
      <component glyphName="O" x="0" y="0" flags="0x0"/>
      <component glyphName="acute" x="239" y="145" flags="0x4"/>
    </TTGlyph>
    <TTGlyph name="Oacute.loclPLK" xMin="63" yMin="-8" xMax="463" yMax="888">
      <component glyphName="O" x="0" y="0" flags="0x0"/>
      <component glyphName="acute.case.loclPLK" x="240" y="0" flags="0x0"/>
    </TTGlyph>
    <TTGlyph name="Obreve" xMin="63" yMin="-8" xMax="463" yMax="888">
      <component glyphName="O" x="0" y="0" flags="0x0"/>
      <component glyphName="uni0306.case" x="372" y="0" flags="0x0"/>
    </TTGlyph>
    <TTGlyph name="Ocircumflex" xMin="63" yMin="-8" xMax="463" yMax="888">
      <component glyphName="O" x="0" y="0" flags="0x0"/>
      <component glyphName="circumflex" x="153" y="145" flags="0x4"/>
    </TTGlyph>
    <TTGlyph name="Odieresis" xMin="63" yMin="-8" xMax="463" yMax="831">
      <component glyphName="O" x="0" y="0" flags="0x0"/>
      <component glyphName="dieresis" x="131" y="101" flags="0x4"/>
    </TTGlyph>
    <TTGlyph name="Ograve" xMin="63" yMin="-8" xMax="463" yMax="888">
      <component glyphName="O" x="0" y="0" flags="0x0"/>
      <component glyphName="grave" x="173" y="145" flags="0x4"/>
    </TTGlyph>
    <TTGlyph name="Ohorn" xMin="63" yMin="-8" xMax="478" yMax="786">
      <contour>
        <pt x="478" y="701" on="0"/>
        <pt x="451" y="662" on="0"/>
        <pt x="412" y="660" on="1"/>
        <pt x="444" y="630" on="0"/>
        <pt x="463" y="494" on="0"/>
        <pt x="463" y="344" on="1"/>
        <pt x="463" y="180" on="0"/>
        <pt x="438" y="41" on="0"/>
        <pt x="358" y="-8" on="0"/>
        <pt x="263" y="-8" on="1"/>
        <pt x="168" y="-8" on="0"/>
        <pt x="88" y="41" on="0"/>
        <pt x="63" y="179" on="0"/>
        <pt x="63" y="344" on="1"/>
        <pt x="63" y="509" on="0"/>
        <pt x="88" y="647" on="0"/>
        <pt x="168" y="696" on="0"/>
        <pt x="263" y="696" on="1"/>
        <pt x="324" y="696" on="0"/>
        <pt x="357" y="688" on="1"/>
        <pt x="400" y="688" on="1"/>
        <pt x="430" y="688" on="0"/>
        <pt x="446" y="712" on="0"/>
        <pt x="446" y="746" on="1"/>
        <pt x="446" y="786" on="1"/>
        <pt x="478" y="786" on="1"/>
        <pt x="478" y="753" on="1"/>
      </contour>
      <contour>
        <pt x="427" y="503" on="0"/>
        <pt x="405" y="628" on="0"/>
        <pt x="343" y="662" on="0"/>
        <pt x="263" y="662" on="1"/>
        <pt x="183" y="662" on="0"/>
        <pt x="121" y="629" on="0"/>
        <pt x="99" y="503" on="0"/>
        <pt x="99" y="344" on="1"/>
        <pt x="99" y="185" on="0"/>
        <pt x="121" y="59" on="0"/>
        <pt x="183" y="26" on="0"/>
        <pt x="263" y="26" on="1"/>
        <pt x="343" y="26" on="0"/>
        <pt x="405" y="60" on="0"/>
        <pt x="427" y="185" on="0"/>
        <pt x="427" y="344" on="1"/>
      </contour>
    </TTGlyph>
    <TTGlyph name="Ohungarumlaut" xMin="63" yMin="-8" xMax="463" yMax="879">
      <component glyphName="O" x="0" y="0" flags="0x0"/>
      <component glyphName="uni030B.case" x="438" y="0" flags="0x0"/>
    </TTGlyph>
    <TTGlyph name="Omacron" xMin="63" yMin="-8" xMax="463" yMax="888">
      <component glyphName="O" x="0" y="0" flags="0x0"/>
      <component glyphName="uni0304.case" x="417" y="0" flags="0x0"/>
    </TTGlyph>
    <TTGlyph name="Oslash" xMin="63" yMin="-55" xMax="463" yMax="743">
      <contour>
        <pt x="421" y="651" on="1"/>
        <pt x="447" y="618" on="0"/>
        <pt x="463" y="482" on="0"/>
        <pt x="463" y="344" on="1"/>
        <pt x="463" y="180" on="0"/>
        <pt x="438" y="41" on="0"/>
        <pt x="358" y="-8" on="0"/>
        <pt x="263" y="-8" on="1"/>
        <pt x="215" y="-8" on="0"/>
        <pt x="152" y="2" on="0"/>
        <pt x="131" y="15" on="1"/>
        <pt x="99" y="-55" on="1"/>
        <pt x="63" y="-55" on="1"/>
        <pt x="105" y="37" on="1"/>
        <pt x="79" y="69" on="0"/>
        <pt x="63" y="203" on="0"/>
        <pt x="63" y="344" on="1"/>
        <pt x="63" y="509" on="0"/>
        <pt x="88" y="647" on="0"/>
        <pt x="168" y="696" on="0"/>
        <pt x="263" y="696" on="1"/>
        <pt x="311" y="696" on="0"/>
        <pt x="374" y="686" on="0"/>
        <pt x="395" y="673" on="1"/>
        <pt x="427" y="743" on="1"/>
        <pt x="463" y="743" on="1"/>
      </contour>
      <contour>
        <pt x="99" y="222" on="0"/>
        <pt x="108" y="103" on="0"/>
        <pt x="122" y="73" on="1"/>
        <pt x="382" y="643" on="1"/>
        <pt x="365" y="655" on="0"/>
        <pt x="313" y="662" on="0"/>
        <pt x="263" y="662" on="1"/>
        <pt x="183" y="662" on="0"/>
        <pt x="121" y="629" on="0"/>
        <pt x="99" y="503" on="0"/>
        <pt x="99" y="344" on="1"/>
      </contour>
      <contour>
        <pt x="427" y="466" on="0"/>
        <pt x="418" y="585" on="0"/>
        <pt x="404" y="615" on="1"/>
        <pt x="144" y="44" on="1"/>
        <pt x="161" y="32" on="0"/>
        <pt x="213" y="26" on="0"/>
        <pt x="263" y="26" on="1"/>
        <pt x="343" y="26" on="0"/>
        <pt x="405" y="60" on="0"/>
        <pt x="427" y="185" on="0"/>
        <pt x="427" y="344" on="1"/>
      </contour>
    </TTGlyph>
    <TTGlyph name="Oslashacute" xMin="63" yMin="-55" xMax="463" yMax="888">
      <component glyphName="Oslash" x="0" y="0" flags="0x0"/>
      <component glyphName="acutecomb.case" x="352" y="0" flags="0x0"/>
    </TTGlyph>
    <TTGlyph name="Otilde" xMin="63" yMin="-8" xMax="463" yMax="856">
      <component glyphName="O" x="0" y="0" flags="0x0"/>
      <component glyphName="tilde" x="123" y="113" flags="0x4"/>
    </TTGlyph>
    <TTGlyph name="P" xMin="81" yMin="0" xMax="429" yMax="688">
      <contour>
        <pt x="81" y="688" on="1"/>
        <pt x="276" y="688" on="1"/>
        <pt x="345" y="688" on="0"/>
        <pt x="412" y="633" on="0"/>
        <pt x="429" y="549" on="0"/>
        <pt x="429" y="481" on="1"/>
        <pt x="429" y="415" on="0"/>
        <pt x="410" y="329" on="0"/>
        <pt x="344" y="274" on="0"/>
        <pt x="276" y="274" on="1"/>
        <pt x="117" y="274" on="1"/>
        <pt x="117" y="0" on="1"/>
        <pt x="81" y="0" on="1"/>
      </contour>
      <contour>
        <pt x="275" y="308" on="1"/>
        <pt x="328" y="308" on="0"/>
        <pt x="378" y="348" on="0"/>
        <pt x="393" y="419" on="0"/>
        <pt x="393" y="481" on="1"/>
        <pt x="393" y="543" on="0"/>
        <pt x="379" y="614" on="0"/>
        <pt x="328" y="654" on="0"/>
        <pt x="275" y="654" on="1"/>
        <pt x="117" y="654" on="1"/>
        <pt x="117" y="308" on="1"/>
      </contour>
    </TTGlyph>
    <TTGlyph name="Q" xMin="63" yMin="-115" xMax="472" yMax="696">
      <contour>
        <pt x="472" y="-113" on="1"/>
        <pt x="472" y="-115" on="1"/>
        <pt x="433" y="-115" on="1"/>
        <pt x="366" y="2" on="1"/>
        <pt x="334" y="-8" on="0"/>
        <pt x="263" y="-8" on="1"/>
        <pt x="168" y="-8" on="0"/>
        <pt x="88" y="41" on="0"/>
        <pt x="63" y="179" on="0"/>
        <pt x="63" y="344" on="1"/>
        <pt x="63" y="509" on="0"/>
        <pt x="88" y="647" on="0"/>
        <pt x="168" y="696" on="0"/>
        <pt x="263" y="696" on="1"/>
        <pt x="358" y="696" on="0"/>
        <pt x="438" y="647" on="0"/>
        <pt x="463" y="508" on="0"/>
        <pt x="463" y="344" on="1"/>
        <pt x="463" y="234" on="0"/>
        <pt x="454" y="110" on="0"/>
        <pt x="426" y="35" on="0"/>
        <pt x="398" y="17" on="1"/>
      </contour>
      <contour>
        <pt x="289" y="26" on="0"/>
        <pt x="334" y="28" on="0"/>
        <pt x="349" y="32" on="1"/>
        <pt x="243" y="218" on="1"/>
        <pt x="284" y="218" on="1"/>
        <pt x="381" y="46" on="1"/>
        <pt x="400" y="61" on="0"/>
        <pt x="420" y="128" on="0"/>
        <pt x="427" y="243" on="0"/>
        <pt x="427" y="344" on="1"/>
        <pt x="427" y="503" on="0"/>
        <pt x="405" y="628" on="0"/>
        <pt x="343" y="662" on="0"/>
        <pt x="263" y="662" on="1"/>
        <pt x="183" y="662" on="0"/>
        <pt x="121" y="629" on="0"/>
        <pt x="99" y="503" on="0"/>
        <pt x="99" y="344" on="1"/>
        <pt x="99" y="185" on="0"/>
        <pt x="121" y="59" on="0"/>
        <pt x="183" y="26" on="0"/>
        <pt x="263" y="26" on="1"/>
      </contour>
    </TTGlyph>
    <TTGlyph name="R" xMin="81" yMin="0" xMax="444" yMax="688">
      <contour>
        <pt x="405" y="0" on="1"/>
        <pt x="311" y="295" on="1"/>
        <pt x="300" y="294" on="0"/>
        <pt x="280" y="294" on="1"/>
        <pt x="117" y="294" on="1"/>
        <pt x="117" y="0" on="1"/>
        <pt x="81" y="0" on="1"/>
        <pt x="81" y="688" on="1"/>
        <pt x="285" y="688" on="1"/>
        <pt x="353" y="688" on="0"/>
        <pt x="418" y="635" on="0"/>
        <pt x="435" y="555" on="0"/>
        <pt x="435" y="491" on="1"/>
        <pt x="435" y="440" on="0"/>
        <pt x="424" y="370" on="0"/>
        <pt x="385" y="315" on="0"/>
        <pt x="346" y="303" on="1"/>
        <pt x="444" y="0" on="1"/>
      </contour>
      <contour>
        <pt x="332" y="328" on="0"/>
        <pt x="384" y="367" on="0"/>
        <pt x="399" y="434" on="0"/>
        <pt x="399" y="491" on="1"/>
        <pt x="399" y="549" on="0"/>
        <pt x="385" y="615" on="0"/>
        <pt x="335" y="654" on="0"/>
        <pt x="284" y="654" on="1"/>
        <pt x="117" y="654" on="1"/>
        <pt x="117" y="328" on="1"/>
        <pt x="279" y="328" on="1"/>
      </contour>
    </TTGlyph>
    <TTGlyph name="R.ss01" xMin="81" yMin="0" xMax="438" yMax="688">
      <contour>
        <pt x="438" y="0" on="1"/>
        <pt x="403" y="0" on="1"/>
        <pt x="396" y="152" on="1"/>
        <pt x="393" y="201" on="0"/>
        <pt x="380" y="257" on="0"/>
        <pt x="332" y="298" on="0"/>
        <pt x="281" y="298" on="1"/>
        <pt x="117" y="298" on="1"/>
        <pt x="117" y="0" on="1"/>
        <pt x="81" y="0" on="1"/>
        <pt x="81" y="688" on="1"/>
        <pt x="284" y="688" on="1"/>
        <pt x="344" y="688" on="0"/>
        <pt x="409" y="647" on="0"/>
        <pt x="435" y="567" on="0"/>
        <pt x="435" y="502" on="1"/>
        <pt x="435" y="413" on="0"/>
        <pt x="390" y="333" on="0"/>
        <pt x="342" y="320" on="1"/>
        <pt x="342" y="316" on="1"/>
        <pt x="372" y="308" on="0"/>
        <pt x="408" y="279" on="0"/>
        <pt x="428" y="221" on="0"/>
        <pt x="430" y="171" on="1"/>
      </contour>
      <contour>
        <pt x="351" y="332" on="0"/>
        <pt x="399" y="413" on="0"/>
        <pt x="399" y="493" on="1"/>
        <pt x="399" y="550" on="0"/>
        <pt x="385" y="615" on="0"/>
        <pt x="335" y="654" on="0"/>
        <pt x="282" y="654" on="1"/>
        <pt x="117" y="654" on="1"/>
        <pt x="117" y="332" on="1"/>
        <pt x="280" y="332" on="1"/>
      </contour>
    </TTGlyph>
    <TTGlyph name="Racute" xMin="81" yMin="0" xMax="444" yMax="888">
      <component glyphName="R" x="0" y="0" flags="0x0"/>
      <component glyphName="acutecomb.case" x="338" y="0" flags="0x0"/>
    </TTGlyph>
    <TTGlyph name="Racute.ss01" xMin="81" yMin="0" xMax="438" yMax="888">
      <component glyphName="R.ss01" x="0" y="0" flags="0x0"/>
      <component glyphName="acutecomb.case" x="340" y="0" flags="0x0"/>
    </TTGlyph>
    <TTGlyph name="Rcaron" xMin="81" yMin="0" xMax="444" yMax="888">
      <component glyphName="R" x="0" y="0" flags="0x0"/>
      <component glyphName="uni030C.case" x="358" y="0" flags="0x0"/>
    </TTGlyph>
    <TTGlyph name="Rcaron.ss01" xMin="81" yMin="0" xMax="438" yMax="888">
      <component glyphName="R.ss01" x="0" y="0" flags="0x0"/>
      <component glyphName="uni030C.case" x="360" y="0" flags="0x0"/>
    </TTGlyph>
    <TTGlyph name="Rcommaaccent" xMin="81" yMin="-228" xMax="444" yMax="688">
      <component glyphName="R" x="0" y="0" flags="0x0"/>
      <component glyphName="uni0326" x="330" y="0" flags="0x0"/>
    </TTGlyph>
    <TTGlyph name="Rcommaaccent.ss01" xMin="81" yMin="-228" xMax="438" yMax="688">
      <component glyphName="R.ss01" x="0" y="0" flags="0x0"/>
      <component glyphName="uni0326" x="332" y="0" flags="0x0"/>
    </TTGlyph>
    <TTGlyph name="S" xMin="50" yMin="-8" xMax="398" yMax="696">
      <contour>
        <pt x="190" y="-8" on="0"/>
        <pt x="98" y="-1" on="0"/>
        <pt x="64" y="4" on="1"/>
        <pt x="64" y="39" on="1"/>
        <pt x="99" y="34" on="0"/>
        <pt x="188" y="26" on="0"/>
        <pt x="217" y="26" on="1"/>
        <pt x="258" y="26" on="0"/>
        <pt x="311" y="38" on="0"/>
        <pt x="331" y="53" on="1"/>
        <pt x="350" y="67" on="0"/>
        <pt x="362" y="130" on="0"/>
        <pt x="362" y="183" on="1"/>
        <pt x="362" y="252" on="0"/>
        <pt x="353" y="303" on="0"/>
        <pt x="318" y="324" on="0"/>
        <pt x="270" y="331" on="1"/>
        <pt x="138" y="351" on="1"/>
        <pt x="96" y="357" on="0"/>
        <pt x="58" y="397" on="0"/>
        <pt x="50" y="456" on="0"/>
        <pt x="50" y="515" on="1"/>
        <pt x="50" y="612" on="0"/>
        <pt x="129" y="696" on="0"/>
        <pt x="227" y="696" on="1"/>
        <pt x="270" y="696" on="0"/>
        <pt x="352" y="689" on="0"/>
        <pt x="373" y="683" on="1"/>
        <pt x="373" y="650" on="1"/>
        <pt x="345" y="655" on="0"/>
        <pt x="266" y="662" on="0"/>
        <pt x="234" y="662" on="1"/>
        <pt x="185" y="662" on="0"/>
        <pt x="127" y="644" on="0"/>
        <pt x="112" y="625" on="1"/>
        <pt x="96" y="607" on="0"/>
        <pt x="86" y="555" on="0"/>
        <pt x="86" y="513" on="1"/>
        <pt x="86" y="459" on="0"/>
        <pt x="96" y="410" on="0"/>
        <pt x="124" y="390" on="0"/>
        <pt x="156" y="385" on="1"/>
        <pt x="278" y="366" on="1"/>
        <pt x="329" y="358" on="0"/>
        <pt x="380" y="332" on="0"/>
        <pt x="391" y="297" on="1"/>
        <pt x="396" y="283" on="0"/>
        <pt x="398" y="237" on="0"/>
        <pt x="398" y="188" on="1"/>
        <pt x="398" y="115" on="0"/>
        <pt x="369" y="31" on="0"/>
        <pt x="295" y="-8" on="0"/>
        <pt x="228" y="-8" on="1"/>
      </contour>
    </TTGlyph>
    <TTGlyph name="Sacute" xMin="50" yMin="-8" xMax="398" yMax="888">
      <component glyphName="S" x="0" y="0" flags="0x0"/>
      <component glyphName="acutecomb.case" x="313" y="0" flags="0x0"/>
    </TTGlyph>
    <TTGlyph name="Sacute.loclPLK" xMin="50" yMin="-8" xMax="398" yMax="888">
      <component glyphName="S" x="0" y="0" flags="0x0"/>
      <component glyphName="acute.case.loclPLK" x="201" y="0" flags="0x0"/>
    </TTGlyph>
    <TTGlyph name="Scaron" xMin="50" yMin="-8" xMax="398" yMax="888">
      <component glyphName="S" x="0" y="0" flags="0x0"/>
      <component glyphName="caron" x="119" y="145" flags="0x4"/>
    </TTGlyph>
    <TTGlyph name="Scedilla" xMin="50" yMin="-190" xMax="398" yMax="696">
      <contour>
        <pt x="398" y="116" on="0"/>
        <pt x="370" y="33" on="0"/>
        <pt x="300" y="-7" on="0"/>
        <pt x="236" y="-8" on="1"/>
        <pt x="194" y="-190" on="1"/>
        <pt x="154" y="-190" on="1"/>
        <pt x="154" y="-185" on="1"/>
        <pt x="207" y="-8" on="1"/>
        <pt x="132" y="-6" on="0"/>
        <pt x="64" y="4" on="1"/>
        <pt x="64" y="39" on="1"/>
        <pt x="99" y="34" on="0"/>
        <pt x="188" y="26" on="0"/>
        <pt x="217" y="26" on="1"/>
        <pt x="258" y="26" on="0"/>
        <pt x="311" y="38" on="0"/>
        <pt x="331" y="53" on="1"/>
        <pt x="350" y="67" on="0"/>
        <pt x="362" y="130" on="0"/>
        <pt x="362" y="183" on="1"/>
        <pt x="362" y="252" on="0"/>
        <pt x="353" y="303" on="0"/>
        <pt x="318" y="324" on="0"/>
        <pt x="270" y="331" on="1"/>
        <pt x="138" y="351" on="1"/>
        <pt x="96" y="357" on="0"/>
        <pt x="58" y="397" on="0"/>
        <pt x="50" y="456" on="0"/>
        <pt x="50" y="515" on="1"/>
        <pt x="50" y="612" on="0"/>
        <pt x="129" y="696" on="0"/>
        <pt x="227" y="696" on="1"/>
        <pt x="270" y="696" on="0"/>
        <pt x="352" y="689" on="0"/>
        <pt x="373" y="683" on="1"/>
        <pt x="373" y="650" on="1"/>
        <pt x="345" y="655" on="0"/>
        <pt x="266" y="662" on="0"/>
        <pt x="234" y="662" on="1"/>
        <pt x="185" y="662" on="0"/>
        <pt x="127" y="644" on="0"/>
        <pt x="112" y="625" on="1"/>
        <pt x="96" y="607" on="0"/>
        <pt x="86" y="555" on="0"/>
        <pt x="86" y="513" on="1"/>
        <pt x="86" y="459" on="0"/>
        <pt x="96" y="410" on="0"/>
        <pt x="124" y="390" on="0"/>
        <pt x="156" y="385" on="1"/>
        <pt x="278" y="366" on="1"/>
        <pt x="329" y="358" on="0"/>
        <pt x="380" y="332" on="0"/>
        <pt x="391" y="297" on="1"/>
        <pt x="396" y="283" on="0"/>
        <pt x="398" y="237" on="0"/>
        <pt x="398" y="188" on="1"/>
      </contour>
    </TTGlyph>
    <TTGlyph name="Scircumflex" xMin="50" yMin="-8" xMax="398" yMax="888">
      <component glyphName="S" x="0" y="0" flags="0x0"/>
      <component glyphName="uni0302.case" x="333" y="0" flags="0x0"/>
    </TTGlyph>
    <TTGlyph name="Scommaaccent" xMin="50" yMin="-228" xMax="398" yMax="696">
      <component glyphName="S" x="0" y="0" flags="0x0"/>
      <component glyphName="uni0326" x="305" y="0" flags="0x0"/>
    </TTGlyph>
    <TTGlyph name="T" xMin="23" yMin="0" xMax="391" yMax="688">
      <contour>
        <pt x="189" y="654" on="1"/>
        <pt x="23" y="654" on="1"/>
        <pt x="23" y="688" on="1"/>
        <pt x="391" y="688" on="1"/>
        <pt x="391" y="654" on="1"/>
        <pt x="225" y="654" on="1"/>
        <pt x="225" y="0" on="1"/>
        <pt x="189" y="0" on="1"/>
      </contour>
    </TTGlyph>
    <TTGlyph name="Tbar" xMin="23" yMin="0" xMax="391" yMax="688">
      <contour>
        <pt x="225" y="654" on="1"/>
        <pt x="225" y="367" on="1"/>
        <pt x="360" y="367" on="1"/>
        <pt x="360" y="335" on="1"/>
        <pt x="225" y="335" on="1"/>
        <pt x="225" y="0" on="1"/>
        <pt x="189" y="0" on="1"/>
        <pt x="189" y="335" on="1"/>
        <pt x="54" y="335" on="1"/>
        <pt x="54" y="367" on="1"/>
        <pt x="189" y="367" on="1"/>
        <pt x="189" y="654" on="1"/>
        <pt x="23" y="654" on="1"/>
        <pt x="23" y="688" on="1"/>
        <pt x="391" y="688" on="1"/>
        <pt x="391" y="654" on="1"/>
      </contour>
    </TTGlyph>
    <TTGlyph name="Tcaron" xMin="23" yMin="0" xMax="391" yMax="888">
      <component glyphName="T" x="0" y="0" flags="0x0"/>
      <component glyphName="uni030C.case" x="316" y="0" flags="0x0"/>
    </TTGlyph>
    <TTGlyph name="Thorn" xMin="81" yMin="0" xMax="429" yMax="688">
      <contour>
        <pt x="81" y="688" on="1"/>
        <pt x="117" y="688" on="1"/>
        <pt x="117" y="557" on="1"/>
        <pt x="276" y="557" on="1"/>
        <pt x="345" y="557" on="0"/>
        <pt x="412" y="502" on="0"/>
        <pt x="429" y="418" on="0"/>
        <pt x="429" y="350" on="1"/>
        <pt x="429" y="284" on="0"/>
        <pt x="410" y="198" on="0"/>
        <pt x="344" y="143" on="0"/>
        <pt x="276" y="143" on="1"/>
        <pt x="117" y="143" on="1"/>
        <pt x="117" y="0" on="1"/>
        <pt x="81" y="0" on="1"/>
      </contour>
      <contour>
        <pt x="275" y="177" on="1"/>
        <pt x="328" y="177" on="0"/>
        <pt x="378" y="217" on="0"/>
        <pt x="393" y="288" on="0"/>
        <pt x="393" y="350" on="1"/>
        <pt x="393" y="412" on="0"/>
        <pt x="379" y="483" on="0"/>
        <pt x="328" y="523" on="0"/>
        <pt x="275" y="523" on="1"/>
        <pt x="117" y="523" on="1"/>
        <pt x="117" y="177" on="1"/>
      </contour>
    </TTGlyph>
    <TTGlyph name="U" xMin="75" yMin="-8" xMax="446" yMax="688">
      <contour>
        <pt x="446" y="688" on="1"/>
        <pt x="446" y="294" on="1"/>
        <pt x="446" y="162" on="0"/>
        <pt x="424" y="42" on="0"/>
        <pt x="347" y="-8" on="0"/>
        <pt x="261" y="-8" on="1"/>
        <pt x="174" y="-8" on="0"/>
        <pt x="98" y="42" on="0"/>
        <pt x="75" y="162" on="0"/>
        <pt x="75" y="294" on="1"/>
        <pt x="75" y="688" on="1"/>
        <pt x="111" y="688" on="1"/>
        <pt x="111" y="264" on="1"/>
        <pt x="111" y="158" on="0"/>
        <pt x="128" y="65" on="0"/>
        <pt x="190" y="26" on="0"/>
        <pt x="261" y="26" on="1"/>
        <pt x="332" y="26" on="0"/>
        <pt x="393" y="65" on="0"/>
        <pt x="410" y="158" on="0"/>
        <pt x="410" y="264" on="1"/>
        <pt x="410" y="688" on="1"/>
      </contour>
    </TTGlyph>
    <TTGlyph name="Uacute" xMin="75" yMin="-8" xMax="446" yMax="888">
      <component glyphName="U" x="0" y="0" flags="0x0"/>
      <component glyphName="acute" x="237" y="145" flags="0x4"/>
    </TTGlyph>
    <TTGlyph name="Ubreve" xMin="75" yMin="-8" xMax="446" yMax="888">
      <component glyphName="U" x="0" y="0" flags="0x0"/>
      <component glyphName="uni0306.case" x="370" y="0" flags="0x0"/>
    </TTGlyph>
    <TTGlyph name="Ucircumflex" xMin="75" yMin="-8" xMax="446" yMax="888">
      <component glyphName="U" x="0" y="0" flags="0x0"/>
      <component glyphName="circumflex" x="151" y="145" flags="0x4"/>
    </TTGlyph>
    <TTGlyph name="Udieresis" xMin="75" yMin="-8" xMax="446" yMax="831">
      <component glyphName="U" x="0" y="0" flags="0x0"/>
      <component glyphName="dieresis" x="129" y="101" flags="0x4"/>
    </TTGlyph>
    <TTGlyph name="Ugrave" xMin="75" yMin="-8" xMax="446" yMax="888">
      <component glyphName="U" x="0" y="0" flags="0x0"/>
      <component glyphName="grave" x="183" y="145" flags="0x4"/>
    </TTGlyph>
    <TTGlyph name="Uhorn" xMin="75" yMin="-8" xMax="537" yMax="786">
      <contour>
        <pt x="537" y="786" on="1"/>
        <pt x="537" y="753" on="1"/>
        <pt x="537" y="715" on="0"/>
        <pt x="524" y="676" on="0"/>
        <pt x="491" y="660" on="0"/>
        <pt x="459" y="660" on="1"/>
        <pt x="446" y="660" on="1"/>
        <pt x="446" y="294" on="1"/>
        <pt x="446" y="162" on="0"/>
        <pt x="424" y="42" on="0"/>
        <pt x="347" y="-8" on="0"/>
        <pt x="261" y="-8" on="1"/>
        <pt x="174" y="-8" on="0"/>
        <pt x="98" y="42" on="0"/>
        <pt x="75" y="162" on="0"/>
        <pt x="75" y="294" on="1"/>
        <pt x="75" y="688" on="1"/>
        <pt x="111" y="688" on="1"/>
        <pt x="111" y="264" on="1"/>
        <pt x="111" y="158" on="0"/>
        <pt x="128" y="65" on="0"/>
        <pt x="190" y="26" on="0"/>
        <pt x="261" y="26" on="1"/>
        <pt x="332" y="26" on="0"/>
        <pt x="393" y="65" on="0"/>
        <pt x="410" y="158" on="0"/>
        <pt x="410" y="264" on="1"/>
        <pt x="410" y="688" on="1"/>
        <pt x="459" y="688" on="1"/>
        <pt x="489" y="688" on="0"/>
        <pt x="505" y="712" on="0"/>
        <pt x="505" y="746" on="1"/>
        <pt x="505" y="786" on="1"/>
      </contour>
    </TTGlyph>
    <TTGlyph name="Uhungarumlaut" xMin="75" yMin="-8" xMax="446" yMax="879">
      <component glyphName="U" x="0" y="0" flags="0x0"/>
      <component glyphName="uni030B.case" x="436" y="0" flags="0x0"/>
    </TTGlyph>
    <TTGlyph name="Umacron" xMin="75" yMin="-8" xMax="446" yMax="888">
      <component glyphName="U" x="0" y="0" flags="0x0"/>
      <component glyphName="uni0304.case" x="415" y="0" flags="0x0"/>
    </TTGlyph>
    <TTGlyph name="Uogonek" xMin="75" yMin="-196" xMax="446" yMax="688">
      <contour>
        <pt x="446" y="688" on="1"/>
        <pt x="446" y="294" on="1"/>
        <pt x="446" y="205" on="0"/>
        <pt x="438" y="100" on="0"/>
        <pt x="411" y="33" on="0"/>
        <pt x="385" y="16" on="1"/>
        <pt x="352" y="-5" on="0"/>
        <pt x="304" y="-82" on="0"/>
        <pt x="304" y="-118" on="1"/>
        <pt x="304" y="-164" on="0"/>
        <pt x="351" y="-164" on="1"/>
        <pt x="368" y="-163" on="1"/>
        <pt x="368" y="-195" on="1"/>
        <pt x="359" y="-196" on="0"/>
        <pt x="346" y="-196" on="1"/>
        <pt x="307" y="-196" on="0"/>
        <pt x="270" y="-157" on="0"/>
        <pt x="270" y="-124" on="1"/>
        <pt x="270" y="-96" on="0"/>
        <pt x="302" y="-31" on="0"/>
        <pt x="330" y="-2" on="1"/>
        <pt x="300" y="-8" on="0"/>
        <pt x="261" y="-8" on="1"/>
        <pt x="174" y="-8" on="0"/>
        <pt x="98" y="42" on="0"/>
        <pt x="75" y="162" on="0"/>
        <pt x="75" y="294" on="1"/>
        <pt x="75" y="688" on="1"/>
        <pt x="111" y="688" on="1"/>
        <pt x="111" y="264" on="1"/>
        <pt x="111" y="158" on="0"/>
        <pt x="128" y="65" on="0"/>
        <pt x="190" y="26" on="0"/>
        <pt x="261" y="26" on="1"/>
        <pt x="332" y="26" on="0"/>
        <pt x="393" y="65" on="0"/>
        <pt x="410" y="158" on="0"/>
        <pt x="410" y="264" on="1"/>
        <pt x="410" y="688" on="1"/>
      </contour>
    </TTGlyph>
    <TTGlyph name="Uring" xMin="75" yMin="-8" xMax="446" yMax="909">
      <component glyphName="U" x="0" y="0" flags="0x0"/>
      <component glyphName="uni030A.case" x="362" y="0" flags="0x0"/>
    </TTGlyph>
    <TTGlyph name="Utilde" xMin="75" yMin="-8" xMax="446" yMax="888">
      <component glyphName="U" x="0" y="0" flags="0x0"/>
      <component glyphName="tildecomb.case" x="399" y="0" flags="0x0"/>
    </TTGlyph>
    <TTGlyph name="V" xMin="16" yMin="0" xMax="442" yMax="688">
      <contour>
        <pt x="16" y="688" on="1"/>
        <pt x="55" y="688" on="1"/>
        <pt x="228" y="66" on="1"/>
        <pt x="233" y="66" on="1"/>
        <pt x="406" y="688" on="1"/>
        <pt x="442" y="688" on="1"/>
        <pt x="249" y="0" on="1"/>
        <pt x="210" y="0" on="1"/>
      </contour>
    </TTGlyph>
    <TTGlyph name="W" xMin="21" yMin="0" xMax="664" yMax="688">
      <contour>
        <pt x="344" y="614" on="1"/>
        <pt x="340" y="614" on="1"/>
        <pt x="202" y="0" on="1"/>
        <pt x="163" y="0" on="1"/>
        <pt x="21" y="688" on="1"/>
        <pt x="59" y="688" on="1"/>
        <pt x="181" y="74" on="1"/>
        <pt x="187" y="74" on="1"/>
        <pt x="322" y="688" on="1"/>
        <pt x="364" y="688" on="1"/>
        <pt x="500" y="74" on="1"/>
        <pt x="505" y="74" on="1"/>
        <pt x="628" y="688" on="1"/>
        <pt x="664" y="688" on="1"/>
        <pt x="522" y="0" on="1"/>
        <pt x="483" y="0" on="1"/>
      </contour>
    </TTGlyph>
    <TTGlyph name="Wacute" xMin="21" yMin="0" xMax="664" yMax="888">
      <component glyphName="W" x="0" y="0" flags="0x0"/>
      <component glyphName="acutecomb.case" x="432" y="0" flags="0x0"/>
    </TTGlyph>
    <TTGlyph name="Wcircumflex" xMin="21" yMin="0" xMax="664" yMax="888">
      <component glyphName="W" x="0" y="0" flags="0x0"/>
      <component glyphName="uni0302.case" x="452" y="0" flags="0x0"/>
    </TTGlyph>
    <TTGlyph name="Wdieresis" xMin="21" yMin="0" xMax="664" yMax="875">
      <component glyphName="W" x="0" y="0" flags="0x0"/>
      <component glyphName="uni0308.case" x="474" y="0" flags="0x0"/>
    </TTGlyph>
    <TTGlyph name="Wgrave" xMin="21" yMin="0" xMax="664" yMax="888">
      <component glyphName="W" x="0" y="0" flags="0x0"/>
      <component glyphName="gravecomb.case" x="367" y="0" flags="0x0"/>
    </TTGlyph>
    <TTGlyph name="X" xMin="23" yMin="0" xMax="457" yMax="688">
      <contour>
        <pt x="242" y="309" on="1"/>
        <pt x="237" y="309" on="1"/>
        <pt x="63" y="0" on="1"/>
        <pt x="23" y="0" on="1"/>
        <pt x="218" y="346" on="1"/>
        <pt x="26" y="688" on="1"/>
        <pt x="67" y="688" on="1"/>
        <pt x="239" y="382" on="1"/>
        <pt x="244" y="382" on="1"/>
        <pt x="415" y="688" on="1"/>
        <pt x="455" y="688" on="1"/>
        <pt x="263" y="347" on="1"/>
        <pt x="457" y="0" on="1"/>
        <pt x="416" y="0" on="1"/>
      </contour>
    </TTGlyph>
    <TTGlyph name="Y" xMin="7" yMin="0" xMax="415" yMax="688">
      <contour>
        <pt x="192" y="281" on="1"/>
        <pt x="7" y="688" on="1"/>
        <pt x="46" y="688" on="1"/>
        <pt x="209" y="329" on="1"/>
        <pt x="214" y="329" on="1"/>
        <pt x="377" y="688" on="1"/>
        <pt x="415" y="688" on="1"/>
        <pt x="228" y="281" on="1"/>
        <pt x="228" y="0" on="1"/>
        <pt x="192" y="0" on="1"/>
      </contour>
    </TTGlyph>
    <TTGlyph name="Y.loclGUA" xMin="25" yMin="0" xMax="396" yMax="688">
      <contour>
        <pt x="396" y="688" on="1"/>
        <pt x="396" y="504" on="1"/>
        <pt x="396" y="377" on="0"/>
        <pt x="375" y="258" on="0"/>
        <pt x="306" y="205" on="0"/>
        <pt x="228" y="202" on="1"/>
        <pt x="228" y="0" on="1"/>
        <pt x="192" y="0" on="1"/>
        <pt x="192" y="202" on="1"/>
        <pt x="115" y="205" on="0"/>
        <pt x="45" y="258" on="0"/>
        <pt x="25" y="377" on="0"/>
        <pt x="25" y="504" on="1"/>
        <pt x="25" y="688" on="1"/>
        <pt x="61" y="688" on="1"/>
        <pt x="61" y="474" on="1"/>
        <pt x="61" y="368" on="0"/>
        <pt x="78" y="275" on="0"/>
        <pt x="139" y="236" on="0"/>
        <pt x="210" y="236" on="1"/>
        <pt x="281" y="236" on="0"/>
        <pt x="343" y="275" on="0"/>
        <pt x="360" y="368" on="0"/>
        <pt x="360" y="474" on="1"/>
        <pt x="360" y="688" on="1"/>
      </contour>
    </TTGlyph>
    <TTGlyph name="Yacute" xMin="7" yMin="0" xMax="415" yMax="888">
      <component glyphName="Y" x="0" y="0" flags="0x0"/>
      <component glyphName="acute" x="192" y="145" flags="0x4"/>
    </TTGlyph>
    <TTGlyph name="Yacute.loclGUA" xMin="25" yMin="0" xMax="396" yMax="888">
      <component glyphName="Y.loclGUA" x="0" y="0" flags="0x0"/>
      <component glyphName="acutecomb.case" x="299" y="0" flags="0x0"/>
    </TTGlyph>
    <TTGlyph name="Ycircumflex" xMin="7" yMin="0" xMax="415" yMax="888">
      <component glyphName="Y" x="0" y="0" flags="0x0"/>
      <component glyphName="uni0302.case" x="320" y="0" flags="0x0"/>
    </TTGlyph>
    <TTGlyph name="Ycircumflex.loclGUA" xMin="25" yMin="0" xMax="396" yMax="888">
      <component glyphName="Y.loclGUA" x="0" y="0" flags="0x0"/>
      <component glyphName="uni0302.case" x="319" y="0" flags="0x0"/>
    </TTGlyph>
    <TTGlyph name="Ydieresis" xMin="7" yMin="0" xMax="415" yMax="831">
      <component glyphName="Y" x="0" y="0" flags="0x0"/>
      <component glyphName="dieresis" x="81" y="101" flags="0x4"/>
    </TTGlyph>
    <TTGlyph name="Ydieresis.loclGUA" xMin="25" yMin="0" xMax="396" yMax="875">
      <component glyphName="Y.loclGUA" x="0" y="0" flags="0x0"/>
      <component glyphName="uni0308.case" x="341" y="0" flags="0x0"/>
    </TTGlyph>
    <TTGlyph name="Ygrave" xMin="7" yMin="0" xMax="415" yMax="888">
      <component glyphName="Y" x="0" y="0" flags="0x0"/>
      <component glyphName="gravecomb.case" x="235" y="0" flags="0x0"/>
    </TTGlyph>
    <TTGlyph name="Ygrave.loclGUA" xMin="25" yMin="0" xMax="396" yMax="888">
      <component glyphName="Y.loclGUA" x="0" y="0" flags="0x0"/>
      <component glyphName="gravecomb.case" x="234" y="0" flags="0x0"/>
    </TTGlyph>
    <TTGlyph name="Z" xMin="33" yMin="0" xMax="389" yMax="688">
      <contour>
        <pt x="33" y="32" on="1"/>
        <pt x="342" y="654" on="1"/>
        <pt x="41" y="654" on="1"/>
        <pt x="41" y="688" on="1"/>
        <pt x="383" y="688" on="1"/>
        <pt x="383" y="656" on="1"/>
        <pt x="75" y="34" on="1"/>
        <pt x="389" y="34" on="1"/>
        <pt x="389" y="0" on="1"/>
        <pt x="33" y="0" on="1"/>
      </contour>
    </TTGlyph>
    <TTGlyph name="Zacute" xMin="33" yMin="0" xMax="389" yMax="888">
      <component glyphName="Z" x="0" y="0" flags="0x0"/>
      <component glyphName="acutecomb.case" x="299" y="0" flags="0x0"/>
    </TTGlyph>
    <TTGlyph name="Zacute.loclPLK" xMin="33" yMin="0" xMax="389" yMax="888">
      <component glyphName="Z" x="0" y="0" flags="0x0"/>
      <component glyphName="acute.case.loclPLK" x="187" y="0" flags="0x0"/>
    </TTGlyph>
    <TTGlyph name="Zcaron" xMin="33" yMin="0" xMax="389" yMax="888">
      <component glyphName="Z" x="0" y="0" flags="0x0"/>
      <component glyphName="caron" x="106" y="145" flags="0x4"/>
    </TTGlyph>
    <TTGlyph name="Zdotaccent" xMin="33" yMin="0" xMax="389" yMax="875">
      <component glyphName="Z" x="0" y="0" flags="0x0"/>
      <component glyphName="uni0307.case" x="251" y="0" flags="0x0"/>
    </TTGlyph>
    <TTGlyph name="a" xMin="41" yMin="-8" xMax="359" yMax="518">
      <contour>
        <pt x="132" y="-8" on="0"/>
        <pt x="71" y="15" on="0"/>
        <pt x="41" y="78" on="0"/>
        <pt x="41" y="138" on="1"/>
        <pt x="41" y="195" on="0"/>
        <pt x="63" y="257" on="0"/>
        <pt x="117" y="283" on="0"/>
        <pt x="166" y="283" on="1"/>
        <pt x="199" y="283" on="0"/>
        <pt x="324" y="278" on="1"/>
        <pt x="324" y="324" on="1"/>
        <pt x="324" y="400" on="0"/>
        <pt x="305" y="465" on="0"/>
        <pt x="253" y="486" on="0"/>
        <pt x="193" y="486" on="1"/>
        <pt x="167" y="486" on="0"/>
        <pt x="92" y="478" on="0"/>
        <pt x="67" y="473" on="1"/>
        <pt x="67" y="506" on="1"/>
        <pt x="129" y="518" on="0"/>
        <pt x="203" y="518" on="1"/>
        <pt x="268" y="518" on="0"/>
        <pt x="334" y="487" on="0"/>
        <pt x="359" y="409" on="0"/>
        <pt x="359" y="330" on="1"/>
        <pt x="359" y="0" on="1"/>
        <pt x="332" y="0" on="1"/>
        <pt x="328" y="78" on="1"/>
        <pt x="324" y="78" on="1"/>
        <pt x="311" y="25" on="0"/>
        <pt x="237" y="-8" on="0"/>
        <pt x="185" y="-8" on="1"/>
      </contour>
      <contour>
        <pt x="234" y="24" on="0"/>
        <pt x="294" y="46" on="0"/>
        <pt x="307" y="84" on="1"/>
        <pt x="316" y="113" on="0"/>
        <pt x="324" y="171" on="0"/>
        <pt x="324" y="210" on="1"/>
        <pt x="324" y="251" on="1"/>
        <pt x="174" y="251" on="1"/>
        <pt x="133" y="251" on="0"/>
        <pt x="92" y="235" on="0"/>
        <pt x="76" y="188" on="0"/>
        <pt x="76" y="138" on="1"/>
        <pt x="76" y="90" on="0"/>
        <pt x="94" y="42" on="0"/>
        <pt x="140" y="24" on="0"/>
        <pt x="185" y="24" on="1"/>
      </contour>
    </TTGlyph>
    <TTGlyph name="aacute" xMin="41" yMin="-8" xMax="359" yMax="743">
      <component glyphName="a" x="0" y="0" flags="0x0"/>
      <component glyphName="acute" x="186" y="0" flags="0x0"/>
    </TTGlyph>
    <TTGlyph name="abreve" xMin="41" yMin="-8" xMax="359" yMax="743">
      <component glyphName="a" x="0" y="0" flags="0x0"/>
      <component glyphName="uni0306" x="324" y="0" flags="0x0"/>
    </TTGlyph>
    <TTGlyph name="acircumflex" xMin="41" yMin="-8" xMax="359" yMax="743">
      <component glyphName="a" x="0" y="0" flags="0x0"/>
      <component glyphName="circumflex" x="106" y="0" flags="0x0"/>
    </TTGlyph>
    <TTGlyph name="acute" xMin="7" yMin="605" xMax="106" yMax="743">
      <contour>
        <pt x="7" y="610" on="1"/>
        <pt x="64" y="743" on="1"/>
        <pt x="106" y="743" on="1"/>
        <pt x="106" y="738" on="1"/>
        <pt x="31" y="605" on="1"/>
        <pt x="7" y="605" on="1"/>
      </contour>
    </TTGlyph>
    <TTGlyph name="acute.case.loclPLK" xMin="7" yMin="750" xMax="76" yMax="888">
      <contour>
        <pt x="7" y="755" on="1"/>
        <pt x="34" y="888" on="1"/>
        <pt x="76" y="888" on="1"/>
        <pt x="76" y="883" on="1"/>
        <pt x="31" y="750" on="1"/>
        <pt x="7" y="750" on="1"/>
      </contour>
    </TTGlyph>
    <TTGlyph name="acute.loclPLK" xMin="7" yMin="605" xMax="76" yMax="743">
      <contour>
        <pt x="7" y="610" on="1"/>
        <pt x="34" y="743" on="1"/>
        <pt x="76" y="743" on="1"/>
        <pt x="76" y="738" on="1"/>
        <pt x="31" y="605" on="1"/>
        <pt x="7" y="605" on="1"/>
      </contour>
    </TTGlyph>
    <TTGlyph name="acutecomb" xMin="-105" yMin="605" xMax="-6" yMax="743">
      <contour>
        <pt x="-105" y="610" on="1"/>
        <pt x="-48" y="743" on="1"/>
        <pt x="-6" y="743" on="1"/>
        <pt x="-6" y="738" on="1"/>
        <pt x="-81" y="605" on="1"/>
        <pt x="-105" y="605" on="1"/>
      </contour>
    </TTGlyph>
    <TTGlyph name="acutecomb.case" xMin="-105" yMin="750" xMax="-6" yMax="888">
      <contour>
        <pt x="-105" y="755" on="1"/>
        <pt x="-48" y="888" on="1"/>
        <pt x="-6" y="888" on="1"/>
        <pt x="-6" y="883" on="1"/>
        <pt x="-81" y="750" on="1"/>
        <pt x="-105" y="750" on="1"/>
      </contour>
    </TTGlyph>
    <TTGlyph name="adieresis" xMin="41" yMin="-8" xMax="359" yMax="730">
      <component glyphName="a" x="0" y="0" flags="0x0"/>
      <component glyphName="dieresis" x="85" y="0" flags="0x0"/>
    </TTGlyph>
    <TTGlyph name="ae" xMin="41" yMin="-8" xMax="645" yMax="518">
      <contour>
        <pt x="645" y="247" on="1"/>
        <pt x="359" y="247" on="1"/>
        <pt x="359" y="149" on="0"/>
        <pt x="377" y="60" on="0"/>
        <pt x="434" y="24" on="0"/>
        <pt x="498" y="24" on="1"/>
        <pt x="529" y="24" on="0"/>
        <pt x="604" y="32" on="0"/>
        <pt x="630" y="38" on="1"/>
        <pt x="630" y="5" on="1"/>
        <pt x="608" y="0" on="0"/>
        <pt x="531" y="-8" on="0"/>
        <pt x="494" y="-8" on="1"/>
        <pt x="423" y="-8" on="0"/>
        <pt x="352" y="33" on="0"/>
        <pt x="338" y="86" on="1"/>
        <pt x="321" y="28" on="0"/>
        <pt x="242" y="-8" on="0"/>
        <pt x="185" y="-8" on="1"/>
        <pt x="132" y="-8" on="0"/>
        <pt x="71" y="15" on="0"/>
        <pt x="41" y="78" on="0"/>
        <pt x="41" y="138" on="1"/>
        <pt x="41" y="193" on="0"/>
        <pt x="63" y="253" on="0"/>
        <pt x="117" y="279" on="0"/>
        <pt x="166" y="279" on="1"/>
        <pt x="324" y="279" on="1"/>
        <pt x="324" y="324" on="1"/>
        <pt x="324" y="400" on="0"/>
        <pt x="305" y="465" on="0"/>
        <pt x="253" y="486" on="0"/>
        <pt x="193" y="486" on="1"/>
        <pt x="167" y="486" on="0"/>
        <pt x="92" y="478" on="0"/>
        <pt x="67" y="473" on="1"/>
        <pt x="67" y="506" on="1"/>
        <pt x="129" y="518" on="0"/>
        <pt x="203" y="518" on="1"/>
        <pt x="266" y="518" on="0"/>
        <pt x="330" y="489" on="0"/>
        <pt x="344" y="450" on="1"/>
        <pt x="360" y="487" on="0"/>
        <pt x="429" y="518" on="0"/>
        <pt x="494" y="518" on="1"/>
        <pt x="565" y="518" on="0"/>
        <pt x="628" y="474" on="0"/>
        <pt x="645" y="372" on="0"/>
        <pt x="645" y="260" on="1"/>
      </contour>
      <contour>
        <pt x="429" y="486" on="0"/>
        <pt x="376" y="457" on="0"/>
        <pt x="359" y="375" on="0"/>
        <pt x="359" y="279" on="1"/>
        <pt x="610" y="279" on="1"/>
        <pt x="610" y="296" on="1"/>
        <pt x="610" y="382" on="0"/>
        <pt x="590" y="461" on="0"/>
        <pt x="542" y="486" on="0"/>
        <pt x="492" y="486" on="1"/>
      </contour>
      <contour>
        <pt x="324" y="247" on="1"/>
        <pt x="174" y="247" on="1"/>
        <pt x="132" y="247" on="0"/>
        <pt x="92" y="232" on="0"/>
        <pt x="76" y="186" on="0"/>
        <pt x="76" y="138" on="1"/>
        <pt x="76" y="90" on="0"/>
        <pt x="94" y="42" on="0"/>
        <pt x="140" y="24" on="0"/>
        <pt x="185" y="24" on="1"/>
        <pt x="234" y="24" on="0"/>
        <pt x="295" y="47" on="0"/>
        <pt x="308" y="87" on="1"/>
        <pt x="324" y="136" on="0"/>
        <pt x="324" y="210" on="1"/>
      </contour>
    </TTGlyph>
    <TTGlyph name="aeacute" xMin="41" yMin="-8" xMax="645" yMax="743">
      <component glyphName="ae" x="0" y="0" flags="0x0"/>
      <component glyphName="acutecomb" x="440" y="0" flags="0x0"/>
    </TTGlyph>
    <TTGlyph name="agrave" xMin="41" yMin="-8" xMax="359" yMax="743">
      <component glyphName="a" x="0" y="0" flags="0x0"/>
      <component glyphName="grave" x="132" y="0" flags="0x0"/>
    </TTGlyph>
    <TTGlyph name="amacron" xMin="41" yMin="-8" xMax="359" yMax="743">
      <component glyphName="a" x="0" y="0" flags="0x0"/>
      <component glyphName="uni0304" x="369" y="0" flags="0x0"/>
    </TTGlyph>
    <TTGlyph name="ampersand" xMin="56" yMin="-8" xMax="504" yMax="696">
      <contour>
        <pt x="504" y="366" on="1"/>
        <pt x="504" y="332" on="1"/>
        <pt x="414" y="332" on="1"/>
        <pt x="414" y="8" on="1"/>
        <pt x="394" y="3" on="0"/>
        <pt x="306" y="-8" on="0"/>
        <pt x="265" y="-8" on="1"/>
        <pt x="176" y="-8" on="0"/>
        <pt x="86" y="35" on="0"/>
        <pt x="56" y="115" on="0"/>
        <pt x="56" y="184" on="1"/>
        <pt x="56" y="264" on="0"/>
        <pt x="101" y="334" on="0"/>
        <pt x="150" y="349" on="1"/>
        <pt x="150" y="353" on="1"/>
        <pt x="104" y="368" on="0"/>
        <pt x="60" y="442" on="0"/>
        <pt x="60" y="515" on="1"/>
        <pt x="60" y="577" on="0"/>
        <pt x="92" y="654" on="0"/>
        <pt x="181" y="696" on="0"/>
        <pt x="264" y="696" on="1"/>
        <pt x="297" y="696" on="0"/>
        <pt x="381" y="687" on="0"/>
        <pt x="411" y="680" on="1"/>
        <pt x="411" y="648" on="1"/>
        <pt x="378" y="655" on="0"/>
        <pt x="304" y="664" on="0"/>
        <pt x="280" y="664" on="1"/>
        <pt x="199" y="664" on="0"/>
        <pt x="121" y="634" on="0"/>
        <pt x="95" y="571" on="0"/>
        <pt x="95" y="513" on="1"/>
        <pt x="95" y="450" on="0"/>
        <pt x="139" y="366" on="0"/>
        <pt x="214" y="366" on="1"/>
        <pt x="295" y="366" on="1"/>
        <pt x="295" y="332" on="1"/>
        <pt x="214" y="332" on="1"/>
        <pt x="160" y="332" on="0"/>
        <pt x="107" y="295" on="0"/>
        <pt x="91" y="231" on="0"/>
        <pt x="91" y="177" on="1"/>
        <pt x="91" y="114" on="0"/>
        <pt x="129" y="47" on="0"/>
        <pt x="202" y="24" on="0"/>
        <pt x="265" y="24" on="1"/>
        <pt x="331" y="24" on="0"/>
        <pt x="379" y="36" on="1"/>
        <pt x="379" y="366" on="1"/>
      </contour>
    </TTGlyph>
    <TTGlyph name="aogonek" xMin="41" yMin="-196" xMax="363" yMax="518">
      <contour>
        <pt x="363" y="-163" on="1"/>
        <pt x="363" y="-195" on="1"/>
        <pt x="354" y="-196" on="0"/>
        <pt x="341" y="-196" on="1"/>
        <pt x="302" y="-196" on="0"/>
        <pt x="265" y="-157" on="0"/>
        <pt x="265" y="-125" on="1"/>
        <pt x="265" y="-93" on="0"/>
        <pt x="302" y="-23" on="0"/>
        <pt x="332" y="6" on="1"/>
        <pt x="328" y="78" on="1"/>
        <pt x="324" y="78" on="1"/>
        <pt x="311" y="25" on="0"/>
        <pt x="237" y="-8" on="0"/>
        <pt x="185" y="-8" on="1"/>
        <pt x="132" y="-8" on="0"/>
        <pt x="71" y="15" on="0"/>
        <pt x="41" y="78" on="0"/>
        <pt x="41" y="138" on="1"/>
        <pt x="41" y="195" on="0"/>
        <pt x="63" y="257" on="0"/>
        <pt x="117" y="283" on="0"/>
        <pt x="166" y="283" on="1"/>
        <pt x="199" y="283" on="0"/>
        <pt x="324" y="278" on="1"/>
        <pt x="324" y="324" on="1"/>
        <pt x="324" y="400" on="0"/>
        <pt x="305" y="465" on="0"/>
        <pt x="253" y="486" on="0"/>
        <pt x="193" y="486" on="1"/>
        <pt x="167" y="486" on="0"/>
        <pt x="92" y="478" on="0"/>
        <pt x="67" y="473" on="1"/>
        <pt x="67" y="506" on="1"/>
        <pt x="129" y="518" on="0"/>
        <pt x="203" y="518" on="1"/>
        <pt x="268" y="518" on="0"/>
        <pt x="334" y="487" on="0"/>
        <pt x="359" y="409" on="0"/>
        <pt x="359" y="330" on="1"/>
        <pt x="359" y="0" on="1"/>
        <pt x="338" y="-18" on="0"/>
        <pt x="299" y="-89" on="0"/>
        <pt x="299" y="-119" on="1"/>
        <pt x="299" y="-164" on="0"/>
        <pt x="346" y="-164" on="1"/>
      </contour>
      <contour>
        <pt x="324" y="251" on="1"/>
        <pt x="174" y="251" on="1"/>
        <pt x="133" y="251" on="0"/>
        <pt x="92" y="235" on="0"/>
        <pt x="76" y="188" on="0"/>
        <pt x="76" y="138" on="1"/>
        <pt x="76" y="90" on="0"/>
        <pt x="94" y="42" on="0"/>
        <pt x="140" y="24" on="0"/>
        <pt x="185" y="24" on="1"/>
        <pt x="234" y="24" on="0"/>
        <pt x="294" y="46" on="0"/>
        <pt x="307" y="84" on="1"/>
        <pt x="316" y="113" on="0"/>
        <pt x="324" y="171" on="0"/>
        <pt x="324" y="210" on="1"/>
      </contour>
    </TTGlyph>
    <TTGlyph name="approxequal" xMin="66" yMin="113" xMax="368" yMax="395">
      <contour>
        <pt x="66" y="344" on="0"/>
        <pt x="90" y="384" on="0"/>
        <pt x="128" y="384" on="1"/>
        <pt x="149" y="384" on="0"/>
        <pt x="190" y="371" on="0"/>
        <pt x="226" y="356" on="1"/>
        <pt x="232" y="354" on="0"/>
        <pt x="266" y="340" on="0"/>
        <pt x="294" y="333" on="0"/>
        <pt x="306" y="333" on="1"/>
        <pt x="328" y="333" on="0"/>
        <pt x="341" y="359" on="0"/>
        <pt x="341" y="395" on="1"/>
        <pt x="368" y="395" on="1"/>
        <pt x="368" y="340" on="0"/>
        <pt x="344" y="300" on="0"/>
        <pt x="306" y="300" on="1"/>
        <pt x="285" y="300" on="0"/>
        <pt x="244" y="313" on="0"/>
        <pt x="208" y="328" on="1"/>
        <pt x="181" y="339" on="0"/>
        <pt x="145" y="351" on="0"/>
        <pt x="128" y="351" on="1"/>
        <pt x="106" y="351" on="0"/>
        <pt x="93" y="325" on="0"/>
        <pt x="93" y="289" on="1"/>
        <pt x="66" y="289" on="1"/>
      </contour>
      <contour>
        <pt x="66" y="168" on="0"/>
        <pt x="90" y="208" on="0"/>
        <pt x="128" y="208" on="1"/>
        <pt x="146" y="208" on="0"/>
        <pt x="182" y="197" on="0"/>
        <pt x="218" y="183" on="0"/>
        <pt x="226" y="180" on="1"/>
        <pt x="253" y="169" on="0"/>
        <pt x="289" y="157" on="0"/>
        <pt x="306" y="157" on="1"/>
        <pt x="328" y="157" on="0"/>
        <pt x="341" y="183" on="0"/>
        <pt x="341" y="219" on="1"/>
        <pt x="368" y="219" on="1"/>
        <pt x="368" y="164" on="0"/>
        <pt x="344" y="124" on="0"/>
        <pt x="306" y="124" on="1"/>
        <pt x="284" y="124" on="0"/>
        <pt x="239" y="138" on="0"/>
        <pt x="208" y="152" on="1"/>
        <pt x="181" y="163" on="0"/>
        <pt x="145" y="175" on="0"/>
        <pt x="128" y="175" on="1"/>
        <pt x="106" y="175" on="0"/>
        <pt x="93" y="149" on="0"/>
        <pt x="93" y="113" on="1"/>
        <pt x="66" y="113" on="1"/>
      </contour>
    </TTGlyph>
    <TTGlyph name="aring" xMin="41" yMin="-8" xMax="359" yMax="794">
      <component glyphName="a" x="0" y="0" flags="0x0"/>
      <component glyphName="ring" x="114" y="0" flags="0x0"/>
    </TTGlyph>
    <TTGlyph name="aringacute" xMin="41" yMin="-8" xMax="359" yMax="967">
      <component glyphName="a" x="0" y="0" flags="0x0"/>
      <component glyphName="uni030A" x="316" y="0" flags="0x0"/>
      <component glyphName="acutecomb" x="307" y="224" flags="0x4"/>
    </TTGlyph>
    <TTGlyph name="arrowboth" xMin="55" yMin="192" xMax="828" yMax="417">
      <contour>
        <pt x="55" y="304" on="1"/>
        <pt x="310" y="417" on="1"/>
        <pt x="267" y="321" on="1"/>
        <pt x="615" y="321" on="1"/>
        <pt x="573" y="417" on="1"/>
        <pt x="828" y="304" on="1"/>
        <pt x="573" y="192" on="1"/>
        <pt x="615" y="287" on="1"/>
        <pt x="267" y="287" on="1"/>
        <pt x="310" y="192" on="1"/>
      </contour>
    </TTGlyph>
    <TTGlyph name="arrowdown" xMin="85" yMin="-85" xMax="310" yMax="688">
      <contour>
        <pt x="85" y="170" on="1"/>
        <pt x="181" y="127" on="1"/>
        <pt x="181" y="688" on="1"/>
        <pt x="215" y="688" on="1"/>
        <pt x="215" y="127" on="1"/>
        <pt x="310" y="170" on="1"/>
        <pt x="198" y="-85" on="1"/>
      </contour>
    </TTGlyph>
    <TTGlyph name="arrowdown.ss01" xMin="30" yMin="171" xMax="315" yMax="456">
      <contour>
        <pt x="30" y="456" on="1"/>
        <pt x="315" y="456" on="1"/>
        <pt x="173" y="171" on="1"/>
      </contour>
    </TTGlyph>
    <TTGlyph name="arrowleft" xMin="55" yMin="192" xMax="828" yMax="417">
      <contour>
        <pt x="300" y="192" on="1"/>
        <pt x="55" y="304" on="1"/>
        <pt x="300" y="417" on="1"/>
        <pt x="257" y="321" on="1"/>
        <pt x="828" y="321" on="1"/>
        <pt x="828" y="287" on="1"/>
        <pt x="257" y="287" on="1"/>
      </contour>
    </TTGlyph>
    <TTGlyph name="arrowleft.ss01" xMin="30" yMin="201" xMax="315" yMax="486">
      <contour>
        <pt x="30" y="343" on="1"/>
        <pt x="315" y="486" on="1"/>
        <pt x="315" y="201" on="1"/>
      </contour>
    </TTGlyph>
    <TTGlyph name="arrowright" xMin="55" yMin="192" xMax="828" yMax="417">
      <contour>
        <pt x="615" y="287" on="1"/>
        <pt x="55" y="287" on="1"/>
        <pt x="55" y="321" on="1"/>
        <pt x="615" y="321" on="1"/>
        <pt x="573" y="417" on="1"/>
        <pt x="828" y="304" on="1"/>
        <pt x="573" y="192" on="1"/>
      </contour>
    </TTGlyph>
    <TTGlyph name="arrowright.ss01" xMin="48" yMin="201" xMax="333" yMax="486">
      <contour>
        <pt x="48" y="486" on="1"/>
        <pt x="333" y="343" on="1"/>
        <pt x="48" y="201" on="1"/>
      </contour>
    </TTGlyph>
    <TTGlyph name="arrowup" xMin="85" yMin="-81" xMax="310" yMax="691">
      <contour>
        <pt x="181" y="478" on="1"/>
        <pt x="85" y="436" on="1"/>
        <pt x="198" y="691" on="1"/>
        <pt x="310" y="436" on="1"/>
        <pt x="215" y="478" on="1"/>
        <pt x="215" y="-81" on="1"/>
        <pt x="181" y="-81" on="1"/>
      </contour>
    </TTGlyph>
    <TTGlyph name="arrowup.ss01" xMin="30" yMin="231" xMax="315" yMax="516">
      <contour>
        <pt x="173" y="516" on="1"/>
        <pt x="315" y="231" on="1"/>
        <pt x="30" y="231" on="1"/>
      </contour>
    </TTGlyph>
    <TTGlyph name="arrowupdn" xMin="85" yMin="-85" xMax="310" yMax="696">
      <contour>
        <pt x="85" y="170" on="1"/>
        <pt x="181" y="127" on="1"/>
        <pt x="181" y="483" on="1"/>
        <pt x="85" y="441" on="1"/>
        <pt x="198" y="696" on="1"/>
        <pt x="310" y="441" on="1"/>
        <pt x="215" y="483" on="1"/>
        <pt x="215" y="127" on="1"/>
        <pt x="310" y="170" on="1"/>
        <pt x="198" y="-85" on="1"/>
      </contour>
    </TTGlyph>
    <TTGlyph name="arrowupdnbse" xMin="55" yMin="-163" xMax="340" yMax="696">
      <contour>
        <pt x="85" y="170" on="1"/>
        <pt x="181" y="127" on="1"/>
        <pt x="181" y="483" on="1"/>
        <pt x="85" y="441" on="1"/>
        <pt x="198" y="696" on="1"/>
        <pt x="310" y="441" on="1"/>
        <pt x="215" y="483" on="1"/>
        <pt x="215" y="127" on="1"/>
        <pt x="310" y="170" on="1"/>
        <pt x="198" y="-85" on="1"/>
      </contour>
      <contour>
        <pt x="55" y="-129" on="1"/>
        <pt x="340" y="-129" on="1"/>
        <pt x="340" y="-163" on="1"/>
        <pt x="55" y="-163" on="1"/>
      </contour>
    </TTGlyph>
    <TTGlyph name="asciicircum" xMin="63" yMin="476" xMax="360" yMax="750">
      <contour>
        <pt x="211" y="722" on="1"/>
        <pt x="100" y="476" on="1"/>
        <pt x="63" y="476" on="1"/>
        <pt x="188" y="750" on="1"/>
        <pt x="235" y="750" on="1"/>
        <pt x="360" y="476" on="1"/>
        <pt x="323" y="476" on="1"/>
      </contour>
    </TTGlyph>
    <TTGlyph name="asciitilde" xMin="66" yMin="249" xMax="368" yMax="355">
      <contour>
        <pt x="368" y="300" on="0"/>
        <pt x="344" y="260" on="0"/>
        <pt x="306" y="260" on="1"/>
        <pt x="285" y="260" on="0"/>
        <pt x="241" y="273" on="0"/>
        <pt x="208" y="287" on="1"/>
        <pt x="178" y="300" on="0"/>
        <pt x="145" y="311" on="0"/>
        <pt x="128" y="311" on="1"/>
        <pt x="106" y="311" on="0"/>
        <pt x="93" y="285" on="0"/>
        <pt x="93" y="249" on="1"/>
        <pt x="66" y="249" on="1"/>
        <pt x="66" y="304" on="0"/>
        <pt x="90" y="344" on="0"/>
        <pt x="128" y="344" on="1"/>
        <pt x="148" y="344" on="0"/>
        <pt x="187" y="332" on="0"/>
        <pt x="222" y="317" on="0"/>
        <pt x="227" y="315" on="1"/>
        <pt x="232" y="313" on="0"/>
        <pt x="265" y="300" on="0"/>
        <pt x="294" y="293" on="0"/>
        <pt x="306" y="293" on="1"/>
        <pt x="328" y="293" on="0"/>
        <pt x="341" y="319" on="0"/>
        <pt x="341" y="355" on="1"/>
        <pt x="368" y="355" on="1"/>
      </contour>
    </TTGlyph>
    <TTGlyph name="asterisk" xMin="49" yMin="358" xMax="354" yMax="688">
      <contour>
        <pt x="221" y="358" on="1"/>
        <pt x="183" y="358" on="1"/>
        <pt x="188" y="500" on="1"/>
        <pt x="68" y="424" on="1"/>
        <pt x="50" y="457" on="1"/>
        <pt x="176" y="522" on="1"/>
        <pt x="49" y="589" on="1"/>
        <pt x="68" y="622" on="1"/>
        <pt x="188" y="545" on="1"/>
        <pt x="183" y="688" on="1"/>
        <pt x="221" y="688" on="1"/>
        <pt x="214" y="545" on="1"/>
        <pt x="335" y="622" on="1"/>
        <pt x="353" y="589" on="1"/>
        <pt x="228" y="523" on="1"/>
        <pt x="354" y="457" on="1"/>
        <pt x="335" y="424" on="1"/>
        <pt x="214" y="500" on="1"/>
      </contour>
    </TTGlyph>
    <TTGlyph name="asterisk.ss02" xMin="35" yMin="-14" xMax="782" yMax="705">
      <contour>
        <pt x="269" y="262" on="1"/>
        <pt x="35" y="436" on="1"/>
        <pt x="322" y="436" on="1"/>
        <pt x="409" y="705" on="1"/>
        <pt x="494" y="436" on="1"/>
        <pt x="782" y="436" on="1"/>
        <pt x="550" y="262" on="1"/>
        <pt x="640" y="-14" on="1"/>
        <pt x="409" y="156" on="1"/>
        <pt x="178" y="-14" on="1"/>
      </contour>
    </TTGlyph>
    <TTGlyph name="at" xMin="66" yMin="-108" xMax="610" yMax="696">
      <contour>
        <pt x="200" y="-108" on="0"/>
        <pt x="92" y="-52" on="0"/>
        <pt x="66" y="97" on="0"/>
        <pt x="66" y="294" on="1"/>
        <pt x="66" y="491" on="0"/>
        <pt x="92" y="640" on="0"/>
        <pt x="200" y="696" on="0"/>
        <pt x="338" y="696" on="1"/>
        <pt x="476" y="696" on="0"/>
        <pt x="584" y="640" on="0"/>
        <pt x="610" y="492" on="0"/>
        <pt x="610" y="294" on="1"/>
        <pt x="610" y="190" on="0"/>
        <pt x="593" y="99" on="0"/>
        <pt x="558" y="75" on="0"/>
        <pt x="520" y="75" on="1"/>
        <pt x="438" y="75" on="1"/>
        <pt x="434" y="139" on="1"/>
        <pt x="430" y="139" on="1"/>
        <pt x="420" y="96" on="0"/>
        <pt x="364" y="68" on="0"/>
        <pt x="325" y="68" on="1"/>
        <pt x="283" y="68" on="0"/>
        <pt x="234" y="88" on="0"/>
        <pt x="209" y="142" on="0"/>
        <pt x="209" y="193" on="1"/>
        <pt x="209" y="241" on="0"/>
        <pt x="227" y="295" on="0"/>
        <pt x="270" y="319" on="0"/>
        <pt x="310" y="319" on="1"/>
        <pt x="352" y="319" on="0"/>
        <pt x="430" y="315" on="1"/>
        <pt x="430" y="352" on="1"/>
        <pt x="430" y="415" on="0"/>
        <pt x="416" y="469" on="0"/>
        <pt x="378" y="486" on="0"/>
        <pt x="333" y="486" on="1"/>
        <pt x="311" y="486" on="0"/>
        <pt x="250" y="479" on="0"/>
        <pt x="232" y="475" on="1"/>
        <pt x="232" y="508" on="1"/>
        <pt x="275" y="518" on="0"/>
        <pt x="343" y="518" on="1"/>
        <pt x="395" y="518" on="0"/>
        <pt x="446" y="491" on="0"/>
        <pt x="465" y="425" on="0"/>
        <pt x="465" y="358" on="1"/>
        <pt x="465" y="105" on="1"/>
        <pt x="529" y="105" on="1"/>
        <pt x="548" y="105" on="0"/>
        <pt x="566" y="124" on="0"/>
        <pt x="576" y="204" on="0"/>
        <pt x="576" y="294" on="1"/>
        <pt x="576" y="455" on="0"/>
        <pt x="563" y="590" on="0"/>
        <pt x="512" y="652" on="0"/>
        <pt x="451" y="660" on="1"/>
        <pt x="401" y="666" on="0"/>
        <pt x="337" y="666" on="1"/>
        <pt x="278" y="666" on="0"/>
        <pt x="234" y="662" on="1"/>
        <pt x="168" y="655" on="0"/>
        <pt x="114" y="595" on="0"/>
        <pt x="100" y="459" on="0"/>
        <pt x="100" y="294" on="1"/>
        <pt x="100" y="132" on="0"/>
        <pt x="115" y="-4" on="0"/>
        <pt x="173" y="-65" on="0"/>
        <pt x="243" y="-73" on="1"/>
        <pt x="279" y="-77" on="0"/>
        <pt x="338" y="-77" on="1"/>
        <pt x="433" y="-77" on="0"/>
        <pt x="465" y="-74" on="1"/>
        <pt x="465" y="-106" on="1"/>
        <pt x="442" y="-108" on="0"/>
        <pt x="338" y="-108" on="1"/>
      </contour>
      <contour>
        <pt x="365" y="100" on="0"/>
        <pt x="410" y="127" on="0"/>
        <pt x="430" y="193" on="0"/>
        <pt x="430" y="254" on="1"/>
        <pt x="430" y="287" on="1"/>
        <pt x="316" y="287" on="1"/>
        <pt x="285" y="287" on="0"/>
        <pt x="256" y="274" on="0"/>
        <pt x="244" y="235" on="0"/>
        <pt x="244" y="193" on="1"/>
        <pt x="244" y="153" on="0"/>
        <pt x="257" y="115" on="0"/>
        <pt x="290" y="100" on="0"/>
        <pt x="324" y="100" on="1"/>
      </contour>
    </TTGlyph>
    <TTGlyph name="atilde" xMin="41" yMin="-8" xMax="359" yMax="743">
      <component glyphName="a" x="0" y="0" flags="0x0"/>
      <component glyphName="tilde" x="76" y="0" flags="0x0"/>
    </TTGlyph>
    <TTGlyph name="b" xMin="73" yMin="-8" xMax="400" yMax="743">
      <contour>
        <pt x="190" y="-8" on="0"/>
        <pt x="122" y="26" on="0"/>
        <pt x="108" y="78" on="1"/>
        <pt x="104" y="78" on="1"/>
        <pt x="100" y="0" on="1"/>
        <pt x="73" y="0" on="1"/>
        <pt x="73" y="743" on="1"/>
        <pt x="108" y="743" on="1"/>
        <pt x="108" y="441" on="1"/>
        <pt x="112" y="441" on="1"/>
        <pt x="124" y="482" on="0"/>
        <pt x="188" y="518" on="0"/>
        <pt x="243" y="518" on="1"/>
        <pt x="311" y="518" on="0"/>
        <pt x="376" y="475" on="0"/>
        <pt x="400" y="367" on="0"/>
        <pt x="400" y="255" on="1"/>
        <pt x="400" y="144" on="0"/>
        <pt x="376" y="35" on="0"/>
        <pt x="310" y="-8" on="0"/>
        <pt x="243" y="-8" on="1"/>
      </contour>
      <contour>
        <pt x="295" y="24" on="0"/>
        <pt x="347" y="56" on="0"/>
        <pt x="365" y="149" on="0"/>
        <pt x="365" y="255" on="1"/>
        <pt x="365" y="361" on="0"/>
        <pt x="347" y="454" on="0"/>
        <pt x="295" y="486" on="0"/>
        <pt x="236" y="486" on="1"/>
        <pt x="187" y="486" on="0"/>
        <pt x="131" y="449" on="0"/>
        <pt x="121" y="409" on="1"/>
        <pt x="113" y="377" on="0"/>
        <pt x="108" y="307" on="0"/>
        <pt x="108" y="255" on="1"/>
        <pt x="108" y="202" on="0"/>
        <pt x="112" y="134" on="0"/>
        <pt x="120" y="103" on="1"/>
        <pt x="130" y="62" on="0"/>
        <pt x="187" y="24" on="0"/>
        <pt x="236" y="24" on="1"/>
      </contour>
    </TTGlyph>
    <TTGlyph name="backslash" xMin="20" yMin="-55" xMax="247" yMax="743">
      <contour>
        <pt x="20" y="743" on="1"/>
        <pt x="56" y="743" on="1"/>
        <pt x="247" y="-55" on="1"/>
        <pt x="211" y="-55" on="1"/>
      </contour>
    </TTGlyph>
    <TTGlyph name="bar" xMin="91" yMin="-161" xMax="126" yMax="743">
      <contour>
        <pt x="91" y="743" on="1"/>
        <pt x="126" y="743" on="1"/>
        <pt x="126" y="-161" on="1"/>
        <pt x="91" y="-161" on="1"/>
      </contour>
    </TTGlyph>
    <TTGlyph name="bar.ss02" xMin="-1" yMin="0" xMax="499" yMax="696">
      <contour>
        <pt x="-1" y="696" on="1"/>
        <pt x="499" y="696" on="1"/>
        <pt x="499" y="0" on="1"/>
        <pt x="-1" y="0" on="1"/>
      </contour>
    </TTGlyph>
    <TTGlyph name="braceleft" xMin="23" yMin="-150" xMax="222" yMax="743">
      <contour>
        <pt x="150" y="-127" on="0"/>
        <pt x="104" y="-22" on="0"/>
        <pt x="104" y="37" on="1"/>
        <pt x="104" y="152" on="1"/>
        <pt x="104" y="206" on="0"/>
        <pt x="65" y="282" on="0"/>
        <pt x="23" y="282" on="1"/>
        <pt x="23" y="311" on="1"/>
        <pt x="65" y="311" on="0"/>
        <pt x="104" y="387" on="0"/>
        <pt x="104" y="441" on="1"/>
        <pt x="104" y="556" on="1"/>
        <pt x="104" y="615" on="0"/>
        <pt x="150" y="720" on="0"/>
        <pt x="186" y="743" on="1"/>
        <pt x="222" y="743" on="1"/>
        <pt x="185" y="715" on="0"/>
        <pt x="139" y="616" on="0"/>
        <pt x="139" y="568" on="1"/>
        <pt x="139" y="447" on="1"/>
        <pt x="139" y="322" on="0"/>
        <pt x="73" y="299" on="1"/>
        <pt x="73" y="294" on="1"/>
        <pt x="139" y="271" on="0"/>
        <pt x="139" y="146" on="1"/>
        <pt x="139" y="25" on="1"/>
        <pt x="139" y="-23" on="0"/>
        <pt x="185" y="-122" on="0"/>
        <pt x="222" y="-150" on="1"/>
        <pt x="186" y="-150" on="1"/>
      </contour>
    </TTGlyph>
    <TTGlyph name="braceright" xMin="13" yMin="-150" xMax="212" yMax="743">
      <contour>
        <pt x="50" y="-122" on="0"/>
        <pt x="97" y="-23" on="0"/>
        <pt x="97" y="25" on="1"/>
        <pt x="97" y="146" on="1"/>
        <pt x="97" y="207" on="0"/>
        <pt x="127" y="282" on="0"/>
        <pt x="162" y="294" on="1"/>
        <pt x="162" y="299" on="1"/>
        <pt x="127" y="311" on="0"/>
        <pt x="97" y="386" on="0"/>
        <pt x="97" y="447" on="1"/>
        <pt x="97" y="568" on="1"/>
        <pt x="97" y="616" on="0"/>
        <pt x="50" y="715" on="0"/>
        <pt x="13" y="743" on="1"/>
        <pt x="50" y="743" on="1"/>
        <pt x="86" y="720" on="0"/>
        <pt x="132" y="615" on="0"/>
        <pt x="132" y="556" on="1"/>
        <pt x="132" y="441" on="1"/>
        <pt x="132" y="387" on="0"/>
        <pt x="171" y="311" on="0"/>
        <pt x="212" y="311" on="1"/>
        <pt x="212" y="282" on="1"/>
        <pt x="170" y="282" on="0"/>
        <pt x="132" y="207" on="0"/>
        <pt x="132" y="152" on="1"/>
        <pt x="132" y="37" on="1"/>
        <pt x="132" y="-22" on="0"/>
        <pt x="86" y="-127" on="0"/>
        <pt x="50" y="-150" on="1"/>
        <pt x="13" y="-150" on="1"/>
      </contour>
    </TTGlyph>
    <TTGlyph name="bracketleft" xMin="81" yMin="-150" xMax="201" yMax="743">
      <contour>
        <pt x="81" y="743" on="1"/>
        <pt x="201" y="743" on="1"/>
        <pt x="201" y="710" on="1"/>
        <pt x="116" y="706" on="1"/>
        <pt x="116" y="-113" on="1"/>
        <pt x="201" y="-117" on="1"/>
        <pt x="201" y="-150" on="1"/>
        <pt x="81" y="-150" on="1"/>
      </contour>
    </TTGlyph>
    <TTGlyph name="bracketleft.ss02" xMin="45" yMin="0" xMax="397" yMax="696">
      <contour>
        <pt x="45" y="0" on="1"/>
        <pt x="45" y="348" on="1"/>
        <pt x="45" y="449" on="0"/>
        <pt x="135" y="608" on="0"/>
        <pt x="295" y="696" on="0"/>
        <pt x="397" y="696" on="1"/>
        <pt x="397" y="0" on="1"/>
      </contour>
    </TTGlyph>
    <TTGlyph name="bracketright" xMin="27" yMin="-150" xMax="146" yMax="743">
      <contour>
        <pt x="27" y="-117" on="1"/>
        <pt x="111" y="-113" on="1"/>
        <pt x="111" y="706" on="1"/>
        <pt x="27" y="710" on="1"/>
        <pt x="27" y="743" on="1"/>
        <pt x="146" y="743" on="1"/>
        <pt x="146" y="-150" on="1"/>
        <pt x="27" y="-150" on="1"/>
      </contour>
    </TTGlyph>
    <TTGlyph name="bracketright.ss02" xMin="0" yMin="0" xMax="352" yMax="696">
      <contour>
        <pt x="0" y="696" on="1"/>
        <pt x="102" y="696" on="0"/>
        <pt x="262" y="608" on="0"/>
        <pt x="352" y="449" on="0"/>
        <pt x="352" y="348" on="1"/>
        <pt x="352" y="0" on="1"/>
        <pt x="0" y="0" on="1"/>
      </contour>
    </TTGlyph>
    <TTGlyph name="breve" xMin="7" yMin="602" xMax="214" yMax="743">
      <contour>
        <pt x="214" y="691" on="0"/>
        <pt x="204" y="636" on="0"/>
        <pt x="159" y="602" on="0"/>
        <pt x="110" y="602" on="1"/>
        <pt x="61" y="602" on="0"/>
        <pt x="17" y="636" on="0"/>
        <pt x="7" y="691" on="0"/>
        <pt x="7" y="743" on="1"/>
        <pt x="39" y="743" on="1"/>
        <pt x="39" y="698" on="0"/>
        <pt x="46" y="654" on="0"/>
        <pt x="76" y="630" on="0"/>
        <pt x="110" y="630" on="1"/>
        <pt x="144" y="630" on="0"/>
        <pt x="174" y="654" on="0"/>
        <pt x="182" y="698" on="0"/>
        <pt x="182" y="743" on="1"/>
        <pt x="214" y="743" on="1"/>
      </contour>
    </TTGlyph>
    <TTGlyph name="brokenbar" xMin="91" yMin="-161" xMax="126" yMax="743">
      <contour>
        <pt x="91" y="743" on="1"/>
        <pt x="126" y="743" on="1"/>
        <pt x="126" y="390" on="1"/>
        <pt x="91" y="390" on="1"/>
      </contour>
      <contour>
        <pt x="91" y="192" on="1"/>
        <pt x="126" y="192" on="1"/>
        <pt x="126" y="-161" on="1"/>
        <pt x="91" y="-161" on="1"/>
      </contour>
    </TTGlyph>
    <TTGlyph name="bullet" xMin="62" yMin="259" xMax="230" yMax="428">
      <contour>
        <pt x="230" y="303" on="0"/>
        <pt x="221" y="271" on="0"/>
        <pt x="186" y="259" on="0"/>
        <pt x="144" y="259" on="1"/>
        <pt x="104" y="259" on="0"/>
        <pt x="71" y="271" on="0"/>
        <pt x="62" y="303" on="0"/>
        <pt x="62" y="342" on="1"/>
        <pt x="62" y="383" on="0"/>
        <pt x="71" y="416" on="0"/>
        <pt x="104" y="428" on="0"/>
        <pt x="144" y="428" on="1"/>
        <pt x="186" y="428" on="0"/>
        <pt x="221" y="416" on="0"/>
        <pt x="230" y="383" on="0"/>
        <pt x="230" y="342" on="1"/>
      </contour>
    </TTGlyph>
    <TTGlyph name="bullet.ss02" xMin="40" yMin="-8" xMax="743" yMax="696">
      <contour>
        <pt x="343" y="421" on="0"/>
        <pt x="279" y="480" on="0"/>
        <pt x="279" y="533" on="1"/>
        <pt x="279" y="575" on="0"/>
        <pt x="318" y="650" on="0"/>
        <pt x="373" y="696" on="0"/>
        <pt x="392" y="696" on="1"/>
        <pt x="411" y="696" on="0"/>
        <pt x="465" y="650" on="0"/>
        <pt x="504" y="575" on="0"/>
        <pt x="504" y="533" on="1"/>
        <pt x="504" y="480" on="0"/>
        <pt x="441" y="421" on="0"/>
        <pt x="392" y="421" on="1"/>
      </contour>
      <contour>
        <pt x="415" y="481" on="0"/>
        <pt x="444" y="508" on="0"/>
        <pt x="444" y="533" on="1"/>
        <pt x="444" y="560" on="0"/>
        <pt x="426" y="607" on="0"/>
        <pt x="401" y="636" on="0"/>
        <pt x="392" y="636" on="1"/>
        <pt x="383" y="636" on="0"/>
        <pt x="358" y="607" on="0"/>
        <pt x="339" y="560" on="0"/>
        <pt x="339" y="533" on="1"/>
        <pt x="339" y="508" on="0"/>
        <pt x="369" y="481" on="0"/>
        <pt x="392" y="481" on="1"/>
      </contour>
      <contour>
        <pt x="161" y="231" on="0"/>
        <pt x="86" y="270" on="0"/>
        <pt x="40" y="325" on="0"/>
        <pt x="40" y="344" on="1"/>
        <pt x="40" y="363" on="0"/>
        <pt x="86" y="417" on="0"/>
        <pt x="161" y="456" on="0"/>
        <pt x="203" y="456" on="1"/>
        <pt x="256" y="456" on="0"/>
        <pt x="315" y="393" on="0"/>
        <pt x="315" y="344" on="1"/>
        <pt x="315" y="295" on="0"/>
        <pt x="256" y="231" on="0"/>
        <pt x="203" y="231" on="1"/>
      </contour>
      <contour>
        <pt x="527" y="231" on="0"/>
        <pt x="468" y="295" on="0"/>
        <pt x="468" y="344" on="1"/>
        <pt x="468" y="393" on="0"/>
        <pt x="527" y="456" on="0"/>
        <pt x="581" y="456" on="1"/>
        <pt x="622" y="456" on="0"/>
        <pt x="697" y="417" on="0"/>
        <pt x="743" y="363" on="0"/>
        <pt x="743" y="344" on="1"/>
        <pt x="743" y="325" on="0"/>
        <pt x="697" y="270" on="0"/>
        <pt x="623" y="231" on="0"/>
        <pt x="581" y="231" on="1"/>
      </contour>
      <contour>
        <pt x="228" y="291" on="0"/>
        <pt x="255" y="321" on="0"/>
        <pt x="255" y="344" on="1"/>
        <pt x="255" y="367" on="0"/>
        <pt x="228" y="396" on="0"/>
        <pt x="203" y="396" on="1"/>
        <pt x="176" y="396" on="0"/>
        <pt x="129" y="378" on="0"/>
        <pt x="100" y="353" on="0"/>
        <pt x="100" y="344" on="1"/>
        <pt x="100" y="335" on="0"/>
        <pt x="129" y="310" on="0"/>
        <pt x="176" y="291" on="0"/>
        <pt x="203" y="291" on="1"/>
      </contour>
      <contour>
        <pt x="607" y="291" on="0"/>
        <pt x="654" y="310" on="0"/>
        <pt x="683" y="335" on="0"/>
        <pt x="683" y="344" on="1"/>
        <pt x="683" y="353" on="0"/>
        <pt x="654" y="378" on="0"/>
        <pt x="607" y="396" on="0"/>
        <pt x="581" y="396" on="1"/>
        <pt x="556" y="396" on="0"/>
        <pt x="528" y="367" on="0"/>
        <pt x="528" y="344" on="1"/>
        <pt x="528" y="321" on="0"/>
        <pt x="556" y="291" on="0"/>
        <pt x="581" y="291" on="1"/>
      </contour>
      <contour>
        <pt x="373" y="-8" on="0"/>
        <pt x="318" y="38" on="0"/>
        <pt x="279" y="113" on="0"/>
        <pt x="279" y="155" on="1"/>
        <pt x="279" y="208" on="0"/>
        <pt x="343" y="267" on="0"/>
        <pt x="392" y="267" on="1"/>
        <pt x="441" y="267" on="0"/>
        <pt x="504" y="208" on="0"/>
        <pt x="504" y="155" on="1"/>
        <pt x="504" y="113" on="0"/>
        <pt x="465" y="38" on="0"/>
        <pt x="411" y="-8" on="0"/>
        <pt x="392" y="-8" on="1"/>
      </contour>
      <contour>
        <pt x="401" y="52" on="0"/>
        <pt x="426" y="81" on="0"/>
        <pt x="444" y="128" on="0"/>
        <pt x="444" y="155" on="1"/>
        <pt x="444" y="180" on="0"/>
        <pt x="415" y="207" on="0"/>
        <pt x="392" y="207" on="1"/>
        <pt x="369" y="207" on="0"/>
        <pt x="339" y="180" on="0"/>
        <pt x="339" y="155" on="1"/>
        <pt x="339" y="128" on="0"/>
        <pt x="358" y="81" on="0"/>
        <pt x="383" y="52" on="0"/>
        <pt x="392" y="52" on="1"/>
      </contour>
    </TTGlyph>
    <TTGlyph name="c" xMin="55" yMin="-8" xMax="316" yMax="518">
      <contour>
        <pt x="298" y="-1" on="0"/>
        <pt x="240" y="-8" on="0"/>
        <pt x="214" y="-8" on="1"/>
        <pt x="142" y="-8" on="0"/>
        <pt x="75" y="42" on="0"/>
        <pt x="55" y="148" on="0"/>
        <pt x="55" y="254" on="1"/>
        <pt x="55" y="364" on="0"/>
        <pt x="80" y="474" on="0"/>
        <pt x="146" y="518" on="0"/>
        <pt x="211" y="518" on="1"/>
        <pt x="235" y="518" on="0"/>
        <pt x="294" y="512" on="0"/>
        <pt x="312" y="507" on="1"/>
        <pt x="312" y="474" on="1"/>
        <pt x="292" y="479" on="0"/>
        <pt x="238" y="486" on="0"/>
        <pt x="216" y="486" on="1"/>
        <pt x="160" y="486" on="0"/>
        <pt x="108" y="449" on="0"/>
        <pt x="90" y="355" on="0"/>
        <pt x="90" y="256" on="1"/>
        <pt x="90" y="153" on="0"/>
        <pt x="108" y="59" on="0"/>
        <pt x="161" y="24" on="0"/>
        <pt x="218" y="24" on="1"/>
        <pt x="243" y="24" on="0"/>
        <pt x="298" y="31" on="0"/>
        <pt x="316" y="37" on="1"/>
        <pt x="316" y="4" on="1"/>
      </contour>
    </TTGlyph>
    <TTGlyph name="cacute" xMin="55" yMin="-8" xMax="316" yMax="743">
      <component glyphName="c" x="0" y="0" flags="0x0"/>
      <component glyphName="acutecomb" x="267" y="0" flags="0x0"/>
    </TTGlyph>
    <TTGlyph name="cacute.loclPLK" xMin="55" yMin="-8" xMax="316" yMax="743">
      <component glyphName="c" x="0" y="0" flags="0x0"/>
      <component glyphName="acute.loclPLK" x="155" y="0" flags="0x0"/>
    </TTGlyph>
    <TTGlyph name="caron" xMin="7" yMin="605" xMax="213" yMax="743">
      <contour>
        <pt x="7" y="738" on="1"/>
        <pt x="7" y="743" on="1"/>
        <pt x="34" y="743" on="1"/>
        <pt x="110" y="635" on="1"/>
        <pt x="186" y="743" on="1"/>
        <pt x="213" y="743" on="1"/>
        <pt x="213" y="738" on="1"/>
        <pt x="133" y="605" on="1"/>
        <pt x="87" y="605" on="1"/>
      </contour>
    </TTGlyph>
    <TTGlyph name="caron.loclCSY" xMin="36" yMin="454" xMax="87" yMax="688">
      <contour>
        <pt x="48" y="599" on="1"/>
        <pt x="48" y="688" on="1"/>
        <pt x="87" y="688" on="1"/>
        <pt x="87" y="599" on="1"/>
        <pt x="59" y="454" on="1"/>
        <pt x="36" y="454" on="1"/>
      </contour>
    </TTGlyph>
    <TTGlyph name="ccaron" xMin="55" yMin="-8" xMax="316" yMax="743">
      <component glyphName="c" x="0" y="0" flags="0x0"/>
      <component glyphName="uni030C" x="286" y="0" flags="0x0"/>
    </TTGlyph>
    <TTGlyph name="ccedilla" xMin="55" yMin="-190" xMax="316" yMax="518">
      <contour>
        <pt x="243" y="24" on="0"/>
        <pt x="298" y="31" on="0"/>
        <pt x="316" y="37" on="1"/>
        <pt x="316" y="4" on="1"/>
        <pt x="298" y="-1" on="0"/>
        <pt x="240" y="-8" on="0"/>
        <pt x="214" y="-8" on="1"/>
        <pt x="197" y="-8" on="0"/>
        <pt x="189" y="-7" on="1"/>
        <pt x="147" y="-190" on="1"/>
        <pt x="107" y="-190" on="1"/>
        <pt x="107" y="-185" on="1"/>
        <pt x="161" y="-4" on="1"/>
        <pt x="114" y="5" on="0"/>
        <pt x="69" y="62" on="0"/>
        <pt x="55" y="162" on="0"/>
        <pt x="55" y="254" on="1"/>
        <pt x="55" y="364" on="0"/>
        <pt x="80" y="474" on="0"/>
        <pt x="146" y="518" on="0"/>
        <pt x="211" y="518" on="1"/>
        <pt x="235" y="518" on="0"/>
        <pt x="294" y="512" on="0"/>
        <pt x="312" y="507" on="1"/>
        <pt x="312" y="474" on="1"/>
        <pt x="292" y="479" on="0"/>
        <pt x="238" y="486" on="0"/>
        <pt x="216" y="486" on="1"/>
        <pt x="160" y="486" on="0"/>
        <pt x="108" y="449" on="0"/>
        <pt x="90" y="355" on="0"/>
        <pt x="90" y="256" on="1"/>
        <pt x="90" y="153" on="0"/>
        <pt x="108" y="59" on="0"/>
        <pt x="161" y="24" on="0"/>
        <pt x="218" y="24" on="1"/>
      </contour>
    </TTGlyph>
    <TTGlyph name="ccircumflex" xMin="55" yMin="-8" xMax="316" yMax="743">
      <component glyphName="c" x="0" y="0" flags="0x0"/>
      <component glyphName="uni0302" x="286" y="0" flags="0x0"/>
    </TTGlyph>
    <TTGlyph name="cdotaccent" xMin="55" yMin="-8" xMax="316" yMax="730">
      <component glyphName="c" x="0" y="0" flags="0x0"/>
      <component glyphName="uni0307" x="218" y="0" flags="0x0"/>
    </TTGlyph>
    <TTGlyph name="cedilla" xMin="20" yMin="-190" xMax="104" yMax="8">
      <contour>
        <pt x="20" y="-185" on="1"/>
        <pt x="78" y="8" on="1"/>
        <pt x="104" y="8" on="1"/>
        <pt x="104" y="3" on="1"/>
        <pt x="60" y="-190" on="1"/>
        <pt x="20" y="-190" on="1"/>
      </contour>
    </TTGlyph>
    <TTGlyph name="cent" xMin="58" yMin="-8" xMax="329" yMax="696">
      <contour>
        <pt x="329" y="79" on="1"/>
        <pt x="284" y="69" on="0"/>
        <pt x="241" y="67" on="1"/>
        <pt x="241" y="-8" on="1"/>
        <pt x="207" y="-8" on="1"/>
        <pt x="207" y="67" on="1"/>
        <pt x="141" y="69" on="0"/>
        <pt x="78" y="123" on="0"/>
        <pt x="58" y="234" on="0"/>
        <pt x="58" y="342" on="1"/>
        <pt x="58" y="455" on="0"/>
        <pt x="85" y="571" on="0"/>
        <pt x="147" y="617" on="0"/>
        <pt x="207" y="620" on="1"/>
        <pt x="207" y="696" on="1"/>
        <pt x="241" y="696" on="1"/>
        <pt x="241" y="620" on="1"/>
        <pt x="286" y="617" on="0"/>
        <pt x="326" y="608" on="1"/>
        <pt x="326" y="573" on="1"/>
        <pt x="291" y="583" on="0"/>
        <pt x="241" y="585" on="1"/>
        <pt x="241" y="100" on="1"/>
        <pt x="290" y="103" on="0"/>
        <pt x="329" y="115" on="1"/>
      </contour>
      <contour>
        <pt x="95" y="243" on="0"/>
        <pt x="111" y="144" on="0"/>
        <pt x="158" y="103" on="0"/>
        <pt x="207" y="100" on="1"/>
        <pt x="207" y="584" on="1"/>
        <pt x="159" y="581" on="0"/>
        <pt x="112" y="542" on="0"/>
        <pt x="95" y="444" on="0"/>
        <pt x="95" y="344" on="1"/>
      </contour>
    </TTGlyph>
    <TTGlyph name="circumflex" xMin="7" yMin="605" xMax="213" yMax="743">
      <contour>
        <pt x="7" y="610" on="1"/>
        <pt x="87" y="743" on="1"/>
        <pt x="133" y="743" on="1"/>
        <pt x="213" y="610" on="1"/>
        <pt x="213" y="605" on="1"/>
        <pt x="186" y="605" on="1"/>
        <pt x="110" y="713" on="1"/>
        <pt x="34" y="605" on="1"/>
        <pt x="7" y="605" on="1"/>
      </contour>
    </TTGlyph>
    <TTGlyph name="colon" xMin="57" yMin="0" xMax="103" yMax="510">
      <contour>
        <pt x="57" y="510" on="1"/>
        <pt x="103" y="510" on="1"/>
        <pt x="103" y="445" on="1"/>
        <pt x="57" y="445" on="1"/>
      </contour>
      <contour>
        <pt x="57" y="65" on="1"/>
        <pt x="103" y="65" on="1"/>
        <pt x="103" y="0" on="1"/>
        <pt x="57" y="0" on="1"/>
      </contour>
    </TTGlyph>
    <TTGlyph name="comma" xMin="30" yMin="-101" xMax="103" yMax="65">
      <contour>
        <pt x="51" y="-80" on="0"/>
        <pt x="71" y="-69" on="0"/>
        <pt x="76" y="-44" on="0"/>
        <pt x="76" y="-17" on="1"/>
        <pt x="76" y="0" on="1"/>
        <pt x="56" y="0" on="1"/>
        <pt x="56" y="65" on="1"/>
        <pt x="103" y="65" on="1"/>
        <pt x="103" y="-10" on="1"/>
        <pt x="103" y="-47" on="0"/>
        <pt x="91" y="-85" on="0"/>
        <pt x="60" y="-101" on="0"/>
        <pt x="30" y="-101" on="1"/>
        <pt x="30" y="-80" on="1"/>
      </contour>
    </TTGlyph>
    <TTGlyph name="copyright" xMin="77" yMin="-8" xMax="490" yMax="696">
      <contour>
        <pt x="180" y="-8" on="0"/>
        <pt x="99" y="39" on="0"/>
        <pt x="77" y="173" on="0"/>
        <pt x="77" y="344" on="1"/>
        <pt x="77" y="515" on="0"/>
        <pt x="99" y="649" on="0"/>
        <pt x="180" y="696" on="0"/>
        <pt x="283" y="696" on="1"/>
        <pt x="386" y="696" on="0"/>
        <pt x="468" y="649" on="0"/>
        <pt x="490" y="515" on="0"/>
        <pt x="490" y="344" on="1"/>
        <pt x="490" y="173" on="0"/>
        <pt x="468" y="39" on="0"/>
        <pt x="386" y="-8" on="0"/>
        <pt x="283" y="-8" on="1"/>
      </contour>
      <contour>
        <pt x="373" y="18" on="0"/>
        <pt x="442" y="57" on="0"/>
        <pt x="462" y="181" on="0"/>
        <pt x="462" y="344" on="1"/>
        <pt x="462" y="507" on="0"/>
        <pt x="442" y="631" on="0"/>
        <pt x="373" y="670" on="0"/>
        <pt x="283" y="670" on="1"/>
        <pt x="193" y="670" on="0"/>
        <pt x="124" y="631" on="0"/>
        <pt x="105" y="507" on="0"/>
        <pt x="105" y="344" on="1"/>
        <pt x="105" y="181" on="0"/>
        <pt x="124" y="57" on="0"/>
        <pt x="193" y="18" on="0"/>
        <pt x="283" y="18" on="1"/>
      </contour>
      <contour>
        <pt x="254" y="154" on="0"/>
        <pt x="211" y="179" on="0"/>
        <pt x="195" y="256" on="0"/>
        <pt x="195" y="344" on="1"/>
        <pt x="195" y="430" on="0"/>
        <pt x="211" y="508" on="0"/>
        <pt x="254" y="534" on="0"/>
        <pt x="302" y="534" on="1"/>
        <pt x="342" y="534" on="0"/>
        <pt x="359" y="528" on="1"/>
        <pt x="359" y="500" on="1"/>
        <pt x="336" y="505" on="0"/>
        <pt x="306" y="505" on="1"/>
        <pt x="268" y="505" on="0"/>
        <pt x="236" y="484" on="0"/>
        <pt x="226" y="421" on="0"/>
        <pt x="226" y="344" on="1"/>
        <pt x="226" y="267" on="0"/>
        <pt x="236" y="204" on="0"/>
        <pt x="268" y="183" on="0"/>
        <pt x="306" y="183" on="1"/>
        <pt x="336" y="183" on="0"/>
        <pt x="361" y="188" on="1"/>
        <pt x="361" y="159" on="1"/>
        <pt x="334" y="154" on="0"/>
        <pt x="302" y="154" on="1"/>
      </contour>
    </TTGlyph>
    <TTGlyph name="currency" xMin="55" yMin="-8" xMax="540" yMax="696">
      <contour>
        <pt x="56" y="14" on="1"/>
        <pt x="159" y="118" on="1"/>
        <pt x="141" y="146" on="0"/>
        <pt x="130" y="248" on="0"/>
        <pt x="130" y="346" on="1"/>
        <pt x="130" y="441" on="0"/>
        <pt x="141" y="542" on="0"/>
        <pt x="158" y="570" on="1"/>
        <pt x="55" y="673" on="1"/>
        <pt x="78" y="696" on="1"/>
        <pt x="181" y="593" on="1"/>
        <pt x="198" y="606" on="0"/>
        <pt x="254" y="617" on="0"/>
        <pt x="297" y="617" on="1"/>
        <pt x="341" y="617" on="0"/>
        <pt x="397" y="606" on="0"/>
        <pt x="414" y="592" on="1"/>
        <pt x="517" y="696" on="1"/>
        <pt x="539" y="673" on="1"/>
        <pt x="436" y="569" on="1"/>
        <pt x="453" y="541" on="0"/>
        <pt x="464" y="441" on="0"/>
        <pt x="464" y="346" on="1"/>
        <pt x="464" y="249" on="0"/>
        <pt x="453" y="146" on="0"/>
        <pt x="436" y="118" on="1"/>
        <pt x="540" y="15" on="1"/>
        <pt x="517" y="-8" on="1"/>
        <pt x="414" y="96" on="1"/>
        <pt x="396" y="83" on="0"/>
        <pt x="340" y="72" on="0"/>
        <pt x="297" y="72" on="1"/>
        <pt x="254" y="72" on="0"/>
        <pt x="199" y="83" on="0"/>
        <pt x="181" y="95" on="1"/>
        <pt x="78" y="-8" on="1"/>
      </contour>
      <contour>
        <pt x="362" y="104" on="0"/>
        <pt x="415" y="139" on="0"/>
        <pt x="429" y="231" on="0"/>
        <pt x="429" y="346" on="1"/>
        <pt x="429" y="459" on="0"/>
        <pt x="415" y="549" on="0"/>
        <pt x="362" y="585" on="0"/>
        <pt x="297" y="585" on="1"/>
        <pt x="232" y="585" on="0"/>
        <pt x="179" y="549" on="0"/>
        <pt x="165" y="459" on="0"/>
        <pt x="165" y="346" on="1"/>
        <pt x="165" y="231" on="0"/>
        <pt x="179" y="139" on="0"/>
        <pt x="232" y="104" on="0"/>
        <pt x="297" y="104" on="1"/>
      </contour>
    </TTGlyph>
    <TTGlyph name="d" xMin="55" yMin="-8" xMax="382" yMax="743">
      <contour>
        <pt x="144" y="-8" on="0"/>
        <pt x="79" y="35" on="0"/>
        <pt x="55" y="143" on="0"/>
        <pt x="55" y="255" on="1"/>
        <pt x="55" y="367" on="0"/>
        <pt x="79" y="475" on="0"/>
        <pt x="144" y="518" on="0"/>
        <pt x="212" y="518" on="1"/>
        <pt x="267" y="518" on="0"/>
        <pt x="331" y="482" on="0"/>
        <pt x="343" y="441" on="1"/>
        <pt x="347" y="441" on="1"/>
        <pt x="347" y="743" on="1"/>
        <pt x="382" y="743" on="1"/>
        <pt x="382" y="0" on="1"/>
        <pt x="354" y="0" on="1"/>
        <pt x="351" y="78" on="1"/>
        <pt x="347" y="78" on="1"/>
        <pt x="333" y="26" on="0"/>
        <pt x="265" y="-8" on="0"/>
        <pt x="212" y="-8" on="1"/>
      </contour>
      <contour>
        <pt x="268" y="24" on="0"/>
        <pt x="325" y="61" on="0"/>
        <pt x="335" y="100" on="1"/>
        <pt x="343" y="133" on="0"/>
        <pt x="347" y="206" on="0"/>
        <pt x="347" y="269" on="1"/>
        <pt x="347" y="355" on="0"/>
        <pt x="337" y="400" on="1"/>
        <pt x="325" y="446" on="0"/>
        <pt x="267" y="486" on="0"/>
        <pt x="215" y="486" on="1"/>
        <pt x="158" y="486" on="0"/>
        <pt x="108" y="454" on="0"/>
        <pt x="90" y="361" on="0"/>
        <pt x="90" y="255" on="1"/>
        <pt x="90" y="149" on="0"/>
        <pt x="108" y="56" on="0"/>
        <pt x="160" y="24" on="0"/>
        <pt x="219" y="24" on="1"/>
      </contour>
    </TTGlyph>
    <TTGlyph name="dagger" xMin="43" yMin="0" xMax="276" yMax="688">
      <contour>
        <pt x="139" y="466" on="1"/>
        <pt x="43" y="472" on="1"/>
        <pt x="43" y="496" on="1"/>
        <pt x="139" y="502" on="1"/>
        <pt x="145" y="688" on="1"/>
        <pt x="170" y="688" on="1"/>
        <pt x="176" y="502" on="1"/>
        <pt x="276" y="496" on="1"/>
        <pt x="276" y="472" on="1"/>
        <pt x="176" y="466" on="1"/>
        <pt x="170" y="0" on="1"/>
        <pt x="145" y="0" on="1"/>
      </contour>
    </TTGlyph>
    <TTGlyph name="daggerdbl" xMin="43" yMin="0" xMax="276" yMax="688">
      <contour>
        <pt x="139" y="186" on="1"/>
        <pt x="43" y="192" on="1"/>
        <pt x="43" y="216" on="1"/>
        <pt x="139" y="222" on="1"/>
        <pt x="139" y="466" on="1"/>
        <pt x="43" y="472" on="1"/>
        <pt x="43" y="496" on="1"/>
        <pt x="139" y="502" on="1"/>
        <pt x="145" y="688" on="1"/>
        <pt x="170" y="688" on="1"/>
        <pt x="176" y="502" on="1"/>
        <pt x="276" y="496" on="1"/>
        <pt x="276" y="472" on="1"/>
        <pt x="176" y="466" on="1"/>
        <pt x="176" y="222" on="1"/>
        <pt x="276" y="216" on="1"/>
        <pt x="276" y="192" on="1"/>
        <pt x="176" y="186" on="1"/>
        <pt x="170" y="0" on="1"/>
        <pt x="145" y="0" on="1"/>
      </contour>
    </TTGlyph>
    <TTGlyph name="dcaron" xMin="55" yMin="-8" xMax="471" yMax="743">
      <component glyphName="d" x="0" y="0" flags="0x0"/>
      <component glyphName="caron.loclCSY" x="384" y="0" flags="0x0"/>
    </TTGlyph>
    <TTGlyph name="dcroat" xMin="55" yMin="-8" xMax="441" yMax="743">
      <contour>
        <pt x="441" y="656" on="1"/>
        <pt x="382" y="656" on="1"/>
        <pt x="382" y="0" on="1"/>
        <pt x="354" y="0" on="1"/>
        <pt x="351" y="78" on="1"/>
        <pt x="347" y="78" on="1"/>
        <pt x="333" y="26" on="0"/>
        <pt x="265" y="-8" on="0"/>
        <pt x="212" y="-8" on="1"/>
        <pt x="144" y="-8" on="0"/>
        <pt x="79" y="35" on="0"/>
        <pt x="55" y="143" on="0"/>
        <pt x="55" y="255" on="1"/>
        <pt x="55" y="367" on="0"/>
        <pt x="79" y="475" on="0"/>
        <pt x="144" y="518" on="0"/>
        <pt x="212" y="518" on="1"/>
        <pt x="267" y="518" on="0"/>
        <pt x="331" y="482" on="0"/>
        <pt x="343" y="441" on="1"/>
        <pt x="347" y="441" on="1"/>
        <pt x="347" y="656" on="1"/>
        <pt x="219" y="656" on="1"/>
        <pt x="219" y="688" on="1"/>
        <pt x="347" y="688" on="1"/>
        <pt x="347" y="743" on="1"/>
        <pt x="382" y="743" on="1"/>
        <pt x="382" y="688" on="1"/>
        <pt x="441" y="688" on="1"/>
      </contour>
      <contour>
        <pt x="343" y="133" on="0"/>
        <pt x="347" y="206" on="0"/>
        <pt x="347" y="269" on="1"/>
        <pt x="347" y="355" on="0"/>
        <pt x="337" y="400" on="1"/>
        <pt x="325" y="446" on="0"/>
        <pt x="267" y="486" on="0"/>
        <pt x="215" y="486" on="1"/>
        <pt x="158" y="486" on="0"/>
        <pt x="108" y="454" on="0"/>
        <pt x="90" y="361" on="0"/>
        <pt x="90" y="255" on="1"/>
        <pt x="90" y="149" on="0"/>
        <pt x="108" y="56" on="0"/>
        <pt x="160" y="24" on="0"/>
        <pt x="219" y="24" on="1"/>
        <pt x="268" y="24" on="0"/>
        <pt x="325" y="61" on="0"/>
        <pt x="335" y="100" on="1"/>
      </contour>
    </TTGlyph>
    <TTGlyph name="degree" xMin="57" yMin="397" xMax="255" yMax="696">
      <contour>
        <pt x="110" y="397" on="0"/>
        <pt x="69" y="421" on="0"/>
        <pt x="57" y="480" on="0"/>
        <pt x="57" y="546" on="1"/>
        <pt x="57" y="612" on="0"/>
        <pt x="69" y="671" on="0"/>
        <pt x="110" y="696" on="0"/>
        <pt x="156" y="696" on="1"/>
        <pt x="202" y="696" on="0"/>
        <pt x="243" y="671" on="0"/>
        <pt x="255" y="612" on="0"/>
        <pt x="255" y="546" on="1"/>
        <pt x="255" y="480" on="0"/>
        <pt x="243" y="421" on="0"/>
        <pt x="202" y="397" on="0"/>
        <pt x="156" y="397" on="1"/>
      </contour>
      <contour>
        <pt x="189" y="428" on="0"/>
        <pt x="215" y="447" on="0"/>
        <pt x="221" y="490" on="0"/>
        <pt x="221" y="546" on="1"/>
        <pt x="221" y="602" on="0"/>
        <pt x="215" y="646" on="0"/>
        <pt x="189" y="665" on="0"/>
        <pt x="156" y="665" on="1"/>
        <pt x="123" y="665" on="0"/>
        <pt x="97" y="646" on="0"/>
        <pt x="91" y="602" on="0"/>
        <pt x="91" y="546" on="1"/>
        <pt x="91" y="490" on="0"/>
        <pt x="97" y="447" on="0"/>
        <pt x="123" y="428" on="0"/>
        <pt x="156" y="428" on="1"/>
      </contour>
    </TTGlyph>
    <TTGlyph name="dialog" xMin="59" yMin="-212" xMax="746" yMax="688">
      <contour>
        <pt x="306" y="-127" on="1"/>
        <pt x="494" y="60" on="1"/>
        <pt x="686" y="60" on="1"/>
        <pt x="686" y="628" on="1"/>
        <pt x="119" y="628" on="1"/>
        <pt x="119" y="60" on="1"/>
        <pt x="306" y="60" on="1"/>
        <pt x="306" y="0" on="1"/>
        <pt x="59" y="0" on="1"/>
        <pt x="59" y="688" on="1"/>
        <pt x="746" y="688" on="1"/>
        <pt x="746" y="0" on="1"/>
        <pt x="519" y="0" on="1"/>
        <pt x="306" y="-212" on="1"/>
      </contour>
    </TTGlyph>
    <TTGlyph name="dieresis" xMin="24" yMin="669" xMax="239" yMax="730">
      <contour>
        <pt x="24" y="730" on="1"/>
        <pt x="66" y="730" on="1"/>
        <pt x="66" y="669" on="1"/>
        <pt x="24" y="669" on="1"/>
      </contour>
      <contour>
        <pt x="197" y="730" on="1"/>
        <pt x="239" y="730" on="1"/>
        <pt x="239" y="669" on="1"/>
        <pt x="197" y="669" on="1"/>
      </contour>
    </TTGlyph>
    <TTGlyph name="divide" xMin="63" yMin="54" xMax="423" yMax="452">
      <contour>
        <pt x="222" y="452" on="1"/>
        <pt x="264" y="452" on="1"/>
        <pt x="264" y="397" on="1"/>
        <pt x="222" y="397" on="1"/>
      </contour>
      <contour>
        <pt x="63" y="269" on="1"/>
        <pt x="423" y="269" on="1"/>
        <pt x="423" y="237" on="1"/>
        <pt x="63" y="237" on="1"/>
      </contour>
      <contour>
        <pt x="222" y="109" on="1"/>
        <pt x="264" y="109" on="1"/>
        <pt x="264" y="54" on="1"/>
        <pt x="222" y="54" on="1"/>
      </contour>
    </TTGlyph>
    <TTGlyph name="dollar" xMin="60" yMin="-8" xMax="360" yMax="696">
      <contour>
        <pt x="360" y="135" on="0"/>
        <pt x="298" y="70" on="0"/>
        <pt x="231" y="67" on="1"/>
        <pt x="231" y="-8" on="1"/>
        <pt x="197" y="-8" on="1"/>
        <pt x="197" y="67" on="1"/>
        <pt x="113" y="71" on="0"/>
        <pt x="72" y="79" on="1"/>
        <pt x="72" y="113" on="1"/>
        <pt x="122" y="103" on="0"/>
        <pt x="197" y="100" on="1"/>
        <pt x="197" y="332" on="1"/>
        <pt x="148" y="339" on="1"/>
        <pt x="97" y="346" on="0"/>
        <pt x="60" y="402" on="0"/>
        <pt x="60" y="468" on="1"/>
        <pt x="60" y="550" on="0"/>
        <pt x="125" y="616" on="0"/>
        <pt x="197" y="619" on="1"/>
        <pt x="197" y="696" on="1"/>
        <pt x="231" y="696" on="1"/>
        <pt x="231" y="620" on="1"/>
        <pt x="298" y="618" on="0"/>
        <pt x="340" y="607" on="1"/>
        <pt x="340" y="573" on="1"/>
        <pt x="290" y="583" on="0"/>
        <pt x="231" y="585" on="1"/>
        <pt x="231" y="363" on="1"/>
        <pt x="274" y="357" on="1"/>
        <pt x="310" y="352" on="0"/>
        <pt x="346" y="327" on="0"/>
        <pt x="360" y="271" on="0"/>
        <pt x="360" y="215" on="1"/>
      </contour>
      <contour>
        <pt x="197" y="367" on="1"/>
        <pt x="197" y="586" on="1"/>
        <pt x="146" y="584" on="0"/>
        <pt x="96" y="539" on="0"/>
        <pt x="96" y="476" on="1"/>
        <pt x="96" y="433" on="0"/>
        <pt x="107" y="392" on="0"/>
        <pt x="131" y="376" on="0"/>
        <pt x="156" y="373" on="1"/>
      </contour>
      <contour>
        <pt x="282" y="103" on="0"/>
        <pt x="324" y="154" on="0"/>
        <pt x="324" y="215" on="1"/>
        <pt x="324" y="262" on="0"/>
        <pt x="314" y="305" on="0"/>
        <pt x="291" y="319" on="0"/>
        <pt x="267" y="322" on="1"/>
        <pt x="231" y="327" on="1"/>
        <pt x="231" y="100" on="1"/>
      </contour>
    </TTGlyph>
    <TTGlyph name="dotaccent" xMin="21" yMin="669" xMax="62" yMax="730">
      <contour>
        <pt x="21" y="730" on="1"/>
        <pt x="62" y="730" on="1"/>
        <pt x="62" y="669" on="1"/>
        <pt x="21" y="669" on="1"/>
      </contour>
    </TTGlyph>
    <TTGlyph name="dotbelowcomb" xMin="-103" yMin="-127" xMax="-57" yMax="-62">
      <contour>
        <pt x="-103" y="-62" on="1"/>
        <pt x="-57" y="-62" on="1"/>
        <pt x="-57" y="-127" on="1"/>
        <pt x="-103" y="-127" on="1"/>
      </contour>
    </TTGlyph>
    <TTGlyph name="dotlessi" xMin="73" yMin="0" xMax="108" yMax="510">
      <contour>
        <pt x="73" y="510" on="1"/>
        <pt x="108" y="510" on="1"/>
        <pt x="108" y="0" on="1"/>
        <pt x="73" y="0" on="1"/>
      </contour>
    </TTGlyph>
    <TTGlyph name="e" xMin="55" yMin="-8" xMax="376" yMax="518">
      <contour>
        <pt x="376" y="243" on="1"/>
        <pt x="90" y="243" on="1"/>
        <pt x="90" y="147" on="0"/>
        <pt x="108" y="60" on="0"/>
        <pt x="165" y="24" on="0"/>
        <pt x="229" y="24" on="1"/>
        <pt x="260" y="24" on="0"/>
        <pt x="335" y="32" on="0"/>
        <pt x="361" y="38" on="1"/>
        <pt x="361" y="5" on="1"/>
        <pt x="338" y="0" on="0"/>
        <pt x="261" y="-8" on="0"/>
        <pt x="225" y="-8" on="1"/>
        <pt x="150" y="-8" on="0"/>
        <pt x="79" y="35" on="0"/>
        <pt x="55" y="142" on="0"/>
        <pt x="55" y="254" on="1"/>
        <pt x="55" y="368" on="0"/>
        <pt x="73" y="470" on="0"/>
        <pt x="144" y="518" on="0"/>
        <pt x="225" y="518" on="1"/>
        <pt x="296" y="518" on="0"/>
        <pt x="359" y="473" on="0"/>
        <pt x="376" y="370" on="0"/>
        <pt x="376" y="256" on="1"/>
      </contour>
      <contour>
        <pt x="160" y="486" on="0"/>
        <pt x="107" y="456" on="0"/>
        <pt x="90" y="373" on="0"/>
        <pt x="90" y="275" on="1"/>
        <pt x="341" y="275" on="1"/>
        <pt x="341" y="296" on="1"/>
        <pt x="341" y="382" on="0"/>
        <pt x="320" y="461" on="0"/>
        <pt x="272" y="486" on="0"/>
        <pt x="222" y="486" on="1"/>
      </contour>
    </TTGlyph>
    <TTGlyph name="eacute" xMin="55" yMin="-8" xMax="376" yMax="743">
      <component glyphName="e" x="0" y="0" flags="0x0"/>
      <component glyphName="acute" x="198" y="0" flags="0x0"/>
    </TTGlyph>
    <TTGlyph name="ebreve" xMin="55" yMin="-8" xMax="376" yMax="743">
      <component glyphName="e" x="0" y="0" flags="0x0"/>
      <component glyphName="uni0306" x="324" y="0" flags="0x0"/>
    </TTGlyph>
    <TTGlyph name="ecaron" xMin="55" yMin="-8" xMax="376" yMax="743">
      <component glyphName="e" x="0" y="0" flags="0x0"/>
      <component glyphName="uni030C" x="324" y="0" flags="0x0"/>
    </TTGlyph>
    <TTGlyph name="ecircumflex" xMin="55" yMin="-8" xMax="376" yMax="743">
      <component glyphName="e" x="0" y="0" flags="0x0"/>
      <component glyphName="circumflex" x="107" y="0" flags="0x0"/>
    </TTGlyph>
    <TTGlyph name="edieresis" xMin="55" yMin="-8" xMax="376" yMax="730">
      <component glyphName="e" x="0" y="0" flags="0x0"/>
      <component glyphName="dieresis" x="87" y="0" flags="0x0"/>
    </TTGlyph>
    <TTGlyph name="edotaccent" xMin="55" yMin="-8" xMax="376" yMax="730">
      <component glyphName="e" x="0" y="0" flags="0x0"/>
      <component glyphName="uni0307" x="256" y="0" flags="0x0"/>
    </TTGlyph>
    <TTGlyph name="egrave" xMin="55" yMin="-8" xMax="376" yMax="743">
      <component glyphName="e" x="0" y="0" flags="0x0"/>
      <component glyphName="grave" x="134" y="0" flags="0x0"/>
    </TTGlyph>
    <TTGlyph name="eight" xMin="58" yMin="-8" xMax="433" yMax="696">
      <contour>
        <pt x="167" y="-8" on="0"/>
        <pt x="86" y="33" on="0"/>
        <pt x="58" y="113" on="0"/>
        <pt x="58" y="184" on="1"/>
        <pt x="58" y="243" on="0"/>
        <pt x="78" y="308" on="0"/>
        <pt x="117" y="340" on="0"/>
        <pt x="150" y="349" on="1"/>
        <pt x="150" y="353" on="1"/>
        <pt x="104" y="364" on="0"/>
        <pt x="63" y="440" on="0"/>
        <pt x="63" y="515" on="1"/>
        <pt x="63" y="582" on="0"/>
        <pt x="94" y="659" on="0"/>
        <pt x="173" y="696" on="0"/>
        <pt x="246" y="696" on="1"/>
        <pt x="319" y="696" on="0"/>
        <pt x="397" y="659" on="0"/>
        <pt x="428" y="582" on="0"/>
        <pt x="428" y="515" on="1"/>
        <pt x="428" y="440" on="0"/>
        <pt x="387" y="364" on="0"/>
        <pt x="342" y="353" on="1"/>
        <pt x="342" y="349" on="1"/>
        <pt x="375" y="340" on="0"/>
        <pt x="413" y="309" on="0"/>
        <pt x="433" y="243" on="0"/>
        <pt x="433" y="184" on="1"/>
        <pt x="433" y="113" on="0"/>
        <pt x="405" y="33" on="0"/>
        <pt x="325" y="-8" on="0"/>
        <pt x="246" y="-8" on="1"/>
      </contour>
      <contour>
        <pt x="306" y="365" on="0"/>
        <pt x="368" y="391" on="0"/>
        <pt x="392" y="453" on="0"/>
        <pt x="392" y="513" on="1"/>
        <pt x="392" y="573" on="0"/>
        <pt x="369" y="635" on="0"/>
        <pt x="307" y="662" on="0"/>
        <pt x="246" y="662" on="1"/>
        <pt x="184" y="662" on="0"/>
        <pt x="122" y="635" on="0"/>
        <pt x="99" y="573" on="0"/>
        <pt x="99" y="513" on="1"/>
        <pt x="99" y="454" on="0"/>
        <pt x="124" y="391" on="0"/>
        <pt x="186" y="365" on="0"/>
        <pt x="246" y="365" on="1"/>
      </contour>
      <contour>
        <pt x="306" y="26" on="0"/>
        <pt x="370" y="50" on="0"/>
        <pt x="397" y="114" on="0"/>
        <pt x="397" y="177" on="1"/>
        <pt x="397" y="245" on="0"/>
        <pt x="373" y="308" on="0"/>
        <pt x="311" y="331" on="0"/>
        <pt x="246" y="331" on="1"/>
        <pt x="181" y="331" on="0"/>
        <pt x="119" y="308" on="0"/>
        <pt x="94" y="244" on="0"/>
        <pt x="94" y="177" on="1"/>
        <pt x="94" y="114" on="0"/>
        <pt x="122" y="50" on="0"/>
        <pt x="185" y="26" on="0"/>
        <pt x="246" y="26" on="1"/>
      </contour>
    </TTGlyph>
    <TTGlyph name="eight.dnom" xMin="35" yMin="-4" xMax="263" yMax="382">
      <contour>
        <pt x="102" y="-4" on="0"/>
        <pt x="53" y="18" on="0"/>
        <pt x="35" y="63" on="0"/>
        <pt x="35" y="101" on="1"/>
        <pt x="35" y="147" on="0"/>
        <pt x="61" y="184" on="0"/>
        <pt x="90" y="192" on="1"/>
        <pt x="90" y="194" on="1"/>
        <pt x="63" y="200" on="0"/>
        <pt x="37" y="242" on="0"/>
        <pt x="37" y="283" on="1"/>
        <pt x="37" y="337" on="0"/>
        <pt x="85" y="382" on="0"/>
        <pt x="149" y="382" on="1"/>
        <pt x="212" y="382" on="0"/>
        <pt x="260" y="337" on="0"/>
        <pt x="260" y="283" on="1"/>
        <pt x="260" y="242" on="0"/>
        <pt x="235" y="200" on="0"/>
        <pt x="207" y="194" on="1"/>
        <pt x="207" y="192" on="1"/>
        <pt x="237" y="184" on="0"/>
        <pt x="263" y="147" on="0"/>
        <pt x="263" y="101" on="1"/>
        <pt x="263" y="63" on="0"/>
        <pt x="245" y="18" on="0"/>
        <pt x="196" y="-4" on="0"/>
        <pt x="149" y="-4" on="1"/>
      </contour>
      <contour>
        <pt x="181" y="206" on="0"/>
        <pt x="214" y="218" on="0"/>
        <pt x="226" y="248" on="0"/>
        <pt x="226" y="278" on="1"/>
        <pt x="226" y="308" on="0"/>
        <pt x="214" y="339" on="0"/>
        <pt x="182" y="352" on="0"/>
        <pt x="149" y="352" on="1"/>
        <pt x="116" y="352" on="0"/>
        <pt x="83" y="339" on="0"/>
        <pt x="71" y="308" on="0"/>
        <pt x="71" y="278" on="1"/>
        <pt x="71" y="248" on="0"/>
        <pt x="84" y="218" on="0"/>
        <pt x="117" y="206" on="0"/>
        <pt x="149" y="206" on="1"/>
      </contour>
      <contour>
        <pt x="182" y="26" on="0"/>
        <pt x="215" y="37" on="0"/>
        <pt x="230" y="68" on="0"/>
        <pt x="230" y="100" on="1"/>
        <pt x="230" y="133" on="0"/>
        <pt x="217" y="165" on="0"/>
        <pt x="183" y="176" on="0"/>
        <pt x="149" y="176" on="1"/>
        <pt x="114" y="176" on="0"/>
        <pt x="81" y="165" on="0"/>
        <pt x="68" y="133" on="0"/>
        <pt x="68" y="100" on="1"/>
        <pt x="68" y="68" on="0"/>
        <pt x="83" y="37" on="0"/>
        <pt x="116" y="26" on="0"/>
        <pt x="149" y="26" on="1"/>
      </contour>
    </TTGlyph>
    <TTGlyph name="eight.numr" xMin="35" yMin="304" xMax="263" yMax="690">
      <component glyphName="eight.dnom" x="0" y="308" flags="0x4"/>
    </TTGlyph>
    <TTGlyph name="eight.tnum" xMin="55" yMin="-8" xMax="430" yMax="696">
      <contour>
        <pt x="164" y="-8" on="0"/>
        <pt x="83" y="33" on="0"/>
        <pt x="55" y="113" on="0"/>
        <pt x="55" y="184" on="1"/>
        <pt x="55" y="243" on="0"/>
        <pt x="75" y="308" on="0"/>
        <pt x="114" y="340" on="0"/>
        <pt x="147" y="349" on="1"/>
        <pt x="147" y="353" on="1"/>
        <pt x="101" y="364" on="0"/>
        <pt x="60" y="440" on="0"/>
        <pt x="60" y="515" on="1"/>
        <pt x="60" y="582" on="0"/>
        <pt x="91" y="659" on="0"/>
        <pt x="170" y="696" on="0"/>
        <pt x="243" y="696" on="1"/>
        <pt x="316" y="696" on="0"/>
        <pt x="395" y="659" on="0"/>
        <pt x="426" y="582" on="0"/>
        <pt x="426" y="515" on="1"/>
        <pt x="426" y="440" on="0"/>
        <pt x="384" y="364" on="0"/>
        <pt x="339" y="353" on="1"/>
        <pt x="339" y="349" on="1"/>
        <pt x="372" y="340" on="0"/>
        <pt x="410" y="309" on="0"/>
        <pt x="430" y="243" on="0"/>
        <pt x="430" y="184" on="1"/>
        <pt x="430" y="113" on="0"/>
        <pt x="402" y="33" on="0"/>
        <pt x="322" y="-8" on="0"/>
        <pt x="243" y="-8" on="1"/>
      </contour>
      <contour>
        <pt x="303" y="365" on="0"/>
        <pt x="365" y="391" on="0"/>
        <pt x="390" y="454" on="0"/>
        <pt x="390" y="513" on="1"/>
        <pt x="390" y="573" on="0"/>
        <pt x="366" y="635" on="0"/>
        <pt x="304" y="662" on="0"/>
        <pt x="243" y="662" on="1"/>
        <pt x="181" y="662" on="0"/>
        <pt x="119" y="635" on="0"/>
        <pt x="96" y="573" on="0"/>
        <pt x="96" y="513" on="1"/>
        <pt x="96" y="454" on="0"/>
        <pt x="121" y="391" on="0"/>
        <pt x="183" y="365" on="0"/>
        <pt x="243" y="365" on="1"/>
      </contour>
      <contour>
        <pt x="303" y="26" on="0"/>
        <pt x="367" y="50" on="0"/>
        <pt x="394" y="114" on="0"/>
        <pt x="394" y="177" on="1"/>
        <pt x="394" y="245" on="0"/>
        <pt x="370" y="308" on="0"/>
        <pt x="308" y="331" on="0"/>
        <pt x="243" y="331" on="1"/>
        <pt x="178" y="331" on="0"/>
        <pt x="116" y="308" on="0"/>
        <pt x="91" y="244" on="0"/>
        <pt x="91" y="177" on="1"/>
        <pt x="91" y="114" on="0"/>
        <pt x="119" y="50" on="0"/>
        <pt x="182" y="26" on="0"/>
        <pt x="243" y="26" on="1"/>
      </contour>
    </TTGlyph>
    <TTGlyph name="ellipsis" xMin="57" yMin="0" xMax="422" yMax="65">
      <contour>
        <pt x="57" y="65" on="1"/>
        <pt x="103" y="65" on="1"/>
        <pt x="103" y="0" on="1"/>
        <pt x="57" y="0" on="1"/>
      </contour>
      <contour>
        <pt x="217" y="65" on="1"/>
        <pt x="262" y="65" on="1"/>
        <pt x="262" y="0" on="1"/>
        <pt x="217" y="0" on="1"/>
      </contour>
      <contour>
        <pt x="377" y="65" on="1"/>
        <pt x="422" y="65" on="1"/>
        <pt x="422" y="0" on="1"/>
        <pt x="377" y="0" on="1"/>
      </contour>
    </TTGlyph>
    <TTGlyph name="emacron" xMin="55" yMin="-8" xMax="376" yMax="743">
      <component glyphName="e" x="0" y="0" flags="0x0"/>
      <component glyphName="uni0304" x="369" y="0" flags="0x0"/>
    </TTGlyph>
    <TTGlyph name="emdash" xMin="62" yMin="287" xMax="762" yMax="321">
      <contour>
        <pt x="62" y="321" on="1"/>
        <pt x="762" y="321" on="1"/>
        <pt x="762" y="287" on="1"/>
        <pt x="62" y="287" on="1"/>
      </contour>
    </TTGlyph>
    <TTGlyph name="endash" xMin="62" yMin="287" xMax="361" yMax="321">
      <contour>
        <pt x="62" y="321" on="1"/>
        <pt x="361" y="321" on="1"/>
        <pt x="361" y="287" on="1"/>
        <pt x="62" y="287" on="1"/>
      </contour>
    </TTGlyph>
    <TTGlyph name="eng" xMin="73" yMin="-193" xMax="387" yMax="518">
      <contour>
        <pt x="306" y="518" on="0"/>
        <pt x="366" y="480" on="0"/>
        <pt x="387" y="398" on="0"/>
        <pt x="387" y="320" on="1"/>
        <pt x="387" y="-96" on="1"/>
        <pt x="387" y="-141" on="0"/>
        <pt x="365" y="-182" on="0"/>
        <pt x="321" y="-193" on="0"/>
        <pt x="278" y="-193" on="1"/>
        <pt x="278" y="-163" on="1"/>
        <pt x="312" y="-163" on="0"/>
        <pt x="343" y="-153" on="0"/>
        <pt x="352" y="-131" on="0"/>
        <pt x="352" y="-106" on="1"/>
        <pt x="352" y="315" on="1"/>
        <pt x="352" y="392" on="0"/>
        <pt x="335" y="462" on="0"/>
        <pt x="288" y="486" on="0"/>
        <pt x="236" y="486" on="1"/>
        <pt x="176" y="486" on="0"/>
        <pt x="120" y="430" on="0"/>
        <pt x="108" y="343" on="0"/>
        <pt x="108" y="264" on="1"/>
        <pt x="108" y="0" on="1"/>
        <pt x="73" y="0" on="1"/>
        <pt x="73" y="510" on="1"/>
        <pt x="100" y="510" on="1"/>
        <pt x="104" y="432" on="1"/>
        <pt x="108" y="432" on="1"/>
        <pt x="119" y="471" on="0"/>
        <pt x="178" y="518" on="0"/>
        <pt x="244" y="518" on="1"/>
      </contour>
    </TTGlyph>
    <TTGlyph name="eogonek" xMin="55" yMin="-196" xMax="376" yMax="518">
      <contour>
        <pt x="376" y="243" on="1"/>
        <pt x="90" y="243" on="1"/>
        <pt x="90" y="147" on="0"/>
        <pt x="108" y="60" on="0"/>
        <pt x="165" y="24" on="0"/>
        <pt x="229" y="24" on="1"/>
        <pt x="260" y="24" on="0"/>
        <pt x="335" y="32" on="0"/>
        <pt x="361" y="38" on="1"/>
        <pt x="361" y="5" on="1"/>
        <pt x="336" y="-15" on="0"/>
        <pt x="291" y="-89" on="0"/>
        <pt x="291" y="-119" on="1"/>
        <pt x="291" y="-139" on="0"/>
        <pt x="313" y="-164" on="0"/>
        <pt x="338" y="-164" on="1"/>
        <pt x="355" y="-163" on="1"/>
        <pt x="355" y="-195" on="1"/>
        <pt x="346" y="-196" on="0"/>
        <pt x="333" y="-196" on="1"/>
        <pt x="294" y="-196" on="0"/>
        <pt x="257" y="-157" on="0"/>
        <pt x="257" y="-126" on="1"/>
        <pt x="257" y="-96" on="0"/>
        <pt x="290" y="-30" on="0"/>
        <pt x="318" y="-2" on="1"/>
        <pt x="276" y="-8" on="0"/>
        <pt x="225" y="-8" on="1"/>
        <pt x="150" y="-8" on="0"/>
        <pt x="79" y="35" on="0"/>
        <pt x="55" y="142" on="0"/>
        <pt x="55" y="254" on="1"/>
        <pt x="55" y="368" on="0"/>
        <pt x="73" y="470" on="0"/>
        <pt x="144" y="518" on="0"/>
        <pt x="225" y="518" on="1"/>
        <pt x="296" y="518" on="0"/>
        <pt x="359" y="473" on="0"/>
        <pt x="376" y="370" on="0"/>
        <pt x="376" y="256" on="1"/>
      </contour>
      <contour>
        <pt x="160" y="486" on="0"/>
        <pt x="107" y="456" on="0"/>
        <pt x="90" y="373" on="0"/>
        <pt x="90" y="275" on="1"/>
        <pt x="341" y="275" on="1"/>
        <pt x="341" y="296" on="1"/>
        <pt x="341" y="382" on="0"/>
        <pt x="320" y="461" on="0"/>
        <pt x="272" y="486" on="0"/>
        <pt x="222" y="486" on="1"/>
      </contour>
    </TTGlyph>
    <TTGlyph name="equal" xMin="63" yMin="147" xMax="423" yMax="359">
      <contour>
        <pt x="63" y="359" on="1"/>
        <pt x="423" y="359" on="1"/>
        <pt x="423" y="327" on="1"/>
        <pt x="63" y="327" on="1"/>
      </contour>
      <contour>
        <pt x="63" y="179" on="1"/>
        <pt x="423" y="179" on="1"/>
        <pt x="423" y="147" on="1"/>
        <pt x="63" y="147" on="1"/>
      </contour>
    </TTGlyph>
    <TTGlyph name="estimated" xMin="63" yMin="-8" xMax="463" yMax="696">
      <contour>
        <pt x="100" y="175" on="0"/>
        <pt x="122" y="57" on="0"/>
        <pt x="184" y="26" on="0"/>
        <pt x="263" y="26" on="1"/>
        <pt x="329" y="26" on="0"/>
        <pt x="389" y="45" on="0"/>
        <pt x="420" y="117" on="0"/>
        <pt x="424" y="200" on="1"/>
        <pt x="460" y="200" on="1"/>
        <pt x="455" y="109" on="0"/>
        <pt x="420" y="23" on="0"/>
        <pt x="342" y="-8" on="0"/>
        <pt x="263" y="-8" on="1"/>
        <pt x="168" y="-8" on="0"/>
        <pt x="88" y="41" on="0"/>
        <pt x="63" y="179" on="0"/>
        <pt x="63" y="344" on="1"/>
        <pt x="63" y="509" on="0"/>
        <pt x="88" y="647" on="0"/>
        <pt x="168" y="696" on="0"/>
        <pt x="263" y="696" on="1"/>
        <pt x="358" y="696" on="0"/>
        <pt x="438" y="647" on="0"/>
        <pt x="463" y="508" on="0"/>
        <pt x="463" y="344" on="1"/>
        <pt x="463" y="323" on="1"/>
        <pt x="99" y="323" on="1"/>
      </contour>
      <contour>
        <pt x="184" y="662" on="0"/>
        <pt x="122" y="630" on="0"/>
        <pt x="100" y="509" on="0"/>
        <pt x="99" y="357" on="1"/>
        <pt x="427" y="357" on="1"/>
        <pt x="426" y="509" on="0"/>
        <pt x="404" y="630" on="0"/>
        <pt x="342" y="662" on="0"/>
        <pt x="263" y="662" on="1"/>
      </contour>
    </TTGlyph>
    <TTGlyph name="eth" xMin="55" yMin="-8" xMax="388" yMax="743">
      <contour>
        <pt x="142" y="-8" on="0"/>
        <pt x="74" y="34" on="0"/>
        <pt x="55" y="136" on="0"/>
        <pt x="55" y="254" on="1"/>
        <pt x="55" y="374" on="0"/>
        <pt x="74" y="477" on="0"/>
        <pt x="141" y="518" on="0"/>
        <pt x="221" y="518" on="1"/>
        <pt x="296" y="518" on="0"/>
        <pt x="330" y="482" on="1"/>
        <pt x="335" y="484" on="1"/>
        <pt x="312" y="578" on="0"/>
        <pt x="274" y="647" on="1"/>
        <pt x="170" y="630" on="1"/>
        <pt x="170" y="662" on="1"/>
        <pt x="256" y="675" on="1"/>
        <pt x="236" y="704" on="0"/>
        <pt x="206" y="739" on="1"/>
        <pt x="206" y="743" on="1"/>
        <pt x="247" y="743" on="1"/>
        <pt x="279" y="705" on="0"/>
        <pt x="294" y="682" on="1"/>
        <pt x="373" y="695" on="1"/>
        <pt x="373" y="663" on="1"/>
        <pt x="311" y="653" on="1"/>
        <pt x="338" y="601" on="0"/>
        <pt x="376" y="468" on="0"/>
        <pt x="382" y="406" on="1"/>
        <pt x="388" y="345" on="0"/>
        <pt x="388" y="279" on="1"/>
        <pt x="388" y="146" on="0"/>
        <pt x="371" y="38" on="0"/>
        <pt x="303" y="-8" on="0"/>
        <pt x="221" y="-8" on="1"/>
      </contour>
      <contour>
        <pt x="287" y="24" on="0"/>
        <pt x="341" y="60" on="0"/>
        <pt x="353" y="145" on="0"/>
        <pt x="353" y="254" on="1"/>
        <pt x="353" y="349" on="0"/>
        <pt x="340" y="437" on="0"/>
        <pt x="285" y="486" on="0"/>
        <pt x="221" y="486" on="1"/>
        <pt x="155" y="486" on="0"/>
        <pt x="102" y="452" on="0"/>
        <pt x="90" y="366" on="0"/>
        <pt x="90" y="254" on="1"/>
        <pt x="90" y="145" on="0"/>
        <pt x="102" y="60" on="0"/>
        <pt x="155" y="24" on="0"/>
        <pt x="221" y="24" on="1"/>
      </contour>
    </TTGlyph>
    <TTGlyph name="exclam" xMin="64" yMin="0" xMax="109" yMax="688">
      <contour>
        <pt x="67" y="416" on="0"/>
        <pt x="67" y="541" on="1"/>
        <pt x="67" y="688" on="1"/>
        <pt x="105" y="688" on="1"/>
        <pt x="105" y="541" on="1"/>
        <pt x="105" y="416" on="0"/>
        <pt x="100" y="173" on="1"/>
        <pt x="72" y="173" on="1"/>
      </contour>
      <contour>
        <pt x="64" y="65" on="1"/>
        <pt x="109" y="65" on="1"/>
        <pt x="109" y="0" on="1"/>
        <pt x="64" y="0" on="1"/>
      </contour>
    </TTGlyph>
    <TTGlyph name="exclam.case" xMin="64" yMin="0" xMax="109" yMax="688">
      <component glyphName="exclam" x="0" y="0" flags="0x0"/>
    </TTGlyph>
    <TTGlyph name="exclam.ss02" xMin="45" yMin="-8" xMax="749" yMax="696">
      <contour>
        <pt x="302" y="-8" on="0"/>
        <pt x="140" y="87" on="0"/>
        <pt x="45" y="249" on="0"/>
        <pt x="45" y="344" on="1"/>
        <pt x="45" y="439" on="0"/>
        <pt x="140" y="601" on="0"/>
        <pt x="302" y="696" on="0"/>
        <pt x="397" y="696" on="1"/>
        <pt x="492" y="696" on="0"/>
        <pt x="654" y="601" on="0"/>
        <pt x="749" y="439" on="0"/>
        <pt x="749" y="344" on="1"/>
        <pt x="749" y="249" on="0"/>
        <pt x="654" y="87" on="0"/>
        <pt x="492" y="-8" on="0"/>
        <pt x="397" y="-8" on="1"/>
      </contour>
      <contour>
        <pt x="480" y="37" on="0"/>
        <pt x="621" y="120" on="0"/>
        <pt x="704" y="261" on="0"/>
        <pt x="704" y="344" on="1"/>
        <pt x="704" y="427" on="0"/>
        <pt x="621" y="568" on="0"/>
        <pt x="480" y="651" on="0"/>
        <pt x="397" y="651" on="1"/>
        <pt x="314" y="651" on="0"/>
        <pt x="173" y="568" on="0"/>
        <pt x="90" y="427" on="0"/>
        <pt x="90" y="344" on="1"/>
        <pt x="90" y="261" on="0"/>
        <pt x="173" y="120" on="0"/>
        <pt x="314" y="37" on="0"/>
        <pt x="397" y="37" on="1"/>
      </contour>
      <contour>
        <pt x="371" y="310" on="0"/>
        <pt x="363" y="429" on="0"/>
        <pt x="363" y="480" on="1"/>
        <pt x="363" y="579" on="1"/>
        <pt x="431" y="579" on="1"/>
        <pt x="431" y="480" on="1"/>
        <pt x="431" y="429" on="0"/>
        <pt x="423" y="310" on="0"/>
        <pt x="417" y="268" on="1"/>
        <pt x="377" y="268" on="1"/>
      </contour>
      <contour>
        <pt x="363" y="191" on="1"/>
        <pt x="431" y="191" on="1"/>
        <pt x="431" y="109" on="1"/>
        <pt x="363" y="109" on="1"/>
      </contour>
    </TTGlyph>
    <TTGlyph name="exclamdbl" xMin="64" yMin="0" xMax="268" yMax="688">
      <component glyphName="exclam" x="159" y="0" flags="0x0"/>
      <component glyphName="exclam" x="0" y="0" flags="0x0"/>
    </TTGlyph>
    <TTGlyph name="exclamdown" xMin="64" yMin="-178" xMax="109" yMax="510">
      <contour>
        <pt x="64" y="510" on="1"/>
        <pt x="109" y="510" on="1"/>
        <pt x="109" y="445" on="1"/>
        <pt x="64" y="445" on="1"/>
      </contour>
      <contour>
        <pt x="67" y="-31" on="1"/>
        <pt x="67" y="94" on="0"/>
        <pt x="72" y="337" on="1"/>
        <pt x="100" y="337" on="1"/>
        <pt x="105" y="94" on="0"/>
        <pt x="105" y="-31" on="1"/>
        <pt x="105" y="-178" on="1"/>
        <pt x="67" y="-178" on="1"/>
      </contour>
    </TTGlyph>
    <TTGlyph name="exclamdown.case" xMin="64" yMin="0" xMax="109" yMax="688">
      <component glyphName="exclamdown" x="0" y="178" flags="0x4"/>
    </TTGlyph>
    <TTGlyph name="f" xMin="23" yMin="0" xMax="236" yMax="743">
      <contour>
        <pt x="102" y="478" on="1"/>
        <pt x="23" y="478" on="1"/>
        <pt x="23" y="510" on="1"/>
        <pt x="102" y="510" on="1"/>
        <pt x="102" y="625" on="1"/>
        <pt x="102" y="676" on="0"/>
        <pt x="132" y="727" on="0"/>
        <pt x="187" y="743" on="0"/>
        <pt x="236" y="743" on="1"/>
        <pt x="236" y="713" on="1"/>
        <pt x="196" y="713" on="0"/>
        <pt x="154" y="700" on="0"/>
        <pt x="137" y="665" on="0"/>
        <pt x="137" y="631" on="1"/>
        <pt x="137" y="510" on="1"/>
        <pt x="236" y="510" on="1"/>
        <pt x="236" y="478" on="1"/>
        <pt x="137" y="478" on="1"/>
        <pt x="137" y="0" on="1"/>
        <pt x="102" y="0" on="1"/>
      </contour>
    </TTGlyph>
    <TTGlyph name="f_f" xMin="23" yMin="0" xMax="497" yMax="743">
      <component glyphName="f" x="0" y="0" flags="0x0"/>
      <component glyphName="f" x="261" y="0" flags="0x0"/>
    </TTGlyph>
    <TTGlyph name="fi" xMin="23" yMin="0" xMax="372" yMax="743">
      <component glyphName="f" x="0" y="0" flags="0x0"/>
      <component glyphName="i" x="261" y="0" flags="0x0"/>
    </TTGlyph>
    <TTGlyph name="five" xMin="60" yMin="-8" xMax="386" yMax="688">
      <contour>
        <pt x="146" y="26" on="0"/>
        <pt x="202" y="26" on="1"/>
        <pt x="264" y="26" on="0"/>
        <pt x="327" y="58" on="0"/>
        <pt x="350" y="130" on="0"/>
        <pt x="350" y="197" on="1"/>
        <pt x="350" y="270" on="0"/>
        <pt x="325" y="337" on="0"/>
        <pt x="259" y="360" on="0"/>
        <pt x="187" y="360" on="1"/>
        <pt x="144" y="360" on="0"/>
        <pt x="66" y="345" on="1"/>
        <pt x="66" y="688" on="1"/>
        <pt x="349" y="688" on="1"/>
        <pt x="349" y="654" on="1"/>
        <pt x="102" y="654" on="1"/>
        <pt x="102" y="383" on="1"/>
        <pt x="144" y="394" on="0"/>
        <pt x="216" y="394" on="1"/>
        <pt x="290" y="394" on="0"/>
        <pt x="363" y="354" on="0"/>
        <pt x="386" y="276" on="0"/>
        <pt x="386" y="204" on="1"/>
        <pt x="386" y="121" on="0"/>
        <pt x="356" y="32" on="0"/>
        <pt x="277" y="-8" on="0"/>
        <pt x="202" y="-8" on="1"/>
        <pt x="171" y="-8" on="0"/>
        <pt x="90" y="0" on="0"/>
        <pt x="60" y="6" on="1"/>
        <pt x="60" y="38" on="1"/>
      </contour>
    </TTGlyph>
    <TTGlyph name="five.dnom" xMin="36" yMin="-4" xMax="236" yMax="377">
      <contour>
        <pt x="94" y="26" on="0"/>
        <pt x="120" y="26" on="1"/>
        <pt x="155" y="26" on="0"/>
        <pt x="190" y="41" on="0"/>
        <pt x="203" y="76" on="0"/>
        <pt x="203" y="110" on="1"/>
        <pt x="203" y="147" on="0"/>
        <pt x="189" y="180" on="0"/>
        <pt x="153" y="191" on="0"/>
        <pt x="113" y="191" on="1"/>
        <pt x="79" y="191" on="0"/>
        <pt x="40" y="184" on="1"/>
        <pt x="40" y="377" on="1"/>
        <pt x="215" y="377" on="1"/>
        <pt x="215" y="347" on="1"/>
        <pt x="71" y="347" on="1"/>
        <pt x="71" y="216" on="1"/>
        <pt x="96" y="221" on="0"/>
        <pt x="136" y="221" on="1"/>
        <pt x="179" y="221" on="0"/>
        <pt x="222" y="198" on="0"/>
        <pt x="236" y="154" on="0"/>
        <pt x="236" y="115" on="1"/>
        <pt x="236" y="69" on="0"/>
        <pt x="218" y="19" on="0"/>
        <pt x="170" y="-4" on="0"/>
        <pt x="124" y="-4" on="1"/>
        <pt x="76" y="-4" on="0"/>
        <pt x="36" y="4" on="1"/>
        <pt x="36" y="32" on="1"/>
      </contour>
    </TTGlyph>
    <TTGlyph name="five.numr" xMin="36" yMin="304" xMax="236" yMax="685">
      <contour>
        <pt x="94" y="334" on="0"/>
        <pt x="120" y="334" on="1"/>
        <pt x="155" y="334" on="0"/>
        <pt x="190" y="349" on="0"/>
        <pt x="203" y="384" on="0"/>
        <pt x="203" y="418" on="1"/>
        <pt x="203" y="455" on="0"/>
        <pt x="189" y="488" on="0"/>
        <pt x="153" y="499" on="0"/>
        <pt x="113" y="499" on="1"/>
        <pt x="79" y="499" on="0"/>
        <pt x="40" y="492" on="1"/>
        <pt x="40" y="685" on="1"/>
        <pt x="215" y="685" on="1"/>
        <pt x="215" y="655" on="1"/>
        <pt x="71" y="655" on="1"/>
        <pt x="71" y="524" on="1"/>
        <pt x="96" y="529" on="0"/>
        <pt x="136" y="529" on="1"/>
        <pt x="179" y="529" on="0"/>
        <pt x="222" y="506" on="0"/>
        <pt x="236" y="462" on="0"/>
        <pt x="236" y="423" on="1"/>
        <pt x="236" y="377" on="0"/>
        <pt x="218" y="327" on="0"/>
        <pt x="170" y="304" on="0"/>
        <pt x="124" y="304" on="1"/>
        <pt x="76" y="304" on="0"/>
        <pt x="36" y="312" on="1"/>
        <pt x="36" y="340" on="1"/>
      </contour>
    </TTGlyph>
    <TTGlyph name="five.tnum" xMin="82" yMin="-8" xMax="409" yMax="688">
      <contour>
        <pt x="168" y="26" on="0"/>
        <pt x="225" y="26" on="1"/>
        <pt x="287" y="26" on="0"/>
        <pt x="350" y="58" on="0"/>
        <pt x="373" y="130" on="0"/>
        <pt x="373" y="197" on="1"/>
        <pt x="373" y="270" on="0"/>
        <pt x="348" y="337" on="0"/>
        <pt x="282" y="360" on="0"/>
        <pt x="210" y="360" on="1"/>
        <pt x="167" y="360" on="0"/>
        <pt x="88" y="345" on="1"/>
        <pt x="88" y="688" on="1"/>
        <pt x="371" y="688" on="1"/>
        <pt x="371" y="654" on="1"/>
        <pt x="124" y="654" on="1"/>
        <pt x="124" y="383" on="1"/>
        <pt x="168" y="394" on="0"/>
        <pt x="238" y="394" on="1"/>
        <pt x="313" y="394" on="0"/>
        <pt x="386" y="354" on="0"/>
        <pt x="409" y="276" on="0"/>
        <pt x="409" y="204" on="1"/>
        <pt x="409" y="121" on="0"/>
        <pt x="379" y="32" on="0"/>
        <pt x="300" y="-8" on="0"/>
        <pt x="225" y="-8" on="1"/>
        <pt x="193" y="-8" on="0"/>
        <pt x="113" y="0" on="0"/>
        <pt x="82" y="6" on="1"/>
        <pt x="82" y="38" on="1"/>
      </contour>
    </TTGlyph>
    <TTGlyph name="fiveeighths" xMin="36" yMin="-4" xMax="647" yMax="688">
      <component glyphName="five.numr" x="0" y="0" flags="0x0"/>
      <component glyphName="fraction" x="266" y="0" flags="0x0"/>
      <component glyphName="eight.dnom" x="384" y="0" flags="0x0"/>
    </TTGlyph>
    <TTGlyph name="fl" xMin="23" yMin="0" xMax="369" yMax="743">
      <component glyphName="f" x="0" y="0" flags="0x0"/>
      <component glyphName="l" x="261" y="0" flags="0x0"/>
    </TTGlyph>
    <TTGlyph name="florin" xMin="-123" yMin="-190" xMax="308" yMax="743">
      <contour>
        <pt x="259" y="713" on="0"/>
        <pt x="214" y="691" on="0"/>
        <pt x="182" y="616" on="0"/>
        <pt x="164" y="534" on="1"/>
        <pt x="159" y="510" on="1"/>
        <pt x="258" y="510" on="1"/>
        <pt x="251" y="478" on="1"/>
        <pt x="152" y="478" on="1"/>
        <pt x="53" y="12" on="1"/>
        <pt x="33" y="-81" on="0"/>
        <pt x="-14" y="-167" on="0"/>
        <pt x="-72" y="-190" on="0"/>
        <pt x="-123" y="-190" on="1"/>
        <pt x="-116" y="-160" on="1"/>
        <pt x="-76" y="-160" on="0"/>
        <pt x="-32" y="-145" on="0"/>
        <pt x="-6" y="-105" on="0"/>
        <pt x="3" y="-63" on="1"/>
        <pt x="117" y="478" on="1"/>
        <pt x="38" y="478" on="1"/>
        <pt x="45" y="510" on="1"/>
        <pt x="124" y="510" on="1"/>
        <pt x="127" y="524" on="1"/>
        <pt x="149" y="625" on="0"/>
        <pt x="198" y="719" on="0"/>
        <pt x="257" y="743" on="0"/>
        <pt x="308" y="743" on="1"/>
        <pt x="301" y="713" on="1"/>
      </contour>
    </TTGlyph>
    <TTGlyph name="four" xMin="38" yMin="0" xMax="424" yMax="688">
      <contour>
        <pt x="309" y="176" on="1"/>
        <pt x="38" y="176" on="1"/>
        <pt x="38" y="207" on="1"/>
        <pt x="235" y="688" on="1"/>
        <pt x="273" y="688" on="1"/>
        <pt x="77" y="210" on="1"/>
        <pt x="310" y="210" on="1"/>
        <pt x="310" y="510" on="1"/>
        <pt x="345" y="510" on="1"/>
        <pt x="345" y="210" on="1"/>
        <pt x="424" y="210" on="1"/>
        <pt x="424" y="176" on="1"/>
        <pt x="345" y="176" on="1"/>
        <pt x="345" y="0" on="1"/>
        <pt x="309" y="0" on="1"/>
      </contour>
    </TTGlyph>
    <TTGlyph name="four.dnom" xMin="22" yMin="0" xMax="258" yMax="377">
      <contour>
        <pt x="180" y="91" on="1"/>
        <pt x="22" y="91" on="1"/>
        <pt x="22" y="118" on="1"/>
        <pt x="133" y="377" on="1"/>
        <pt x="168" y="377" on="1"/>
        <pt x="57" y="122" on="1"/>
        <pt x="180" y="122" on="1"/>
        <pt x="185" y="269" on="1"/>
        <pt x="213" y="269" on="1"/>
        <pt x="213" y="122" on="1"/>
        <pt x="258" y="122" on="1"/>
        <pt x="258" y="91" on="1"/>
        <pt x="213" y="91" on="1"/>
        <pt x="213" y="0" on="1"/>
        <pt x="180" y="0" on="1"/>
      </contour>
    </TTGlyph>
    <TTGlyph name="four.numr" xMin="22" yMin="308" xMax="258" yMax="685">
      <component glyphName="four.dnom" x="0" y="308" flags="0x4"/>
    </TTGlyph>
    <TTGlyph name="four.ss01" xMin="38" yMin="0" xMax="424" yMax="688">
      <contour>
        <pt x="424" y="210" on="1"/>
        <pt x="424" y="176" on="1"/>
        <pt x="345" y="176" on="1"/>
        <pt x="345" y="0" on="1"/>
        <pt x="309" y="0" on="1"/>
        <pt x="309" y="176" on="1"/>
        <pt x="38" y="176" on="1"/>
        <pt x="38" y="207" on="1"/>
        <pt x="310" y="688" on="1"/>
        <pt x="345" y="688" on="1"/>
        <pt x="345" y="210" on="1"/>
      </contour>
      <contour>
        <pt x="310" y="210" on="1"/>
        <pt x="310" y="614" on="1"/>
        <pt x="78" y="210" on="1"/>
      </contour>
    </TTGlyph>
    <TTGlyph name="four.tnum" xMin="44" yMin="0" xMax="444" yMax="688">
      <contour>
        <pt x="328" y="176" on="1"/>
        <pt x="44" y="176" on="1"/>
        <pt x="44" y="207" on="1"/>
        <pt x="254" y="688" on="1"/>
        <pt x="293" y="688" on="1"/>
        <pt x="83" y="210" on="1"/>
        <pt x="329" y="210" on="1"/>
        <pt x="329" y="510" on="1"/>
        <pt x="364" y="510" on="1"/>
        <pt x="364" y="210" on="1"/>
        <pt x="444" y="210" on="1"/>
        <pt x="444" y="176" on="1"/>
        <pt x="364" y="176" on="1"/>
        <pt x="364" y="0" on="1"/>
        <pt x="328" y="0" on="1"/>
      </contour>
    </TTGlyph>
    <TTGlyph name="fraction" xMin="-123" yMin="0" xMax="240" yMax="688">
      <contour>
        <pt x="206" y="688" on="1"/>
        <pt x="240" y="688" on="1"/>
        <pt x="-88" y="0" on="1"/>
        <pt x="-123" y="0" on="1"/>
      </contour>
    </TTGlyph>
    <TTGlyph name="g" xMin="55" yMin="-199" xMax="382" yMax="518">
      <contour>
        <pt x="120" y="-199" on="0"/>
        <pt x="65" y="-195" on="1"/>
        <pt x="65" y="-162" on="1"/>
        <pt x="127" y="-167" on="0"/>
        <pt x="198" y="-167" on="1"/>
        <pt x="265" y="-167" on="0"/>
        <pt x="327" y="-128" on="0"/>
        <pt x="347" y="-36" on="0"/>
        <pt x="347" y="61" on="1"/>
        <pt x="347" y="69" on="1"/>
        <pt x="343" y="69" on="1"/>
        <pt x="331" y="28" on="0"/>
        <pt x="267" y="-8" on="0"/>
        <pt x="212" y="-8" on="1"/>
        <pt x="144" y="-8" on="0"/>
        <pt x="79" y="35" on="0"/>
        <pt x="55" y="143" on="0"/>
        <pt x="55" y="255" on="1"/>
        <pt x="55" y="367" on="0"/>
        <pt x="79" y="475" on="0"/>
        <pt x="144" y="518" on="0"/>
        <pt x="212" y="518" on="1"/>
        <pt x="265" y="518" on="0"/>
        <pt x="333" y="484" on="0"/>
        <pt x="347" y="432" on="1"/>
        <pt x="351" y="432" on="1"/>
        <pt x="354" y="510" on="1"/>
        <pt x="382" y="510" on="1"/>
        <pt x="382" y="79" on="1"/>
        <pt x="382" y="-34" on="0"/>
        <pt x="356" y="-148" on="0"/>
        <pt x="280" y="-199" on="0"/>
        <pt x="202" y="-199" on="1"/>
      </contour>
      <contour>
        <pt x="268" y="24" on="0"/>
        <pt x="325" y="63" on="0"/>
        <pt x="335" y="105" on="1"/>
        <pt x="342" y="134" on="0"/>
        <pt x="347" y="204" on="0"/>
        <pt x="347" y="255" on="1"/>
        <pt x="347" y="307" on="0"/>
        <pt x="344" y="373" on="0"/>
        <pt x="338" y="398" on="1"/>
        <pt x="326" y="445" on="0"/>
        <pt x="269" y="486" on="0"/>
        <pt x="219" y="486" on="1"/>
        <pt x="160" y="486" on="0"/>
        <pt x="108" y="454" on="0"/>
        <pt x="90" y="361" on="0"/>
        <pt x="90" y="255" on="1"/>
        <pt x="90" y="149" on="0"/>
        <pt x="108" y="56" on="0"/>
        <pt x="160" y="24" on="0"/>
        <pt x="219" y="24" on="1"/>
      </contour>
    </TTGlyph>
    <TTGlyph name="g_tilde.loclGUA" xMin="55" yMin="-199" xMax="382" yMax="743">
      <component glyphName="g" x="0" y="0" flags="0x0"/>
      <component glyphName="tildecomb" x="365" y="0" flags="0x0"/>
    </TTGlyph>
    <TTGlyph name="gbreve" xMin="55" yMin="-199" xMax="382" yMax="743">
      <component glyphName="g" x="0" y="0" flags="0x0"/>
      <component glyphName="uni0306" x="336" y="0" flags="0x0"/>
    </TTGlyph>
    <TTGlyph name="gcaron" xMin="55" yMin="-199" xMax="382" yMax="743">
      <component glyphName="g" x="0" y="0" flags="0x0"/>
      <component glyphName="uni030C" x="336" y="0" flags="0x0"/>
    </TTGlyph>
    <TTGlyph name="gcircumflex" xMin="55" yMin="-199" xMax="382" yMax="743">
      <component glyphName="g" x="0" y="0" flags="0x0"/>
      <component glyphName="uni0302" x="336" y="0" flags="0x0"/>
    </TTGlyph>
    <TTGlyph name="gcommaaccent" xMin="55" yMin="-199" xMax="382" yMax="772">
      <component glyphName="g" x="0" y="0" flags="0x0"/>
      <component glyphName="uni0312" x="566" y="0" flags="0x0"/>
    </TTGlyph>
    <TTGlyph name="gdotaccent" xMin="55" yMin="-199" xMax="382" yMax="730">
      <component glyphName="g" x="0" y="0" flags="0x0"/>
      <component glyphName="uni0307" x="268" y="0" flags="0x0"/>
    </TTGlyph>
    <TTGlyph name="germandbls" xMin="73" yMin="0" xMax="412" yMax="750">
      <contour>
        <pt x="194" y="0" on="1"/>
        <pt x="194" y="32" on="1"/>
        <pt x="241" y="32" on="1"/>
        <pt x="305" y="32" on="0"/>
        <pt x="359" y="58" on="0"/>
        <pt x="377" y="140" on="0"/>
        <pt x="377" y="236" on="1"/>
        <pt x="377" y="311" on="0"/>
        <pt x="354" y="392" on="0"/>
        <pt x="302" y="426" on="0"/>
        <pt x="253" y="426" on="1"/>
        <pt x="223" y="426" on="1"/>
        <pt x="223" y="458" on="1"/>
        <pt x="253" y="458" on="1"/>
        <pt x="316" y="458" on="0"/>
        <pt x="370" y="517" on="0"/>
        <pt x="370" y="586" on="1"/>
        <pt x="370" y="636" on="0"/>
        <pt x="346" y="693" on="0"/>
        <pt x="290" y="718" on="0"/>
        <pt x="240" y="718" on="1"/>
        <pt x="191" y="718" on="0"/>
        <pt x="134" y="689" on="0"/>
        <pt x="107" y="618" on="0"/>
        <pt x="107" y="555" on="1"/>
        <pt x="107" y="0" on="1"/>
        <pt x="73" y="0" on="1"/>
        <pt x="73" y="551" on="1"/>
        <pt x="73" y="626" on="0"/>
        <pt x="107" y="712" on="0"/>
        <pt x="181" y="750" on="0"/>
        <pt x="242" y="750" on="1"/>
        <pt x="331" y="750" on="0"/>
        <pt x="405" y="676" on="0"/>
        <pt x="405" y="584" on="1"/>
        <pt x="405" y="519" on="0"/>
        <pt x="362" y="456" on="0"/>
        <pt x="314" y="447" on="1"/>
        <pt x="314" y="443" on="1"/>
        <pt x="364" y="433" on="0"/>
        <pt x="412" y="342" on="0"/>
        <pt x="412" y="245" on="1"/>
        <pt x="412" y="146" on="0"/>
        <pt x="389" y="45" on="0"/>
        <pt x="323" y="0" on="0"/>
        <pt x="255" y="0" on="1"/>
      </contour>
    </TTGlyph>
    <TTGlyph name="grave" xMin="7" yMin="605" xMax="106" yMax="743">
      <contour>
        <pt x="7" y="738" on="1"/>
        <pt x="7" y="743" on="1"/>
        <pt x="49" y="743" on="1"/>
        <pt x="106" y="610" on="1"/>
        <pt x="106" y="605" on="1"/>
        <pt x="82" y="605" on="1"/>
      </contour>
    </TTGlyph>
    <TTGlyph name="gravecomb" xMin="-105" yMin="605" xMax="-6" yMax="743">
      <contour>
        <pt x="-105" y="738" on="1"/>
        <pt x="-105" y="743" on="1"/>
        <pt x="-63" y="743" on="1"/>
        <pt x="-6" y="610" on="1"/>
        <pt x="-6" y="605" on="1"/>
        <pt x="-30" y="605" on="1"/>
      </contour>
    </TTGlyph>
    <TTGlyph name="gravecomb.case" xMin="-105" yMin="750" xMax="-6" yMax="888">
      <contour>
        <pt x="-105" y="883" on="1"/>
        <pt x="-105" y="888" on="1"/>
        <pt x="-63" y="888" on="1"/>
        <pt x="-6" y="755" on="1"/>
        <pt x="-6" y="750" on="1"/>
        <pt x="-30" y="750" on="1"/>
      </contour>
    </TTGlyph>
    <TTGlyph name="greater" xMin="63" yMin="66" xMax="423" yMax="440">
      <contour>
        <pt x="63" y="103" on="1"/>
        <pt x="393" y="253" on="1"/>
        <pt x="63" y="403" on="1"/>
        <pt x="63" y="440" on="1"/>
        <pt x="423" y="276" on="1"/>
        <pt x="423" y="230" on="1"/>
        <pt x="63" y="66" on="1"/>
      </contour>
    </TTGlyph>
    <TTGlyph name="greaterequal" xMin="63" yMin="30" xMax="424" yMax="561">
      <contour>
        <pt x="63" y="224" on="1"/>
        <pt x="393" y="374" on="1"/>
        <pt x="63" y="524" on="1"/>
        <pt x="63" y="561" on="1"/>
        <pt x="423" y="397" on="1"/>
        <pt x="423" y="351" on="1"/>
        <pt x="63" y="187" on="1"/>
      </contour>
      <contour>
        <pt x="64" y="62" on="1"/>
        <pt x="424" y="62" on="1"/>
        <pt x="424" y="30" on="1"/>
        <pt x="64" y="30" on="1"/>
      </contour>
    </TTGlyph>
    <TTGlyph name="guillemotleft" xMin="36" yMin="99" xMax="283" yMax="510">
      <contour>
        <pt x="36" y="304" on="1"/>
        <pt x="136" y="510" on="1"/>
        <pt x="165" y="510" on="1"/>
        <pt x="78" y="304" on="1"/>
        <pt x="165" y="99" on="1"/>
        <pt x="136" y="99" on="1"/>
      </contour>
      <contour>
        <pt x="154" y="304" on="1"/>
        <pt x="253" y="510" on="1"/>
        <pt x="283" y="510" on="1"/>
        <pt x="196" y="304" on="1"/>
        <pt x="283" y="99" on="1"/>
        <pt x="253" y="99" on="1"/>
      </contour>
    </TTGlyph>
    <TTGlyph name="guillemotright" xMin="60" yMin="99" xMax="306" yMax="510">
      <contour>
        <pt x="147" y="304" on="1"/>
        <pt x="60" y="510" on="1"/>
        <pt x="90" y="510" on="1"/>
        <pt x="189" y="304" on="1"/>
        <pt x="90" y="99" on="1"/>
        <pt x="60" y="99" on="1"/>
      </contour>
      <contour>
        <pt x="265" y="304" on="1"/>
        <pt x="178" y="510" on="1"/>
        <pt x="207" y="510" on="1"/>
        <pt x="306" y="304" on="1"/>
        <pt x="207" y="99" on="1"/>
        <pt x="178" y="99" on="1"/>
      </contour>
    </TTGlyph>
    <TTGlyph name="guilsinglleft" xMin="36" yMin="99" xMax="165" yMax="510">
      <contour>
        <pt x="36" y="304" on="1"/>
        <pt x="136" y="510" on="1"/>
        <pt x="165" y="510" on="1"/>
        <pt x="78" y="304" on="1"/>
        <pt x="165" y="99" on="1"/>
        <pt x="136" y="99" on="1"/>
      </contour>
    </TTGlyph>
    <TTGlyph name="guilsinglright" xMin="60" yMin="99" xMax="189" yMax="510">
      <contour>
        <pt x="147" y="304" on="1"/>
        <pt x="60" y="510" on="1"/>
        <pt x="90" y="510" on="1"/>
        <pt x="189" y="304" on="1"/>
        <pt x="90" y="99" on="1"/>
        <pt x="60" y="99" on="1"/>
      </contour>
    </TTGlyph>
    <TTGlyph name="h" xMin="73" yMin="0" xMax="387" yMax="743">
      <contour>
        <pt x="352" y="315" on="1"/>
        <pt x="352" y="392" on="0"/>
        <pt x="335" y="462" on="0"/>
        <pt x="288" y="486" on="0"/>
        <pt x="236" y="486" on="1"/>
        <pt x="176" y="486" on="0"/>
        <pt x="120" y="430" on="0"/>
        <pt x="108" y="343" on="0"/>
        <pt x="108" y="264" on="1"/>
        <pt x="108" y="0" on="1"/>
        <pt x="73" y="0" on="1"/>
        <pt x="73" y="743" on="1"/>
        <pt x="108" y="743" on="1"/>
        <pt x="108" y="444" on="1"/>
        <pt x="112" y="444" on="1"/>
        <pt x="136" y="518" on="0"/>
        <pt x="244" y="518" on="1"/>
        <pt x="306" y="518" on="0"/>
        <pt x="366" y="480" on="0"/>
        <pt x="387" y="398" on="0"/>
        <pt x="387" y="320" on="1"/>
        <pt x="387" y="0" on="1"/>
        <pt x="352" y="0" on="1"/>
      </contour>
    </TTGlyph>
    <TTGlyph name="hbar" xMin="14" yMin="0" xMax="387" yMax="743">
      <contour>
        <pt x="306" y="518" on="0"/>
        <pt x="366" y="480" on="0"/>
        <pt x="387" y="398" on="0"/>
        <pt x="387" y="320" on="1"/>
        <pt x="387" y="0" on="1"/>
        <pt x="352" y="0" on="1"/>
        <pt x="352" y="315" on="1"/>
        <pt x="352" y="392" on="0"/>
        <pt x="335" y="462" on="0"/>
        <pt x="288" y="486" on="0"/>
        <pt x="236" y="486" on="1"/>
        <pt x="176" y="486" on="0"/>
        <pt x="120" y="430" on="0"/>
        <pt x="108" y="343" on="0"/>
        <pt x="108" y="264" on="1"/>
        <pt x="108" y="0" on="1"/>
        <pt x="73" y="0" on="1"/>
        <pt x="73" y="656" on="1"/>
        <pt x="14" y="656" on="1"/>
        <pt x="14" y="688" on="1"/>
        <pt x="73" y="688" on="1"/>
        <pt x="73" y="743" on="1"/>
        <pt x="108" y="743" on="1"/>
        <pt x="108" y="688" on="1"/>
        <pt x="236" y="688" on="1"/>
        <pt x="236" y="656" on="1"/>
        <pt x="108" y="656" on="1"/>
        <pt x="108" y="444" on="1"/>
        <pt x="112" y="444" on="1"/>
        <pt x="136" y="518" on="0"/>
        <pt x="244" y="518" on="1"/>
      </contour>
    </TTGlyph>
    <TTGlyph name="hcircumflex" xMin="-12" yMin="0" xMax="387" yMax="921">
      <component glyphName="h" x="0" y="0" flags="0x0"/>
      <component glyphName="uni0302" x="200" y="178" flags="0x4"/>
    </TTGlyph>
    <TTGlyph name="hookabovecomb" xMin="-200" yMin="609" xMax="-13" yMax="779">
      <contour>
        <pt x="-143" y="618" on="1"/>
        <pt x="-143" y="639" on="0"/>
        <pt x="-127" y="656" on="0"/>
        <pt x="-106" y="662" on="1"/>
        <pt x="-90" y="666" on="1"/>
        <pt x="-62" y="674" on="0"/>
        <pt x="-44" y="690" on="0"/>
        <pt x="-44" y="711" on="1"/>
        <pt x="-44" y="729" on="0"/>
        <pt x="-55" y="745" on="0"/>
        <pt x="-85" y="751" on="0"/>
        <pt x="-118" y="751" on="1"/>
        <pt x="-136" y="751" on="0"/>
        <pt x="-200" y="747" on="1"/>
        <pt x="-200" y="773" on="1"/>
        <pt x="-142" y="779" on="0"/>
        <pt x="-112" y="779" on="1"/>
        <pt x="-54" y="779" on="0"/>
        <pt x="-13" y="752" on="0"/>
        <pt x="-13" y="716" on="1"/>
        <pt x="-13" y="687" on="0"/>
        <pt x="-28" y="659" on="0"/>
        <pt x="-58" y="649" on="1"/>
        <pt x="-74" y="645" on="1"/>
        <pt x="-94" y="639" on="0"/>
        <pt x="-111" y="631" on="0"/>
        <pt x="-115" y="620" on="0"/>
        <pt x="-115" y="609" on="1"/>
        <pt x="-143" y="609" on="1"/>
      </contour>
    </TTGlyph>
    <TTGlyph name="hookabovecomb.case" xMin="-200" yMin="738" xMax="-13" yMax="907">
      <contour>
        <pt x="-143" y="747" on="1"/>
        <pt x="-143" y="768" on="0"/>
        <pt x="-127" y="784" on="0"/>
        <pt x="-106" y="790" on="1"/>
        <pt x="-90" y="795" on="1"/>
        <pt x="-62" y="803" on="0"/>
        <pt x="-44" y="819" on="0"/>
        <pt x="-44" y="840" on="1"/>
        <pt x="-44" y="858" on="0"/>
        <pt x="-55" y="874" on="0"/>
        <pt x="-85" y="880" on="0"/>
        <pt x="-118" y="880" on="1"/>
        <pt x="-147" y="880" on="0"/>
        <pt x="-200" y="875" on="1"/>
        <pt x="-200" y="901" on="1"/>
        <pt x="-157" y="907" on="0"/>
        <pt x="-112" y="907" on="1"/>
        <pt x="-54" y="907" on="0"/>
        <pt x="-13" y="880" on="0"/>
        <pt x="-13" y="845" on="1"/>
        <pt x="-13" y="815" on="0"/>
        <pt x="-28" y="787" on="0"/>
        <pt x="-58" y="778" on="1"/>
        <pt x="-74" y="773" on="1"/>
        <pt x="-95" y="767" on="0"/>
        <pt x="-111" y="759" on="0"/>
        <pt x="-115" y="749" on="0"/>
        <pt x="-115" y="738" on="1"/>
        <pt x="-143" y="738" on="1"/>
      </contour>
    </TTGlyph>
    <TTGlyph name="house" xMin="36" yMin="0" xMax="484" yMax="695">
      <contour>
        <pt x="36" y="375" on="1"/>
        <pt x="244" y="695" on="1"/>
        <pt x="276" y="695" on="1"/>
        <pt x="484" y="375" on="1"/>
        <pt x="484" y="0" on="1"/>
        <pt x="36" y="0" on="1"/>
      </contour>
      <contour>
        <pt x="448" y="33" on="1"/>
        <pt x="448" y="368" on="1"/>
        <pt x="261" y="656" on="1"/>
        <pt x="72" y="368" on="1"/>
        <pt x="72" y="33" on="1"/>
      </contour>
    </TTGlyph>
    <TTGlyph name="hungarumlaut" xMin="22" yMin="609" xMax="250" yMax="734">
      <contour>
        <pt x="22" y="614" on="1"/>
        <pt x="78" y="734" on="1"/>
        <pt x="120" y="734" on="1"/>
        <pt x="120" y="729" on="1"/>
        <pt x="46" y="609" on="1"/>
        <pt x="22" y="609" on="1"/>
      </contour>
      <contour>
        <pt x="153" y="614" on="1"/>
        <pt x="209" y="734" on="1"/>
        <pt x="250" y="734" on="1"/>
        <pt x="250" y="729" on="1"/>
        <pt x="177" y="609" on="1"/>
        <pt x="153" y="609" on="1"/>
      </contour>
    </TTGlyph>
    <TTGlyph name="hyphen" xMin="62" yMin="268" xMax="246" yMax="304">
      <contour>
        <pt x="62" y="304" on="1"/>
        <pt x="246" y="304" on="1"/>
        <pt x="246" y="268" on="1"/>
        <pt x="62" y="268" on="1"/>
      </contour>
    </TTGlyph>
    <TTGlyph name="i" xMin="70" yMin="0" xMax="111" yMax="743">
      <contour>
        <pt x="70" y="743" on="1"/>
        <pt x="111" y="743" on="1"/>
        <pt x="111" y="682" on="1"/>
        <pt x="70" y="682" on="1"/>
      </contour>
      <contour>
        <pt x="73" y="510" on="1"/>
        <pt x="108" y="510" on="1"/>
        <pt x="108" y="0" on="1"/>
        <pt x="73" y="0" on="1"/>
      </contour>
    </TTGlyph>
    <TTGlyph name="i.loclTRK" xMin="70" yMin="0" xMax="111" yMax="730">
      <component glyphName="dotlessi" x="0" y="0" flags="0x0"/>
      <component glyphName="uni0307" x="132" y="0" flags="0x0"/>
    </TTGlyph>
    <TTGlyph name="iacute" xMin="72" yMin="0" xMax="171" yMax="743">
      <component glyphName="dotlessi" x="0" y="0" flags="0x0"/>
      <component glyphName="acute" x="65" y="0" flags="0x0"/>
    </TTGlyph>
    <TTGlyph name="iacute_j.loclNLD" xMin="73" yMin="-193" xMax="356" yMax="743">
      <component glyphName="dotlessi" x="0" y="0" flags="0x0"/>
      <component glyphName="acutecomb" x="181" y="0" flags="0x0"/>
      <component glyphName="uni0237" x="181" y="0" flags="0x0"/>
      <component glyphName="acutecomb" x="362" y="0" flags="0x0"/>
    </TTGlyph>
    <TTGlyph name="ibreve" xMin="-13" yMin="0" xMax="194" yMax="743">
      <component glyphName="dotlessi" x="0" y="0" flags="0x0"/>
      <component glyphName="uni0306" x="200" y="0" flags="0x0"/>
    </TTGlyph>
    <TTGlyph name="icircumflex" xMin="-12" yMin="0" xMax="194" yMax="743">
      <component glyphName="dotlessi" x="0" y="0" flags="0x0"/>
      <component glyphName="circumflex" x="-19" y="0" flags="0x0"/>
    </TTGlyph>
    <TTGlyph name="idieresis" xMin="-17" yMin="0" xMax="198" yMax="730">
      <component glyphName="dotlessi" x="0" y="0" flags="0x0"/>
      <component glyphName="dieresis" x="-41" y="0" flags="0x0"/>
    </TTGlyph>
    <TTGlyph name="igrave" xMin="11" yMin="0" xMax="110" yMax="743">
      <component glyphName="dotlessi" x="0" y="0" flags="0x0"/>
      <component glyphName="grave" x="4" y="0" flags="0x0"/>
    </TTGlyph>
    <TTGlyph name="ij" xMin="70" yMin="-193" xMax="292" yMax="743">
      <component glyphName="i" x="0" y="0" flags="0x0"/>
      <component glyphName="j" x="181" y="0" flags="0x0"/>
    </TTGlyph>
    <TTGlyph name="imacron" xMin="-1" yMin="0" xMax="183" yMax="743">
      <component glyphName="dotlessi" x="0" y="0" flags="0x0"/>
      <component glyphName="uni0304" x="245" y="0" flags="0x0"/>
    </TTGlyph>
    <TTGlyph name="infinity" xMin="57" yMin="57" xMax="738" yMax="455">
      <contour>
        <pt x="126" y="57" on="0"/>
        <pt x="57" y="154" on="0"/>
        <pt x="57" y="256" on="1"/>
        <pt x="57" y="358" on="0"/>
        <pt x="126" y="455" on="0"/>
        <pt x="215" y="455" on="1"/>
        <pt x="292" y="455" on="0"/>
        <pt x="373" y="378" on="0"/>
        <pt x="397" y="310" on="1"/>
        <pt x="422" y="378" on="0"/>
        <pt x="503" y="455" on="0"/>
        <pt x="580" y="455" on="1"/>
        <pt x="669" y="455" on="0"/>
        <pt x="738" y="358" on="0"/>
        <pt x="738" y="256" on="1"/>
        <pt x="738" y="154" on="0"/>
        <pt x="669" y="57" on="0"/>
        <pt x="580" y="57" on="1"/>
        <pt x="503" y="57" on="0"/>
        <pt x="422" y="133" on="0"/>
        <pt x="397" y="202" on="1"/>
        <pt x="373" y="134" on="0"/>
        <pt x="292" y="57" on="0"/>
        <pt x="215" y="57" on="1"/>
      </contour>
      <contour>
        <pt x="287" y="89" on="0"/>
        <pt x="358" y="177" on="0"/>
        <pt x="379" y="256" on="1"/>
        <pt x="358" y="335" on="0"/>
        <pt x="287" y="423" on="0"/>
        <pt x="215" y="423" on="1"/>
        <pt x="144" y="423" on="0"/>
        <pt x="92" y="341" on="0"/>
        <pt x="92" y="256" on="1"/>
        <pt x="92" y="171" on="0"/>
        <pt x="144" y="89" on="0"/>
        <pt x="215" y="89" on="1"/>
      </contour>
      <contour>
        <pt x="651" y="89" on="0"/>
        <pt x="703" y="171" on="0"/>
        <pt x="703" y="256" on="1"/>
        <pt x="703" y="341" on="0"/>
        <pt x="651" y="423" on="0"/>
        <pt x="580" y="423" on="1"/>
        <pt x="509" y="423" on="0"/>
        <pt x="437" y="334" on="0"/>
        <pt x="416" y="256" on="1"/>
        <pt x="437" y="178" on="0"/>
        <pt x="509" y="89" on="0"/>
        <pt x="580" y="89" on="1"/>
      </contour>
    </TTGlyph>
    <TTGlyph name="integral" xMin="67" yMin="-190" xMax="266" yMax="696">
      <contour>
        <pt x="67" y="-160" on="1"/>
        <pt x="126" y="-160" on="0"/>
        <pt x="169" y="-137" on="0"/>
        <pt x="169" y="-104" on="1"/>
        <pt x="165" y="-24" on="1"/>
        <pt x="129" y="573" on="1"/>
        <pt x="128" y="607" on="1"/>
        <pt x="128" y="646" on="0"/>
        <pt x="161" y="685" on="0"/>
        <pt x="218" y="696" on="0"/>
        <pt x="266" y="696" on="1"/>
        <pt x="266" y="666" on="1"/>
        <pt x="207" y="666" on="0"/>
        <pt x="164" y="643" on="0"/>
        <pt x="164" y="610" on="1"/>
        <pt x="165" y="576" on="1"/>
        <pt x="200" y="-21" on="1"/>
        <pt x="204" y="-101" on="1"/>
        <pt x="204" y="-141" on="0"/>
        <pt x="172" y="-179" on="0"/>
        <pt x="116" y="-190" on="0"/>
        <pt x="67" y="-190" on="1"/>
      </contour>
    </TTGlyph>
    <TTGlyph name="iogonek" xMin="11" yMin="-196" xMax="111" yMax="730">
      <contour>
        <pt x="111" y="730" on="1"/>
        <pt x="111" y="669" on="1"/>
        <pt x="70" y="669" on="1"/>
        <pt x="70" y="730" on="1"/>
      </contour>
      <contour>
        <pt x="45" y="-164" on="0"/>
        <pt x="92" y="-164" on="1"/>
        <pt x="109" y="-163" on="1"/>
        <pt x="109" y="-195" on="1"/>
        <pt x="100" y="-196" on="0"/>
        <pt x="87" y="-196" on="1"/>
        <pt x="48" y="-196" on="0"/>
        <pt x="11" y="-157" on="0"/>
        <pt x="11" y="-124" on="1"/>
        <pt x="11" y="-95" on="0"/>
        <pt x="45" y="-27" on="0"/>
        <pt x="73" y="0" on="1"/>
        <pt x="73" y="510" on="1"/>
        <pt x="108" y="510" on="1"/>
        <pt x="108" y="0" on="1"/>
        <pt x="86" y="-19" on="0"/>
        <pt x="45" y="-90" on="0"/>
        <pt x="45" y="-118" on="1"/>
      </contour>
    </TTGlyph>
    <TTGlyph name="itilde" xMin="-42" yMin="0" xMax="223" yMax="743">
      <component glyphName="dotlessi" x="0" y="0" flags="0x0"/>
      <component glyphName="tildecomb" x="229" y="0" flags="0x0"/>
    </TTGlyph>
    <TTGlyph name="j" xMin="-1" yMin="-193" xMax="111" yMax="743">
      <contour>
        <pt x="70" y="743" on="1"/>
        <pt x="111" y="743" on="1"/>
        <pt x="111" y="682" on="1"/>
        <pt x="70" y="682" on="1"/>
      </contour>
      <contour>
        <pt x="-1" y="-163" on="1"/>
        <pt x="33" y="-163" on="0"/>
        <pt x="64" y="-153" on="0"/>
        <pt x="73" y="-131" on="0"/>
        <pt x="73" y="-106" on="1"/>
        <pt x="73" y="510" on="1"/>
        <pt x="108" y="510" on="1"/>
        <pt x="108" y="-96" on="1"/>
        <pt x="108" y="-141" on="0"/>
        <pt x="86" y="-182" on="0"/>
        <pt x="42" y="-193" on="0"/>
        <pt x="-1" y="-193" on="1"/>
      </contour>
    </TTGlyph>
    <TTGlyph name="jcircumflex" xMin="-12" yMin="-193" xMax="194" yMax="743">
      <component glyphName="uni0237" x="0" y="0" flags="0x0"/>
      <component glyphName="uni0302" x="200" y="0" flags="0x0"/>
    </TTGlyph>
    <TTGlyph name="k" xMin="73" yMin="0" xMax="370" yMax="743">
      <contour>
        <pt x="177" y="243" on="1"/>
        <pt x="108" y="243" on="1"/>
        <pt x="108" y="0" on="1"/>
        <pt x="73" y="0" on="1"/>
        <pt x="73" y="743" on="1"/>
        <pt x="108" y="743" on="1"/>
        <pt x="108" y="277" on="1"/>
        <pt x="177" y="277" on="1"/>
        <pt x="325" y="510" on="1"/>
        <pt x="366" y="510" on="1"/>
        <pt x="206" y="262" on="1"/>
        <pt x="370" y="0" on="1"/>
        <pt x="328" y="0" on="1"/>
      </contour>
    </TTGlyph>
    <TTGlyph name="kcommaaccent" xMin="73" yMin="-228" xMax="370" yMax="743">
      <component glyphName="k" x="0" y="0" flags="0x0"/>
      <component glyphName="uni0326" x="279" y="0" flags="0x0"/>
    </TTGlyph>
    <TTGlyph name="kgreenlandic" xMin="73" yMin="0" xMax="370" yMax="510">
      <contour>
        <pt x="177" y="243" on="1"/>
        <pt x="108" y="243" on="1"/>
        <pt x="108" y="0" on="1"/>
        <pt x="73" y="0" on="1"/>
        <pt x="73" y="510" on="1"/>
        <pt x="108" y="510" on="1"/>
        <pt x="108" y="277" on="1"/>
        <pt x="177" y="277" on="1"/>
        <pt x="325" y="510" on="1"/>
        <pt x="366" y="510" on="1"/>
        <pt x="206" y="262" on="1"/>
        <pt x="370" y="0" on="1"/>
        <pt x="328" y="0" on="1"/>
      </contour>
    </TTGlyph>
    <TTGlyph name="l" xMin="73" yMin="0" xMax="108" yMax="743">
      <contour>
        <pt x="73" y="743" on="1"/>
        <pt x="108" y="743" on="1"/>
        <pt x="108" y="0" on="1"/>
        <pt x="73" y="0" on="1"/>
      </contour>
    </TTGlyph>
    <TTGlyph name="lacute" xMin="73" yMin="0" xMax="175" yMax="921">
      <component glyphName="l" x="0" y="0" flags="0x0"/>
      <component glyphName="acutecomb" x="181" y="178" flags="0x4"/>
    </TTGlyph>
    <TTGlyph name="lcaron" xMin="73" yMin="0" xMax="198" yMax="743">
      <component glyphName="l" x="0" y="0" flags="0x0"/>
      <component glyphName="caron.loclCSY" x="111" y="0" flags="0x0"/>
    </TTGlyph>
    <TTGlyph name="lcommaaccent" xMin="55" yMin="-228" xMax="127" yMax="743">
      <component glyphName="l" x="0" y="0" flags="0x0"/>
      <component glyphName="uni0326" x="172" y="0" flags="0x0"/>
    </TTGlyph>
    <TTGlyph name="ldot" xMin="73" yMin="0" xMax="215" yMax="743">
      <component glyphName="l" x="0" y="0" flags="0x0"/>
      <component glyphName="periodcentered" x="112" y="0" flags="0x0"/>
    </TTGlyph>
    <TTGlyph name="leftOpenDialog" xMin="0" yMin="0" xMax="626" yMax="688">
      <contour>
        <pt x="60" y="628" on="1"/>
        <pt x="60" y="60" on="1"/>
        <pt x="626" y="60" on="1"/>
        <pt x="626" y="0" on="1"/>
        <pt x="0" y="0" on="1"/>
        <pt x="0" y="688" on="1"/>
        <pt x="626" y="688" on="1"/>
        <pt x="626" y="628" on="1"/>
      </contour>
    </TTGlyph>
</ttFont>
